<svg width="20" height="24" viewBox="0 0 20 24" fill="none" xmlns="http://www.w3.org/2000/svg">
  <path d="M12.6198 18.4223V17.6807C12.6198 16.3774 13.1679 15.1253 14.1236 14.2455C15.3192 13.1447 15.9777 11.6601 15.9777 10.065C15.9777 6.88048 13.2962 4.28979 10.0001 4.28979C9.77514 4.28979 9.54668 4.30188 9.3212 4.32606C6.46538 4.63114 4.1916 6.95721 4.03194 9.73683C3.93566 11.4131 4.59386 13.0433 5.83791 14.2092C6.81814 15.1279 7.38033 16.3929 7.38033 17.68V18.422C7.38033 19.2101 8.0437 19.851 8.85937 19.851H11.1405C11.9562 19.8515 12.6198 19.2103 12.6198 18.4223ZM11.5319 18.4223C11.5319 18.6307 11.3562 18.8002 11.1408 18.8002H8.85964C8.64396 18.8002 8.46853 18.6304 8.46853 18.4223V17.6802C8.46853 16.1107 7.78586 14.5708 6.59566 13.4551C5.57817 12.5015 5.03964 11.1674 5.11852 9.79543C5.24907 7.52244 7.10726 5.62048 9.44114 5.37111C9.62718 5.35114 9.81539 5.34115 10.0006 5.34115C12.6968 5.34115 14.8903 7.46016 14.8903 10.0653C14.8903 11.37 14.3518 12.5842 13.3737 13.4848C12.2037 14.5619 11.5324 16.0912 11.5324 17.681L11.5319 18.4223Z" fill="var(--secondary-text-color, grey)" />
  <path d="M11.7704 20.3705H8.22971C8.00423 20.3705 7.82173 20.5468 7.82173 20.7646C7.82173 20.9825 8.00423 21.1588 8.22971 21.1588H11.7707C11.9961 21.1588 12.1786 20.9825 12.1786 20.7646C12.1786 20.5468 11.9959 20.3705 11.7704 20.3705Z" fill="var(--secondary-text-color, grey)" />
  <path d="M12.1784 22.0102C12.1784 21.7923 11.9959 21.616 11.7704 21.616H8.22971C8.00423 21.616 7.82173 21.7923 7.82173 22.0102C7.82173 22.228 8.00423 22.4043 8.22971 22.4043H11.7707C11.9959 22.4043 12.1784 22.2278 12.1784 22.0102Z" fill="var(--secondary-text-color, grey)" />
  <path d="M0.407975 10.0555H2.75873C2.9842 10.0555 3.1667 9.87921 3.1667 9.66137C3.1667 9.44353 2.9842 9.26721 2.75873 9.26721H0.407975C0.182501 9.26721 0 9.44353 0 9.66137C0 9.87921 0.182501 10.0555 0.407975 10.0555Z" fill="var(--secondary-text-color, grey)" />
  <path d="M20.0001 9.66137C20.0001 9.44353 19.8176 9.26721 19.5921 9.26721H17.2414C17.0159 9.26721 16.8334 9.44353 16.8334 9.66137C16.8334 9.87921 17.0159 10.0555 17.2414 10.0555H19.5921C19.8176 10.0555 20.0001 9.87921 20.0001 9.66137Z" fill="var(--secondary-text-color, grey)" />
  <path d="M9.59187 0.394161V2.66531C9.59187 2.88315 9.77437 3.05947 9.99985 3.05947C10.2253 3.05947 10.4078 2.88315 10.4078 2.66531V0.394161C10.4078 0.176321 10.2253 0 9.99985 0C9.77437 0 9.59187 0.176321 9.59187 0.394161Z" fill="var(--secondary-text-color, grey)" />
  <path d="M16.4942 2.82978L14.8321 4.43559C14.6727 4.58932 14.6727 4.83921 14.8321 4.99294C14.9118 5.06993 15.0162 5.10829 15.1206 5.10829C15.2251 5.10829 15.3295 5.06993 15.4092 4.99294L17.0713 3.38713C17.2307 3.2334 17.2307 2.98351 17.0713 2.82978C16.9116 2.6758 16.6535 2.6758 16.4942 2.82978Z" fill="var(--secondary-text-color, grey)" />
  <path d="M5.16799 14.3298C5.00861 14.1759 4.75049 14.1759 4.59111 14.3298L2.92902 15.9357C2.76964 16.0894 2.76964 16.339 2.92902 16.493C3.00871 16.57 3.11315 16.6084 3.2176 16.6084C3.32204 16.6084 3.42648 16.57 3.50617 16.493L5.16826 14.8872C5.32737 14.7335 5.32737 14.4838 5.16799 14.3298Z" fill="var(--secondary-text-color, grey)" />
  <path d="M4.59109 4.99294C4.67078 5.06993 4.77522 5.10829 4.87967 5.10829C4.98411 5.10829 5.08855 5.06993 5.16824 4.99294C5.32762 4.83921 5.32762 4.58932 5.16824 4.43559L3.50615 2.82978C3.34677 2.6758 3.08866 2.6758 2.92927 2.82978C2.76989 2.98351 2.76989 3.2334 2.92927 3.38713L4.59109 4.99294Z" fill="var(--secondary-text-color, grey)" />
  <path d="M16.4939 16.493C16.5736 16.57 16.678 16.6084 16.7825 16.6084C16.8869 16.6084 16.9913 16.57 17.071 16.493C17.2304 16.339 17.2304 16.0894 17.071 15.9357L15.4089 14.3298C15.2496 14.1759 14.9914 14.1759 14.8321 14.3298C14.6727 14.4838 14.6727 14.7335 14.8321 14.8872L16.4939 16.493Z" fill="var(--secondary-text-color, grey)" />
  <path d="M11.293 23.2555C11.293 23.0376 11.1105 22.8613 10.885 22.8613H9.11465C8.88918 22.8613 8.70668 23.0376 8.70668 23.2555C8.70668 23.4733 8.88918 23.6496 9.11465 23.6496H10.885C11.1105 23.6496 11.293 23.4733 11.293 23.2555Z" fill="var(--secondary-text-color, grey)" />
</svg>
