<svg width="177" height="43" viewBox="0 0 177 43" fill="none" xmlns="http://www.w3.org/2000/svg">
  <path d="M14.4804 17.165V15.5394C13.9397 15.404 13.3991 15.4041 12.8585 15.4041C5.96495 15.4041 0.423058 20.9579 0.423058 27.8666C0.423058 32.0658 2.58572 35.8588 5.6946 38.0262L5.55943 37.8907C3.53183 35.7233 2.45055 32.7434 2.45055 29.6277C2.45055 22.7191 7.85727 17.3005 14.4804 17.165V17.165Z" fill="#25F4EE" />
  <path d="M14.751 35.317C17.8599 35.317 20.2929 32.8787 20.4281 29.7631V2.67065H25.2941C25.1589 2.12888 25.1589 1.58701 25.1589 0.909668H18.4006V28.0021C18.2654 30.9822 15.8324 33.4206 12.7235 33.4206C11.7774 33.4206 10.8313 33.1496 10.1554 32.7432C11.2367 34.2334 12.8587 35.317 14.7511 35.317H14.751ZM34.6204 11.8822V10.2567C32.728 10.2567 30.9709 9.71479 29.4841 8.76651C30.8357 10.2567 32.5928 11.4759 34.6203 11.8822H34.6204Z" fill="#25F4EE" />
  <path d="M29.4838 8.76641C27.997 7.1409 27.186 4.97351 27.186 2.53519H25.2938C25.8342 5.24445 27.4563 7.41183 29.4838 8.76641ZM12.8584 22.0417C9.74958 22.0417 7.1814 24.6154 7.1814 27.731C7.1814 29.8984 8.53313 31.795 10.2903 32.7431C9.61441 31.795 9.20889 30.7112 9.20889 29.4921C9.20889 26.3765 11.7771 23.8027 14.886 23.8027C15.4266 23.8027 15.9672 23.9381 16.5079 24.0736V17.165C15.9672 17.0296 15.4266 17.0296 14.886 17.0296H14.6156V22.1771C13.9397 22.1771 13.399 22.0417 12.8585 22.0417H12.8584Z" fill="#FE2C55" />
  <path d="M34.6202 11.8823V17.0298C31.1059 17.0298 27.8619 15.9461 25.2937 14.0497V27.8668C25.2937 34.7754 19.7518 40.3293 12.8584 40.3293C10.1549 40.3293 7.722 39.5166 5.6944 38.1619C7.99224 40.6002 11.2363 42.0903 14.7507 42.0903C21.6442 42.0903 27.186 36.5364 27.186 29.6278V15.8107C29.8895 17.7071 33.1334 18.7909 36.5125 18.7909V12.0178C35.9719 12.0178 35.2961 12.0178 34.6203 11.8823H34.6202Z" fill="#FE2C55" />
  <path d="M25.2937 27.8666V14.0495C27.997 15.946 31.2411 17.0296 34.6202 17.0296V11.7465C32.5927 11.3402 30.8356 10.2565 29.4838 8.76641C27.3212 7.41173 25.8344 5.10898 25.4288 2.53519H20.4276V29.6277C20.2925 32.6078 17.8596 35.0461 14.7507 35.0461C12.8583 35.0461 11.2363 34.0978 10.155 32.7432C8.39776 31.9303 7.1813 30.0339 7.1813 27.8665C7.1813 24.7509 9.74938 22.1773 12.8583 22.1773C13.399 22.1773 13.9396 22.3126 14.4803 22.4481V17.165C7.72199 17.3005 2.31528 22.8546 2.31528 29.6277C2.31528 32.8787 3.53173 35.8588 5.6944 38.1617C7.722 39.5164 10.155 40.4646 12.8583 40.4646C19.7518 40.3292 25.2937 34.6396 25.2937 27.8665V27.8666ZM44.9469 9.68861H66.9794L65.0022 16.0581H59.3528V39.4125H52.2911V15.9164H45.0881L44.9469 9.68861ZM103.136 9.68861H125.733L123.756 16.0581H117.541V39.4125H110.339V15.9164H103.136V9.68861ZM68.3919 19.1719H75.4535V39.2709H68.3919V19.1719ZM78.2782 9.54693H85.34V23.4181L92.4016 16.4825H100.876L91.9779 25.1165L101.864 39.2709H94.0964L87.4584 29.3629L85.34 31.3444V39.1293H78.2782V9.54693ZM152.991 9.54693H160.053V23.4181L167.114 16.4825H175.588L166.691 25.1165L176.577 39.2709H168.809L162.171 29.3629L160.053 31.3444V39.1293H152.991V9.54693ZM71.9228 16.7658C73.8727 16.7658 75.4535 15.1815 75.4535 13.2272C75.4535 11.273 73.8727 9.68861 71.9228 9.68861C69.9727 9.68861 68.3919 11.2729 68.3919 13.2272C68.3919 15.1815 69.9727 16.7658 71.9228 16.7658Z" fill="white" />
  <path d="M124.744 27.2397C124.744 20.8703 129.687 15.6332 135.902 15.2086H134.913C128.275 15.2086 122.767 20.5873 122.767 27.3813C122.767 34.0338 128.134 39.5539 134.913 39.5539H135.902C129.687 38.8463 124.744 33.6092 124.744 27.2397V27.2397Z" fill="#25F4EE" />
  <path d="M138.585 15.067H137.455C143.669 15.4916 148.613 20.7286 148.613 27.0981C148.613 33.4675 143.669 38.7045 137.455 39.1292H138.585C145.223 39.1292 150.731 33.7505 150.731 26.9565C150.731 20.5871 145.364 15.067 138.585 15.067V15.067Z" fill="#FE2C55" />
  <path d="M136.749 15.067C130.111 15.067 124.603 20.4456 124.603 27.2396C124.603 33.8921 129.97 39.4122 136.749 39.4122C143.528 39.4122 148.895 34.0337 148.895 27.2396C148.895 20.5872 143.387 15.067 136.749 15.067V15.067ZM136.749 33.1844C133.5 33.1844 130.817 30.495 130.817 27.2396C130.817 23.9841 133.501 21.2948 136.749 21.2948C139.997 21.2948 142.681 23.9842 142.681 27.2396C142.681 30.4951 139.997 33.1844 136.749 33.1844Z" fill="white" />
</svg>
