<?xml version="1.0" standalone="no"?>
<!DOCTYPE svg PUBLIC "-//W3C//DTD SVG 20010904//EN"
 "http://www.w3.org/TR/2001/REC-SVG-20010904/DTD/svg10.dtd">
<svg version="1.0" xmlns="http://www.w3.org/2000/svg"
 width="700.000000pt" height="700.000000pt" viewBox="0 0 700.000000 700.000000"
 preserveAspectRatio="xMidYMid meet">
<metadata>
Created by potrace 1.11, written by Peter Selinger 2001-2013
</metadata>
<g transform="translate(0.000000,700.000000) scale(0.100000,-0.100000)"
fill="#000000" stroke="none">
<path d="M3275 6990 c-727 -50 -1399 -311 -1970 -766 -141 -113 -416 -388
-529 -529 -397 -498 -646 -1070 -735 -1690 -72 -497 -37 -996 105 -1485 106
-364 293 -746 520 -1062 214 -297 547 -624 844 -827 421 -288 914 -489 1402
-570 377 -63 731 -66 1108 -10 1145 171 2132 906 2634 1961 332 697 420 1497
250 2255 -226 1009 -884 1862 -1805 2340 -548 285 -1212 424 -1824 383z m541
-1687 c-3 -10 -114 -637 -246 -1393 -133 -756 -244 -1387 -247 -1402 l-5 -28
694 -2 694 -3 -69 -385 c-38 -212 -70 -386 -71 -388 -2 -1 -518 -1 -1147 0
l-1145 3 302 1715 c167 943 310 1757 319 1808 l17 92 455 0 c428 0 454 -1 449
-17z"/>
</g>
</svg>
