<svg width="1013" height="697" viewBox="0 0 1013 697" fill="none" xmlns="http://www.w3.org/2000/svg">
<g clip-path="url(#clip0)">
<path d="M151 550.568C151 550.568 160.543 544.01 170 548.676C170 548.676 167.088 554.513 155.115 553.963L151 550.568Z" fill="#3F3D56"/>
<path d="M149.58 551C149.58 551 146.633 562.306 154.025 570C154.025 570 158.469 565.339 154.025 553.922L149.58 551Z" fill="#3F3D56"/>
<path d="M137 540.009C137 540.009 137.741 530.48 160 533.643C160 533.643 160.106 539.789 152.293 542.7C144.479 545.611 140.898 543.156 137 540.009Z" fill="#3F3D56"/>
<path d="M136.081 540C136.081 540 127.549 542.906 135.159 563C135.159 563 140.79 561.668 141.802 553.67C142.813 545.672 139.816 542.914 136.081 540Z" fill="#3F3D56"/>
<path d="M124.013 526.223C124.013 526.223 122.766 510.507 144.966 512.116C144.966 512.116 146.555 526.31 127.929 530L124.013 526.223Z" fill="#3F3D56"/>
<path d="M109 508.695C109 508.695 112.014 490.616 134 496.002C134 496.002 134.079 511.632 112.588 513L109 508.695Z" fill="#3F3D56"/>
<path d="M98 489.861C98 489.861 103.083 472.866 125 477.949C125 477.949 119.782 493.237 99.457 492.997L98 489.861Z" fill="#3F3D56"/>
<path d="M88 471.824C88 471.824 92.94 453.555 114 459.02C114 459.02 106.972 476.377 89.3946 474.912L88 471.824Z" fill="#3F3D56"/>
<path d="M82 454.799C82 454.799 85.7276 432.842 105 437.702C105 437.702 99.4008 457.678 83.4152 458L82 454.799Z" fill="#3F3D56"/>
<path d="M75 434.669C75 434.669 79.6694 411.519 100 418.216C100 418.216 92.0323 440.098 76.4436 437.836L75 434.669Z" fill="#3F3D56"/>
<path d="M72 415.582C72 415.582 79.0495 393.413 94 394.012C94 394.012 86.797 417.425 73.2503 420L72 415.582Z" fill="#3F3D56"/>
<path d="M69 396.827C69 396.827 77.1206 370.051 90 372.113C90 372.113 84.3805 392.583 69.4547 401L69 396.827Z" fill="#3F3D56"/>
<path d="M68 374.2C68 374.2 75.504 351.893 88 351C88 351 82.8959 372.951 68.2479 380L68 374.2Z" fill="#3F3D56"/>
<path d="M66 353.403C66 353.403 75.5645 331.496 84 331C84 331 79.8436 352.574 66.8182 357L66 353.403Z" fill="#3F3D56"/>
<path d="M65 334.188C65 334.188 70.7454 310.009 79 308C79 308 77.8733 327.783 65.8311 336L65 334.188Z" fill="#3F3D56"/>
<path d="M62 308.276C62 308.276 68.1695 288.946 75 286C75 286 73.6535 308.79 63.5751 313L62 308.276Z" fill="#3F3D56"/>
<path d="M59.3619 292.029L58 258C58 258 72.0222 283.652 60.3744 298L59.3619 292.029Z" fill="#3F3D56"/>
<path d="M50.1506 258.335C50.1506 258.335 41.1744 233.394 39 232C39 232 56.602 248.184 54.8816 269L50.1506 258.335Z" fill="#3F3D56"/>
<path d="M123.38 526.049C123.38 526.049 107.539 524.026 108.01 545.908C108.01 545.908 122.325 548.189 127 530.088L123.38 526.049Z" fill="#3F3D56"/>
<path d="M108.441 508C108.441 508 90.6076 507.944 92.0872 530.884C92.0872 530.884 107.063 533.636 112 512.337L108.441 508Z" fill="#3F3D56"/>
<path d="M98.5149 491.47C98.5149 491.47 81.7348 483.755 71 503.671C71 503.671 86.4968 510.096 100 494.691L98.5149 491.47Z" fill="#3F3D56"/>
<path d="M87.6139 472.69C87.6139 472.69 70.8453 464.622 61 483.744C61 483.744 78.4695 489.688 89 475.716L87.6139 472.69Z" fill="#3F3D56"/>
<path d="M82.2536 455.443C82.2536 455.443 65.9831 440.837 53 455.608C53 455.608 69.6199 467.632 83 458.698L82.2536 455.443Z" fill="#3F3D56"/>
<path d="M76.4091 433.735C76.4091 433.735 59.9518 418.113 47 434.454C47 434.454 65.4695 447.288 77 437.016L76.4091 433.735Z" fill="#3F3D56"/>
<path d="M73 414.48C73 414.48 60.6009 395.352 46 399.621C46 399.621 58.8676 419.874 72.8595 418.971L73 414.48Z" fill="#3F3D56"/>
<path d="M69.6751 396.679C69.6751 396.679 56.9968 371.062 45 375.521C45 375.521 54.1442 395.214 70 401L69.6751 396.679Z" fill="#3F3D56"/>
<path d="M68.7089 373.348C68.7089 373.348 55.4349 353.814 43 356.202C43 356.202 53.8532 376.012 70 379L68.7089 373.348Z" fill="#3F3D56"/>
<path d="M68 353.249C68 353.249 57.5175 331.151 49 331C49 331 54.0316 352.939 67.293 357L68 353.249Z" fill="#3F3D56"/>
<path d="M66 333.988C66 333.988 54.5818 311.049 46 311C46 311 51.8421 330.616 65.6213 336L66 333.988Z" fill="#3F3D56"/>
<path d="M64 310.19C64 310.19 55.7957 292.055 49 290C49 290 53.1021 312.105 63.0944 315L64 310.19Z" fill="#3F3D56"/>
<path d="M58.3238 291.536L40 263C40 263 44.695 291.149 61 297L58.3238 291.536Z" fill="#3F3D56"/>
<path d="M45.824 260.622C45.824 260.622 23.8 245.451 23 243C23 243 34.2 264.247 55 268L45.824 260.622Z" fill="#3F3D56"/>
<path d="M44.3986 254C44.3986 254 19.3858 229.976 13 230C13 230 33.6291 230.941 45 252.719L44.3986 254Z" fill="#3F3D56"/>
<path d="M64 313.881L63.0991 314C58.4457 277.268 51.6616 255.532 44 252.869L44.2977 252C52.4215 254.844 59.2526 276.248 64 313.881Z" fill="#444053"/>
<path d="M71 401.889L69.634 402C69.3435 398.559 69.1236 395.038 68.9744 391.526C67.6712 361.016 65.6536 332.995 63 311.991L63.7851 311C66.4465 332.051 69.0372 360.912 70.3405 391.47C70.4896 394.959 70.7095 398.464 71 401.889Z" fill="#444053"/>
<path d="M176.254 568C176.017 567.897 151.723 557.087 126.51 531.311C111.737 516.214 99.4633 498.878 90.1448 479.948C78.4858 456.297 71.3794 427.234 69 399L70.4355 399.672C75.7891 463.046 104.746 506.349 127.771 529.936C152.738 555.483 176.762 566.183 177 566.285L176.254 568Z" fill="#444053"/>
<path d="M954.881 74H120.207C118.235 74 116.343 74.7808 114.949 76.1705C113.555 77.5603 112.771 79.4453 112.771 81.4107V103.002H962.316V81.4107C962.316 79.4453 961.533 77.5603 960.138 76.1705C958.744 74.7808 956.853 74 954.881 74Z" fill="#3F3D56"/>
<path d="M112.771 103.002V588.891C112.771 592.854 114.351 596.655 117.162 599.457C119.974 602.26 123.788 603.834 127.764 603.834H947.323C951.3 603.834 955.113 602.26 957.925 599.457C960.737 596.655 962.316 592.854 962.316 588.891V103.002H112.771Z" fill="white"/>
<path opacity="0.8" d="M126.227 91.7477C128.146 91.7477 129.701 90.1973 129.701 88.2847C129.701 86.3722 128.146 84.8218 126.227 84.8218C124.308 84.8218 122.752 86.3722 122.752 88.2847C122.752 90.1973 124.308 91.7477 126.227 91.7477Z" fill="#FA5959"/>
<path opacity="0.8" d="M135.782 91.7477C137.701 91.7477 139.256 90.1973 139.256 88.2847C139.256 86.3722 137.701 84.8218 135.782 84.8218C133.863 84.8218 132.307 86.3722 132.307 88.2847C132.307 90.1973 133.863 91.7477 135.782 91.7477Z" fill="#FED253"/>
<path opacity="0.8" d="M145.337 91.7477C147.256 91.7477 148.812 90.1973 148.812 88.2847C148.812 86.3722 147.256 84.8218 145.337 84.8218C143.418 84.8218 141.862 86.3722 141.862 88.2847C141.862 90.1973 143.418 91.7477 145.337 91.7477Z" fill="#8CCF4D"/>
<path opacity="0.05" d="M874.504 184.018H191.741V483.236H874.504V184.018Z" fill="black"/>
<path d="M869.292 186.287H196.953V478.907H869.292V186.287Z" fill="#3F3D56"/>
<path d="M380.239 261.598C367.01 261.598 354.078 265.507 343.079 272.832C332.079 280.157 323.506 290.568 318.444 302.749C313.381 314.93 312.057 328.334 314.638 341.265C317.218 354.196 323.589 366.074 332.943 375.397C342.297 384.72 354.215 391.069 367.19 393.641C380.165 396.213 393.613 394.893 405.835 389.847C418.057 384.802 428.503 376.258 435.853 365.295C443.202 354.333 447.125 341.444 447.125 328.26C447.125 319.505 445.395 310.837 442.034 302.749C438.672 294.661 433.746 287.313 427.535 281.122C421.324 274.932 413.95 270.022 405.835 266.672C397.72 263.322 389.022 261.598 380.239 261.598ZM392.235 329.861V361.426H368.59V329.861C365.318 327.393 362.907 323.962 361.696 320.054C360.485 316.146 360.537 311.958 361.843 308.081C363.15 304.204 365.645 300.833 368.977 298.445C372.309 296.058 376.309 294.773 380.413 294.773C384.516 294.773 388.516 296.058 391.848 298.445C395.18 300.833 397.675 304.204 398.982 308.081C400.288 311.958 400.34 316.146 399.129 320.054C397.919 323.962 395.507 327.393 392.235 329.861Z" fill="#F9A826"/>
<path opacity="0.05" d="M380.239 261.598C367.01 261.598 354.078 265.507 343.079 272.832C332.079 280.157 323.506 290.568 318.444 302.749C313.381 314.93 312.057 328.334 314.638 341.265C317.218 354.196 323.589 366.074 332.943 375.397C342.297 384.72 354.215 391.069 367.19 393.641C380.165 396.213 393.613 394.893 405.835 389.847C418.057 384.802 428.503 376.258 435.853 365.295C443.202 354.333 447.125 341.444 447.125 328.26C447.125 319.505 445.395 310.837 442.034 302.749C438.672 294.661 433.746 287.313 427.535 281.122C421.324 274.932 413.95 270.022 405.835 266.672C397.72 263.322 389.022 261.598 380.239 261.598ZM392.235 329.861V361.426H368.59V329.861C365.318 327.393 362.907 323.962 361.696 320.054C360.485 316.146 360.537 311.958 361.843 308.081C363.15 304.204 365.645 300.833 368.977 298.445C372.309 296.058 376.309 294.773 380.413 294.773C384.516 294.773 388.516 296.058 391.848 298.445C395.18 300.833 397.675 304.204 398.982 308.081C400.288 311.958 400.34 316.146 399.129 320.054C397.919 323.962 395.507 327.393 392.235 329.861Z" fill="black"/>
<path d="M380.239 242.551C363.23 242.551 346.604 247.578 332.462 256.996C318.319 266.413 307.297 279.799 300.788 295.46C294.279 311.122 292.576 328.355 295.894 344.981C299.213 361.606 307.403 376.878 319.43 388.865C331.457 400.851 346.78 409.014 363.462 412.321C380.144 415.628 397.435 413.931 413.148 407.444C428.862 400.957 442.293 389.971 451.743 375.877C461.192 361.782 466.236 345.211 466.236 328.26C466.236 305.528 457.175 283.728 441.048 267.655C424.92 251.581 403.047 242.551 380.239 242.551ZM395.658 330.32V370.897H365.255V330.32C361.046 327.146 357.944 322.734 356.387 317.708C354.829 312.683 354.895 307.296 356.575 302.309C358.255 297.323 361.464 292.988 365.749 289.917C370.034 286.846 375.178 285.194 380.456 285.194C385.734 285.194 390.878 286.846 395.163 289.917C399.448 292.988 402.657 297.323 404.337 302.309C406.017 307.296 406.083 312.683 404.525 317.708C402.968 322.734 399.866 327.146 395.658 330.32Z" fill="#F9A826"/>
<path d="M779.82 317.014H501.851V346.449H779.82V317.014Z" fill="white"/>
<path d="M779.82 370.69H719.883V400.125H779.82V370.69Z" fill="#F9A826"/>
<path d="M529.213 331.29H524.184L528.657 326.84C528.737 326.758 528.782 326.647 528.782 326.533C528.782 326.418 528.737 326.308 528.657 326.225C528.617 326.185 528.569 326.152 528.516 326.13C528.463 326.108 528.406 326.097 528.349 326.097C528.292 326.097 528.235 326.108 528.182 326.13C528.129 326.152 528.081 326.185 528.041 326.225L523.567 330.684V325.662C523.567 325.548 523.521 325.438 523.44 325.356C523.358 325.275 523.248 325.23 523.133 325.23C523.018 325.232 522.909 325.278 522.828 325.359C522.747 325.44 522.701 325.548 522.698 325.662V330.684L518.233 326.199C518.193 326.159 518.145 326.126 518.092 326.104C518.039 326.083 517.982 326.071 517.925 326.071C517.868 326.071 517.811 326.083 517.758 326.104C517.705 326.126 517.657 326.159 517.617 326.199C517.537 326.282 517.492 326.392 517.492 326.507C517.492 326.621 517.537 326.732 517.617 326.814L522.09 331.264H517.052C516.938 331.266 516.828 331.312 516.747 331.393C516.666 331.474 516.62 331.583 516.618 331.697C516.618 331.811 516.664 331.922 516.745 332.003C516.826 332.084 516.937 332.13 517.052 332.13H522.09L517.617 336.588C517.537 336.67 517.492 336.781 517.492 336.895C517.492 337.01 517.537 337.12 517.617 337.203C517.7 337.281 517.811 337.324 517.925 337.324C518.04 337.324 518.15 337.281 518.233 337.203L522.698 332.744V337.757C522.698 337.872 522.744 337.982 522.826 338.063C522.907 338.144 523.018 338.19 523.133 338.19C523.248 338.19 523.358 338.144 523.44 338.063C523.521 337.982 523.567 337.872 523.567 337.757V332.744L528.041 337.203C528.124 337.281 528.234 337.324 528.349 337.324C528.463 337.324 528.574 337.281 528.657 337.203C528.737 337.12 528.782 337.01 528.782 336.895C528.782 336.781 528.737 336.67 528.657 336.588L524.184 332.13H529.213C529.329 332.13 529.439 332.084 529.52 332.003C529.602 331.922 529.648 331.811 529.648 331.697C529.641 331.586 529.592 331.483 529.512 331.407C529.431 331.332 529.324 331.29 529.213 331.29Z" fill="#F9A826"/>
<path d="M547.455 331.29H542.426L546.899 326.84C546.979 326.758 547.024 326.647 547.024 326.533C547.024 326.418 546.979 326.308 546.899 326.225C546.859 326.185 546.811 326.152 546.758 326.13C546.705 326.108 546.648 326.097 546.591 326.097C546.533 326.097 546.477 326.108 546.424 326.13C546.371 326.152 546.323 326.185 546.282 326.225L541.809 330.684V325.662C541.809 325.548 541.763 325.438 541.682 325.356C541.6 325.275 541.49 325.23 541.375 325.23C541.26 325.232 541.151 325.278 541.07 325.359C540.989 325.44 540.942 325.548 540.94 325.662V330.684L536.475 326.199C536.435 326.159 536.387 326.126 536.334 326.104C536.281 326.083 536.224 326.071 536.167 326.071C536.11 326.071 536.053 326.083 536 326.104C535.947 326.126 535.899 326.159 535.859 326.199C535.778 326.282 535.734 326.392 535.734 326.507C535.734 326.621 535.778 326.732 535.859 326.814L540.332 331.264H535.294C535.179 331.266 535.07 331.312 534.989 331.393C534.908 331.474 534.862 331.583 534.86 331.697C534.86 331.811 534.905 331.922 534.987 332.003C535.068 332.084 535.179 332.13 535.294 332.13H540.332L535.859 336.588C535.778 336.67 535.734 336.781 535.734 336.895C535.734 337.01 535.778 337.12 535.859 337.203C535.942 337.281 536.052 337.324 536.167 337.324C536.281 337.324 536.392 337.281 536.475 337.203L540.94 332.744V337.757C540.94 337.872 540.986 337.982 541.067 338.063C541.149 338.144 541.259 338.19 541.375 338.19C541.49 338.19 541.6 338.144 541.682 338.063C541.763 337.982 541.809 337.872 541.809 337.757V332.744L546.282 337.203C546.366 337.281 546.476 337.324 546.591 337.324C546.705 337.324 546.816 337.281 546.899 337.203C546.979 337.12 547.024 337.01 547.024 336.895C547.024 336.781 546.979 336.67 546.899 336.588L542.426 332.13H547.455C547.57 332.13 547.681 332.084 547.762 332.003C547.844 331.922 547.889 331.811 547.889 331.697C547.883 331.586 547.834 331.483 547.753 331.407C547.673 331.332 547.566 331.29 547.455 331.29Z" fill="#F9A826"/>
<path d="M565.697 331.29H560.667L565.141 326.84C565.221 326.758 565.266 326.647 565.266 326.533C565.266 326.418 565.221 326.308 565.141 326.225C565.101 326.185 565.052 326.152 565 326.13C564.947 326.108 564.89 326.097 564.832 326.097C564.775 326.097 564.718 326.108 564.665 326.13C564.613 326.152 564.564 326.185 564.524 326.225L560.051 330.684V325.662C560.051 325.548 560.005 325.438 559.923 325.356C559.842 325.275 559.731 325.23 559.616 325.23C559.502 325.232 559.393 325.278 559.312 325.359C559.231 325.44 559.184 325.548 559.182 325.662V330.684L554.717 326.199C554.677 326.159 554.629 326.126 554.576 326.104C554.523 326.083 554.466 326.071 554.409 326.071C554.351 326.071 554.295 326.083 554.242 326.104C554.189 326.126 554.141 326.159 554.1 326.199C554.02 326.282 553.975 326.392 553.975 326.507C553.975 326.621 554.02 326.732 554.1 326.814L558.574 331.264H553.536C553.421 331.266 553.312 331.312 553.231 331.393C553.15 331.474 553.104 331.583 553.101 331.697C553.101 331.811 553.147 331.922 553.229 332.003C553.31 332.084 553.42 332.13 553.536 332.13H558.574L554.1 336.588C554.02 336.67 553.975 336.781 553.975 336.895C553.975 337.01 554.02 337.12 554.1 337.203C554.184 337.281 554.294 337.324 554.409 337.324C554.523 337.324 554.633 337.281 554.717 337.203L559.182 332.744V337.757C559.182 337.872 559.228 337.982 559.309 338.063C559.391 338.144 559.501 338.19 559.616 338.19C559.731 338.19 559.842 338.144 559.923 338.063C560.005 337.982 560.051 337.872 560.051 337.757V332.744L564.524 337.203C564.608 337.281 564.718 337.324 564.832 337.324C564.947 337.324 565.057 337.281 565.141 337.203C565.221 337.12 565.266 337.01 565.266 336.895C565.266 336.781 565.221 336.67 565.141 336.588L560.667 332.13H565.697C565.812 332.13 565.922 332.084 566.004 332.003C566.085 331.922 566.131 331.811 566.131 331.697C566.125 331.586 566.076 331.483 565.995 331.407C565.914 331.332 565.808 331.29 565.697 331.29Z" fill="#F9A826"/>
<path d="M583.939 331.29H578.909L583.383 326.84C583.463 326.758 583.508 326.647 583.508 326.533C583.508 326.418 583.463 326.308 583.383 326.225C583.342 326.185 583.294 326.152 583.241 326.13C583.188 326.108 583.132 326.097 583.074 326.097C583.017 326.097 582.96 326.108 582.907 326.13C582.854 326.152 582.806 326.185 582.766 326.225L578.292 330.684V325.662C578.292 325.548 578.247 325.438 578.165 325.356C578.084 325.275 577.973 325.23 577.858 325.23C577.744 325.232 577.634 325.278 577.553 325.359C577.472 325.44 577.426 325.548 577.424 325.662V330.684L572.959 326.199C572.918 326.159 572.87 326.126 572.817 326.104C572.765 326.083 572.708 326.071 572.65 326.071C572.593 326.071 572.536 326.083 572.483 326.104C572.43 326.126 572.382 326.159 572.342 326.199C572.262 326.282 572.217 326.392 572.217 326.507C572.217 326.621 572.262 326.732 572.342 326.814L576.816 331.264H571.777C571.663 331.266 571.554 331.312 571.473 331.393C571.392 331.474 571.345 331.583 571.343 331.697C571.343 331.811 571.389 331.922 571.47 332.003C571.552 332.084 571.662 332.13 571.777 332.13H576.816L572.342 336.588C572.262 336.67 572.217 336.781 572.217 336.895C572.217 337.01 572.262 337.12 572.342 337.203C572.426 337.281 572.536 337.324 572.65 337.324C572.765 337.324 572.875 337.281 572.959 337.203L577.424 332.744V337.757C577.424 337.872 577.469 337.982 577.551 338.063C577.632 338.144 577.743 338.19 577.858 338.19C577.973 338.19 578.084 338.144 578.165 338.063C578.247 337.982 578.292 337.872 578.292 337.757V332.744L582.766 337.203C582.85 337.281 582.96 337.324 583.074 337.324C583.189 337.324 583.299 337.281 583.383 337.203C583.463 337.12 583.508 337.01 583.508 336.895C583.508 336.781 583.463 336.67 583.383 336.588L578.909 332.13H583.939C584.054 332.13 584.164 332.084 584.246 332.003C584.327 331.922 584.373 331.811 584.373 331.697C584.366 331.586 584.318 331.483 584.237 331.407C584.156 331.332 584.049 331.29 583.939 331.29Z" fill="#F9A826"/>
<path d="M602.18 331.29H597.151L601.624 326.84C601.705 326.758 601.749 326.647 601.749 326.533C601.749 326.418 601.705 326.308 601.624 326.225C601.584 326.185 601.536 326.152 601.483 326.13C601.43 326.108 601.373 326.097 601.316 326.097C601.259 326.097 601.202 326.108 601.149 326.13C601.096 326.152 601.048 326.185 601.008 326.225L596.534 330.684V325.662C596.534 325.548 596.488 325.438 596.407 325.356C596.325 325.275 596.215 325.23 596.1 325.23C595.985 325.232 595.876 325.278 595.795 325.359C595.714 325.44 595.668 325.548 595.665 325.662V330.684L591.201 326.199C591.16 326.159 591.112 326.126 591.059 326.104C591.006 326.083 590.95 326.071 590.892 326.071C590.835 326.071 590.778 326.083 590.725 326.104C590.672 326.126 590.624 326.159 590.584 326.199C590.504 326.282 590.459 326.392 590.459 326.507C590.459 326.621 590.504 326.732 590.584 326.814L595.057 331.264H590.019C589.905 331.266 589.796 331.312 589.715 331.393C589.634 331.474 589.587 331.583 589.585 331.697C589.585 331.811 589.631 331.922 589.712 332.003C589.794 332.084 589.904 332.13 590.019 332.13H595.057L590.584 336.588C590.504 336.67 590.459 336.781 590.459 336.895C590.459 337.01 590.504 337.12 590.584 337.203C590.668 337.281 590.778 337.324 590.892 337.324C591.007 337.324 591.117 337.281 591.201 337.203L595.665 332.744V337.757C595.665 337.872 595.711 337.982 595.793 338.063C595.874 338.144 595.985 338.19 596.1 338.19C596.215 338.19 596.325 338.144 596.407 338.063C596.488 337.982 596.534 337.872 596.534 337.757V332.744L601.008 337.203C601.091 337.281 601.202 337.324 601.316 337.324C601.43 337.324 601.541 337.281 601.624 337.203C601.705 337.12 601.749 337.01 601.749 336.895C601.749 336.781 601.705 336.67 601.624 336.588L597.151 332.13H602.18C602.296 332.13 602.406 332.084 602.487 332.003C602.569 331.922 602.615 331.811 602.615 331.697C602.608 331.586 602.559 331.483 602.479 331.407C602.398 331.332 602.291 331.29 602.18 331.29Z" fill="#F9A826"/>
<path d="M620.422 331.29H615.393L619.866 326.84C619.946 326.758 619.991 326.647 619.991 326.533C619.991 326.418 619.946 326.308 619.866 326.225C619.826 326.185 619.778 326.152 619.725 326.13C619.672 326.108 619.615 326.097 619.558 326.097C619.5 326.097 619.444 326.108 619.391 326.13C619.338 326.152 619.29 326.185 619.249 326.225L614.776 330.684V325.662C614.776 325.548 614.73 325.438 614.649 325.356C614.567 325.275 614.457 325.23 614.342 325.23C614.227 325.232 614.118 325.278 614.037 325.359C613.956 325.44 613.909 325.548 613.907 325.662V330.684L609.442 326.199C609.402 326.159 609.354 326.126 609.301 326.104C609.248 326.083 609.191 326.071 609.134 326.071C609.077 326.071 609.02 326.083 608.967 326.104C608.914 326.126 608.866 326.159 608.826 326.199C608.745 326.282 608.701 326.392 608.701 326.507C608.701 326.621 608.745 326.732 608.826 326.814L613.299 331.264H608.261C608.146 331.266 608.037 331.312 607.956 331.393C607.875 331.474 607.829 331.583 607.827 331.697C607.827 331.811 607.872 331.922 607.954 332.003C608.035 332.084 608.146 332.13 608.261 332.13H613.299L608.826 336.588C608.745 336.67 608.701 336.781 608.701 336.895C608.701 337.01 608.745 337.12 608.826 337.203C608.909 337.281 609.019 337.324 609.134 337.324C609.248 337.324 609.359 337.281 609.442 337.203L613.907 332.744V337.757C613.907 337.872 613.953 337.982 614.034 338.063C614.116 338.144 614.226 338.19 614.342 338.19C614.457 338.19 614.567 338.144 614.649 338.063C614.73 337.982 614.776 337.872 614.776 337.757V332.744L619.249 337.203C619.333 337.281 619.443 337.324 619.558 337.324C619.672 337.324 619.783 337.281 619.866 337.203C619.946 337.12 619.991 337.01 619.991 336.895C619.991 336.781 619.946 336.67 619.866 336.588L615.393 332.13H620.422C620.537 332.13 620.648 332.084 620.729 332.003C620.811 331.922 620.857 331.811 620.857 331.697C620.85 331.586 620.801 331.483 620.72 331.407C620.64 331.332 620.533 331.29 620.422 331.29Z" fill="#F9A826"/>
<path d="M638.664 331.29H633.634L638.108 326.84C638.188 326.758 638.233 326.647 638.233 326.533C638.233 326.418 638.188 326.308 638.108 326.225C638.068 326.185 638.02 326.152 637.967 326.13C637.914 326.108 637.857 326.097 637.8 326.097C637.742 326.097 637.685 326.108 637.633 326.13C637.58 326.152 637.532 326.185 637.491 326.225L633.018 330.684V325.662C633.018 325.548 632.972 325.438 632.89 325.356C632.809 325.275 632.699 325.23 632.583 325.23C632.469 325.232 632.36 325.278 632.279 325.359C632.198 325.44 632.151 325.548 632.149 325.662V330.684L627.684 326.199C627.644 326.159 627.596 326.126 627.543 326.104C627.49 326.083 627.433 326.071 627.376 326.071C627.318 326.071 627.262 326.083 627.209 326.104C627.156 326.126 627.108 326.159 627.067 326.199C626.987 326.282 626.942 326.392 626.942 326.507C626.942 326.621 626.987 326.732 627.067 326.814L631.541 331.264H626.503C626.388 331.266 626.279 331.312 626.198 331.393C626.117 331.474 626.071 331.583 626.068 331.697C626.068 331.811 626.114 331.922 626.196 332.003C626.277 332.084 626.387 332.13 626.503 332.13H631.541L627.067 336.588C626.987 336.67 626.942 336.781 626.942 336.895C626.942 337.01 626.987 337.12 627.067 337.203C627.151 337.281 627.261 337.324 627.376 337.324C627.49 337.324 627.6 337.281 627.684 337.203L632.149 332.744V337.757C632.149 337.872 632.195 337.982 632.276 338.063C632.358 338.144 632.468 338.19 632.583 338.19C632.699 338.19 632.809 338.144 632.89 338.063C632.972 337.982 633.018 337.872 633.018 337.757V332.744L637.491 337.203C637.575 337.281 637.685 337.324 637.8 337.324C637.914 337.324 638.024 337.281 638.108 337.203C638.188 337.12 638.233 337.01 638.233 336.895C638.233 336.781 638.188 336.67 638.108 336.588L633.634 332.13H638.664C638.779 332.13 638.89 332.084 638.971 332.003C639.052 331.922 639.098 331.811 639.098 331.697C639.092 331.586 639.043 331.483 638.962 331.407C638.881 331.332 638.775 331.29 638.664 331.29Z" fill="#F9A826"/>
<path d="M656.906 331.29H651.876L656.35 326.84C656.43 326.758 656.475 326.647 656.475 326.533C656.475 326.418 656.43 326.308 656.35 326.225C656.309 326.185 656.261 326.152 656.208 326.13C656.155 326.108 656.099 326.097 656.041 326.097C655.984 326.097 655.927 326.108 655.874 326.13C655.821 326.152 655.773 326.185 655.733 326.225L651.259 330.684V325.662C651.259 325.548 651.214 325.438 651.132 325.356C651.051 325.275 650.94 325.23 650.825 325.23C650.71 325.232 650.601 325.278 650.52 325.359C650.439 325.44 650.393 325.548 650.391 325.662V330.684L645.926 326.199C645.885 326.159 645.837 326.126 645.784 326.104C645.731 326.083 645.675 326.071 645.617 326.071C645.56 326.071 645.503 326.083 645.45 326.104C645.397 326.126 645.349 326.159 645.309 326.199C645.229 326.282 645.184 326.392 645.184 326.507C645.184 326.621 645.229 326.732 645.309 326.814L649.783 331.264H644.744C644.63 331.266 644.521 331.312 644.44 331.393C644.359 331.474 644.312 331.583 644.31 331.697C644.31 331.811 644.356 331.922 644.437 332.003C644.519 332.084 644.629 332.13 644.744 332.13H649.783L645.309 336.588C645.229 336.67 645.184 336.781 645.184 336.895C645.184 337.01 645.229 337.12 645.309 337.203C645.393 337.281 645.503 337.324 645.617 337.324C645.732 337.324 645.842 337.281 645.926 337.203L650.391 332.744V337.757C650.391 337.872 650.436 337.982 650.518 338.063C650.599 338.144 650.71 338.19 650.825 338.19C650.94 338.19 651.051 338.144 651.132 338.063C651.214 337.982 651.259 337.872 651.259 337.757V332.744L655.733 337.203C655.817 337.281 655.927 337.324 656.041 337.324C656.156 337.324 656.266 337.281 656.35 337.203C656.43 337.12 656.475 337.01 656.475 336.895C656.475 336.781 656.43 336.67 656.35 336.588L651.876 332.13H656.906C657.021 332.13 657.131 332.084 657.213 332.003C657.294 331.922 657.34 331.811 657.34 331.697C657.333 331.586 657.285 331.483 657.204 331.407C657.123 331.332 657.016 331.29 656.906 331.29Z" fill="#F9A826"/>
<path d="M675.148 331.29H670.118L674.592 326.84C674.672 326.758 674.716 326.647 674.716 326.533C674.716 326.418 674.672 326.308 674.592 326.225C674.551 326.185 674.503 326.152 674.45 326.13C674.397 326.108 674.34 326.097 674.283 326.097C674.226 326.097 674.169 326.108 674.116 326.13C674.063 326.152 674.015 326.185 673.975 326.225L669.501 330.684V325.662C669.501 325.548 669.455 325.438 669.374 325.356C669.293 325.275 669.182 325.23 669.067 325.23C668.952 325.232 668.843 325.278 668.762 325.359C668.681 325.44 668.635 325.548 668.633 325.662V330.684L664.168 326.199C664.127 326.159 664.079 326.126 664.026 326.104C663.973 326.083 663.917 326.071 663.859 326.071C663.802 326.071 663.745 326.083 663.692 326.104C663.639 326.126 663.591 326.159 663.551 326.199C663.471 326.282 663.426 326.392 663.426 326.507C663.426 326.621 663.471 326.732 663.551 326.814L668.025 331.264H662.986C662.872 331.266 662.763 331.312 662.682 331.393C662.601 331.474 662.554 331.583 662.552 331.697C662.552 331.811 662.598 331.922 662.679 332.003C662.761 332.084 662.871 332.13 662.986 332.13H668.025L663.551 336.588C663.471 336.67 663.426 336.781 663.426 336.895C663.426 337.01 663.471 337.12 663.551 337.203C663.635 337.281 663.745 337.324 663.859 337.324C663.974 337.324 664.084 337.281 664.168 337.203L668.633 332.744V337.757C668.633 337.872 668.678 337.982 668.76 338.063C668.841 338.144 668.952 338.19 669.067 338.19C669.182 338.19 669.293 338.144 669.374 338.063C669.455 337.982 669.501 337.872 669.501 337.757V332.744L673.975 337.203C674.058 337.281 674.169 337.324 674.283 337.324C674.398 337.324 674.508 337.281 674.592 337.203C674.672 337.12 674.716 337.01 674.716 336.895C674.716 336.781 674.672 336.67 674.592 336.588L670.118 332.13H675.148C675.263 332.13 675.373 332.084 675.455 332.003C675.536 331.922 675.582 331.811 675.582 331.697C675.575 331.586 675.526 331.483 675.446 331.407C675.365 331.332 675.258 331.29 675.148 331.29Z" fill="#F9A826"/>
<path d="M693.389 331.29H688.36L692.833 326.84C692.913 326.758 692.958 326.647 692.958 326.533C692.958 326.418 692.913 326.308 692.833 326.225C692.793 326.185 692.745 326.152 692.692 326.13C692.639 326.108 692.582 326.097 692.525 326.097C692.467 326.097 692.411 326.108 692.358 326.13C692.305 326.152 692.257 326.185 692.216 326.225L687.743 330.684V325.662C687.743 325.548 687.697 325.438 687.616 325.356C687.534 325.275 687.424 325.23 687.309 325.23C687.194 325.232 687.085 325.278 687.004 325.359C686.923 325.44 686.876 325.548 686.874 325.662V330.684L682.409 326.199C682.369 326.159 682.321 326.126 682.268 326.104C682.215 326.083 682.158 326.071 682.101 326.071C682.044 326.071 681.987 326.083 681.934 326.104C681.881 326.126 681.833 326.159 681.793 326.199C681.712 326.282 681.668 326.392 681.668 326.507C681.668 326.621 681.712 326.732 681.793 326.814L686.266 331.264H681.228C681.114 331.266 681.004 331.312 680.923 331.393C680.842 331.474 680.796 331.583 680.794 331.697C680.794 331.811 680.839 331.922 680.921 332.003C681.002 332.084 681.113 332.13 681.228 332.13H686.266L681.793 336.588C681.712 336.67 681.668 336.781 681.668 336.895C681.668 337.01 681.712 337.12 681.793 337.203C681.876 337.281 681.986 337.324 682.101 337.324C682.215 337.324 682.326 337.281 682.409 337.203L686.874 332.744V337.757C686.874 337.872 686.92 337.982 687.001 338.063C687.083 338.144 687.193 338.19 687.309 338.19C687.424 338.19 687.534 338.144 687.616 338.063C687.697 337.982 687.743 337.872 687.743 337.757V332.744L692.216 337.203C692.3 337.281 692.41 337.324 692.525 337.324C692.639 337.324 692.75 337.281 692.833 337.203C692.913 337.12 692.958 337.01 692.958 336.895C692.958 336.781 692.913 336.67 692.833 336.588L688.36 332.13H693.389C693.504 332.13 693.615 332.084 693.696 332.003C693.778 331.922 693.823 331.811 693.823 331.697C693.817 331.586 693.768 331.483 693.687 331.407C693.607 331.332 693.5 331.29 693.389 331.29Z" fill="#F9A826"/>
<path d="M711.631 331.29H706.601L711.075 326.84C711.155 326.758 711.2 326.647 711.2 326.533C711.2 326.418 711.155 326.308 711.075 326.225C711.035 326.185 710.987 326.152 710.934 326.13C710.881 326.108 710.824 326.097 710.767 326.097C710.709 326.097 710.653 326.108 710.6 326.13C710.547 326.152 710.499 326.185 710.458 326.225L705.985 330.684V325.662C705.985 325.548 705.939 325.438 705.857 325.356C705.776 325.275 705.666 325.23 705.55 325.23C705.436 325.232 705.327 325.278 705.246 325.359C705.165 325.44 705.118 325.548 705.116 325.662V330.684L700.651 326.199C700.611 326.159 700.563 326.126 700.51 326.104C700.457 326.083 700.4 326.071 700.343 326.071C700.285 326.071 700.229 326.083 700.176 326.104C700.123 326.126 700.075 326.159 700.034 326.199C699.954 326.282 699.909 326.392 699.909 326.507C699.909 326.621 699.954 326.732 700.034 326.814L704.508 331.264H699.47C699.355 331.266 699.246 331.312 699.165 331.393C699.084 331.474 699.038 331.583 699.035 331.697C699.035 331.811 699.081 331.922 699.163 332.003C699.244 332.084 699.355 332.13 699.47 332.13H704.508L700.034 336.588C699.954 336.67 699.909 336.781 699.909 336.895C699.909 337.01 699.954 337.12 700.034 337.203C700.118 337.281 700.228 337.324 700.343 337.324C700.457 337.324 700.567 337.281 700.651 337.203L705.116 332.744V337.757C705.116 337.872 705.162 337.982 705.243 338.063C705.325 338.144 705.435 338.19 705.55 338.19C705.666 338.19 705.776 338.144 705.857 338.063C705.939 337.982 705.985 337.872 705.985 337.757V332.744L710.458 337.203C710.542 337.281 710.652 337.324 710.767 337.324C710.881 337.324 710.991 337.281 711.075 337.203C711.155 337.12 711.2 337.01 711.2 336.895C711.2 336.781 711.155 336.67 711.075 336.588L706.601 332.13H711.631C711.746 332.13 711.857 332.084 711.938 332.003C712.02 331.922 712.065 331.811 712.065 331.697C712.059 331.586 712.01 331.483 711.929 331.407C711.848 331.332 711.742 331.29 711.631 331.29Z" fill="#F9A826"/>
<path d="M851.476 436.607C851.451 435.561 851.32 434.519 851.085 433.499C850.303 430.573 848.54 427.032 845.638 426.149C842.643 425.235 839.749 424.017 837.004 422.513C836.483 413.232 838.62 403.735 836.292 394.74C835.423 391.45 833.99 388.299 833.607 384.931C833.13 380.741 834.276 376.274 832.6 372.413C831.279 369.365 828.378 367.218 825.26 366.093C822.141 364.967 818.78 364.664 815.47 364.361C811.3 364.023 797.801 362.431 793.093 366.145C792.769 366.396 792.477 366.687 792.225 367.01C792.121 367.153 792.028 367.304 791.947 367.46L791.903 367.53C791.809 367.71 791.73 367.898 791.669 368.092C791.603 368.305 791.554 368.522 791.521 368.742C791.521 368.811 791.521 368.88 791.521 368.95C791.521 369.019 791.521 369.253 791.521 369.408V369.642C791.521 369.798 791.521 369.954 791.521 370.118C791.521 370.283 791.521 370.24 791.521 370.3C791.582 371.079 791.695 371.858 791.695 372.629C791.704 373.013 791.669 373.396 791.591 373.772C791.301 374.793 790.811 375.746 790.149 376.577L789.992 376.802C789.897 376.94 789.801 377.07 789.714 377.209C789.627 377.347 789.558 377.451 789.488 377.572C789.419 377.694 789.349 377.771 789.289 377.884C789.205 378.027 789.129 378.174 789.063 378.326C789.063 378.412 788.967 378.49 788.933 378.577C788.824 378.811 788.737 379.054 788.672 379.304C788.468 380.056 788.451 380.846 788.62 381.607C788.854 382.578 789.257 383.501 789.81 384.334C790.027 384.689 790.262 385.035 790.505 385.381L791.113 386.204C790.999 387.007 790.938 387.817 790.93 388.628C790.931 391.339 791.549 394.014 792.737 396.453C793.926 398.891 795.655 401.029 797.793 402.705C798.137 406.361 798.099 410.043 797.68 413.691C797.602 414.453 797.506 415.223 797.402 415.985C797.298 416.747 797.219 417.249 797.115 417.881C795.844 418.063 794.549 417.965 793.319 417.596C792.752 417.343 792.172 417.121 791.582 416.929C789.054 416.297 786.474 418.808 783.973 418.046C783.973 418.167 783.903 418.28 783.86 418.392C783.337 418.069 782.737 417.892 782.122 417.881C780.637 417.812 779.429 416.738 778.352 415.726L775.043 412.618C774.827 412.427 774.635 412.212 774.469 411.977C774.292 411.64 774.157 411.282 774.07 410.912C773.514 409.12 772.167 407.691 770.864 406.332C770.618 406.022 770.29 405.786 769.918 405.648C769.774 405.627 769.627 405.627 769.483 405.648C769.395 405.527 769.299 405.412 769.197 405.302C768.972 405.045 768.731 404.802 768.476 404.575C766.895 403.12 766.738 401.874 765.366 400.246C764.169 398.694 763.083 397.059 762.117 395.355C762.004 394.446 761.848 393.511 761.657 392.567C761.219 390.407 760.582 388.291 759.754 386.247L758.017 382.412L757.817 382.611C756.558 380.741 755.211 379.719 754.004 379.962C751.98 380.377 750.981 384.291 751.302 389.407L751.997 394.601C751.997 394.731 752.058 394.861 752.093 394.991C751.968 395.607 751.904 396.233 751.902 396.861C751.902 397.588 752.579 398.125 752.935 398.774C753.506 399.654 753.807 400.679 753.804 401.727C753.761 402.099 753.648 402.454 753.63 402.817C753.678 403.631 753.961 404.413 754.447 405.068L758.79 412.341L759.659 413.864L759.711 413.934C759.985 414.465 760.384 414.923 760.875 415.267C761.045 417.088 761.53 418.866 762.308 420.522C762.456 420.851 762.621 421.162 762.795 421.474C763.963 423.387 765.337 425.167 766.895 426.781L768.962 429.093C771.004 431.361 773.045 433.638 775.26 435.733C776.053 436.574 777.011 437.242 778.074 437.698C778.595 437.906 779.162 437.973 779.717 437.892C780.272 437.811 780.796 437.586 781.236 437.239C781.236 438.313 781.236 439.386 781.236 440.46C781.559 440.48 781.87 440.585 782.138 440.765C782.406 440.944 782.621 441.192 782.761 441.482C782.901 441.773 782.961 442.095 782.934 442.416C782.907 442.737 782.795 443.045 782.609 443.308C780.785 447.974 778.943 452.684 776.181 456.866C778.131 458.016 779.938 459.39 781.566 460.961C782.623 462.128 783.563 463.395 784.372 464.744C784.45 465.385 784.511 466.017 784.546 466.648C785.189 476.968 781.184 487.21 777.597 497.045C776.563 499.832 775.434 502.75 775.521 505.65C774.84 506.068 774.19 506.534 773.575 507.044C774.287 508.897 774.009 510.55 773.931 512.533C773.905 513.721 773.661 514.895 773.21 515.996C772.832 516.759 772.415 517.501 771.959 518.221C769.709 522.177 769.214 526.878 768.762 531.397C768.493 534.124 769.553 537.458 768.311 539.899C766.165 544.089 764.263 548.556 763.967 553.214C763.957 554.262 763.823 555.305 763.568 556.322C763.299 557.188 762.821 557.924 762.578 558.772C762.327 559.909 762.268 561.079 762.404 562.235C762.569 566.385 761.95 570.529 760.58 574.451C759.494 577.541 758.295 580.849 759.146 584.026C757.051 586.22 755.756 589.053 755.472 592.069C755.45 592.84 755.356 593.608 755.194 594.363C754.928 595.134 754.579 595.875 754.152 596.57C752.403 599.744 751.584 603.344 751.789 606.959C749.183 610.483 747.88 614.829 747.107 619.149C746.334 623.469 745.995 627.867 745.005 632.135C743.684 637.78 741.295 643.485 740.826 649.268C738.012 651.06 736.796 654.532 736.257 657.813C735.719 661.094 735.632 664.54 734.251 667.57C733.538 669.146 732.513 670.557 731.836 672.167C731.361 673.449 731.012 674.774 730.793 676.123C730.376 678.236 730.012 680.591 730.524 682.616C729.787 683.394 728.927 684.046 727.979 684.547C728.118 684.01 728.231 683.474 728.326 682.928C726.085 684.954 722.02 684.244 720.231 686.677C719.693 687.461 719.484 688.423 719.646 689.359C719.808 690.294 720.329 691.13 721.099 691.689C721.659 692.03 722.265 692.289 722.897 692.46C727.241 693.845 731.706 695.239 736.17 694.503C736.698 694.446 737.209 694.284 737.673 694.027C738.254 693.601 738.732 693.051 739.072 692.417C739.741 691.36 740.409 690.304 741.07 689.248C742.669 689.724 744.297 690.103 745.943 690.382C746.108 691.767 746.229 693.153 746.29 694.538C747.159 694.711 748.323 694.763 748.731 693.958C748.855 693.653 748.906 693.324 748.879 692.997C748.879 692.382 748.966 691.568 749.018 690.737H749.192C751.842 690.844 754.479 690.312 756.879 689.187C755.95 681.517 759.016 674.02 761.674 666.765C764.48 659.129 766.886 651.355 769.31 643.58C771.047 638.109 772.967 632.81 774.669 627.33C776.812 620.404 778.963 613.478 781.123 606.552C782.061 603.505 783.008 600.492 784.085 597.462C786.353 591.331 789.043 585.363 792.138 579.602C793.007 577.966 793.875 576.347 794.587 574.65C795.456 572.581 796.073 570.416 796.768 568.278C798.282 563.89 800.105 559.614 802.223 555.482C802.284 555.37 802.327 555.266 802.388 555.162C803.092 558.028 803.795 560.936 804.264 563.819C804.899 567.354 804.949 570.969 804.412 574.52C803.995 576.935 803.205 579.325 803.3 581.775C803.43 585.16 805.246 588.233 806.141 591.497C806.717 593.94 807.043 596.434 807.113 598.943C807.357 602.838 809.476 607.21 807.982 610.821C803.335 622.257 805.585 635.174 802.935 647.182C801.571 653.346 797.393 659.138 797.723 665.44C797.955 669.913 798.349 674.375 798.905 678.825C799.039 680.229 799.405 681.601 799.991 682.885C800.337 683.561 800.735 684.209 801.181 684.824C800.798 684.971 800.477 685.361 800.199 686.183C799.487 688.348 800.199 691.031 802.127 692.244C802.913 692.662 803.76 692.954 804.638 693.109C805.819 693.444 807.041 693.613 808.269 693.611C808.651 693.591 809.031 693.545 809.407 693.473C810.749 694.035 812.121 694.526 813.515 694.945C813.515 695.3 813.585 695.655 813.628 696.009C813.631 696.195 813.672 696.378 813.75 696.546C813.828 696.715 813.94 696.865 814.08 696.988C814.297 697.089 814.537 697.13 814.775 697.109H819.492C819.492 696.719 819.492 696.321 819.492 695.932C820.032 695.988 820.577 695.93 821.093 695.763C821.61 695.596 822.085 695.323 822.489 694.962C822.906 694.432 823.203 693.817 823.357 693.161C824.643 688.815 825.92 684.466 827.188 680.114C828.709 675.304 829.342 670.259 829.056 665.224C827.379 649.268 831.062 633.261 829.864 617.262C829.142 607.645 829.638 597.977 831.34 588.484C831.731 586.337 832.209 584.156 832.383 582.017C832.765 577.983 832.296 573.905 832.582 569.897C832.678 568.494 832.869 567.101 833.043 565.707C834.233 557.056 834.857 548.336 834.91 539.605C834.884 536.711 834.704 533.822 834.372 530.947C835.278 530.717 836.1 530.237 836.743 529.562C837.516 528.558 837.317 527.147 837.308 525.865C837.308 522.801 838.602 519.909 839.645 517.017C840.982 513.029 842.079 508.964 842.928 504.845C843.826 501.525 844.316 498.11 844.387 494.673C844.387 494.326 844.37 493.98 844.335 493.634C844.663 493.408 844.936 493.112 845.134 492.768C845.361 492.261 845.502 491.719 845.551 491.166C845.864 488.959 846.186 486.742 846.498 484.526C846.73 482.939 846.959 481.355 847.185 479.773L849.947 460.562C850.181 458.891 850.425 457.229 850.659 455.567L851.38 450.598C851.458 450.009 851.545 449.42 851.606 448.866C853.726 445.334 851.702 440.624 851.476 436.607ZM828.43 508.533C827.405 506.109 826.45 503.624 826.693 501.01H826.597C826.826 500.205 826.786 499.349 826.484 498.568C826.215 497.936 825.746 497.4 825.459 496.768C825.151 495.996 824.992 495.174 824.99 494.344C824.775 489.078 825.192 483.806 826.233 478.639C826.346 478.033 826.467 477.418 826.58 476.812C826.944 476.602 827.278 476.343 827.57 476.042C828.027 475.523 828.405 474.939 828.691 474.31C829.672 472.345 830.567 470.345 831.392 468.311C831.662 467.653 832.053 466.891 832.721 466.726C832.582 471.791 833.104 476.959 831.036 481.531C830.643 482.268 830.351 483.054 830.168 483.868C829.976 485.158 830.515 486.465 830.324 487.747C830.228 488.413 829.942 489.028 829.829 489.686C829.743 490.009 829.745 490.349 829.833 490.671C829.921 490.993 830.094 491.287 830.333 491.521C830.448 491.602 830.573 491.666 830.706 491.712C830.654 492.058 830.611 492.413 830.576 492.751C830.506 493.461 830.472 494.127 830.428 494.543C830.228 496.66 830.15 498.788 830.194 500.915C830.194 503.209 830.281 505.503 830.246 507.84C830.278 508.512 830.165 509.182 829.916 509.806C829.743 510.128 829.521 510.42 829.256 510.671C829.004 509.892 828.726 509.208 828.43 508.533Z" fill="url(#paint0_linear)"/>
<path d="M759.861 408.081C762.511 407.539 763.413 401.036 761.875 393.556C760.337 386.076 756.942 380.45 754.291 380.992C751.641 381.533 750.738 388.036 752.276 395.516C753.814 402.997 757.21 408.622 759.861 408.081Z" fill="#FBBEBE"/>
<path d="M800.338 686.348C799.626 688.495 800.338 691.179 802.266 692.347C803.047 692.762 803.888 693.054 804.759 693.213C805.938 693.545 807.157 693.711 808.382 693.707C809.884 693.637 811.326 693.049 812.829 692.841C813.003 692.797 813.186 692.822 813.342 692.91C813.417 692.99 813.473 693.087 813.506 693.191C813.539 693.296 813.548 693.407 813.533 693.516C813.549 694.367 813.613 695.217 813.724 696.061C813.725 696.247 813.766 696.43 813.844 696.599C813.922 696.768 814.035 696.918 814.176 697.04C814.392 697.141 814.632 697.182 814.87 697.161H819.579C819.685 693.039 819.232 688.921 818.232 684.919C818.167 684.613 818.049 684.32 817.885 684.054C817.485 683.618 816.96 683.315 816.382 683.188C815.231 682.711 813.987 682.495 812.742 682.556C811.222 682.755 809.954 683.733 808.66 684.547C807.365 685.361 805.602 686.079 804.03 685.664C802.457 685.248 801.146 683.941 800.338 686.348Z" fill="#3F3D56"/>
<path d="M731.21 682.547C729.887 683.96 728.263 685.06 726.459 685.768L725.66 686.149C725.549 686.19 725.455 686.266 725.39 686.365C725.375 686.432 725.375 686.502 725.39 686.57C725.405 686.637 725.435 686.7 725.477 686.755C726.142 687.78 727.125 688.56 728.276 688.977C729.427 689.395 730.683 689.426 731.853 689.066C732.371 688.937 732.85 688.688 733.252 688.339C733.914 687.556 734.293 686.575 734.329 685.551C734.592 684.496 734.547 683.387 734.199 682.357C732.991 679.647 732.548 680.876 731.21 682.547Z" fill="#FBBEBE"/>
<path d="M749.261 693.213C749.288 693.54 749.237 693.87 749.113 694.174C748.705 694.97 747.567 694.927 746.681 694.754C746.547 691.817 746.19 688.894 745.613 686.01C743.928 685.932 742.711 687.525 741.808 688.954L739.48 692.633C739.143 693.267 738.668 693.817 738.09 694.243C737.625 694.497 737.114 694.659 736.587 694.719C732.14 695.455 727.649 694.061 723.358 692.676C722.726 692.507 722.12 692.251 721.56 691.914C720.794 691.354 720.276 690.52 720.114 689.587C719.952 688.654 720.159 687.695 720.691 686.91C722.489 684.486 726.528 685.179 728.77 683.17C728.536 684.584 728.151 685.968 727.623 687.3C730.62 686.85 732.635 684.114 735.05 682.287C735.657 681.774 736.387 681.428 737.169 681.283C737.755 681.234 738.344 681.296 738.907 681.465C741.691 682.164 744.296 683.441 746.551 685.214C747.463 685.932 748.888 686.945 749.287 688.053C749.713 689.378 749.261 691.802 749.261 693.213Z" fill="#3F3D56"/>
<path d="M809.016 407.57C818.928 407.57 826.962 399.562 826.962 389.684C826.962 379.806 818.928 371.798 809.016 371.798C799.104 371.798 791.07 379.806 791.07 389.684C791.07 399.562 799.104 407.57 809.016 407.57Z" fill="#FBBEBE"/>
<path d="M844.37 495.287C844.298 498.707 843.811 502.105 842.919 505.408C842.07 509.51 840.973 513.557 839.636 517.528C838.602 520.411 837.308 523.303 837.317 526.359C837.317 527.631 837.525 529.042 836.743 530.047C836.047 530.752 835.17 531.252 834.207 531.493C833.727 531.62 833.283 531.857 832.912 532.187C832.54 532.516 832.252 532.928 832.07 533.388C831.254 532.174 830.644 530.835 830.263 529.423C828.705 524.668 827.258 519.886 825.92 515.078C825.797 514.801 825.745 514.499 825.766 514.197C825.787 513.896 825.882 513.604 826.041 513.347C826.262 513.156 826.519 513.011 826.797 512.922C827.688 512.56 828.503 512.038 829.203 511.381C829.532 511.091 829.803 510.741 830.003 510.351C830.255 509.731 830.371 509.063 830.341 508.395C830.341 506.1 830.341 503.815 830.281 501.521C830.244 499.402 830.325 497.284 830.524 495.175C830.524 494.759 830.602 494.092 830.671 493.383C830.802 492.023 831.062 490.448 831.801 489.92C832.904 489.184 836.205 490.171 837.456 490.344C839.61 490.638 841.799 490.984 843.901 491.391C844.206 492.668 844.364 493.975 844.37 495.287Z" fill="#3F3D56"/>
<path d="M771.907 409.709C771.212 411.094 769.544 411.76 768.259 412.635L763.855 415.648C763.56 415.912 763.215 416.114 762.841 416.242C762.466 416.37 762.069 416.421 761.674 416.392C761.316 416.26 760.988 416.058 760.709 415.798C760.43 415.538 760.206 415.225 760.05 414.877C760.053 414.854 760.053 414.831 760.05 414.808L759.138 413.284L754.795 406.029C754.312 405.38 754.031 404.603 753.987 403.796C753.987 403.423 754.117 403.077 754.152 402.705C754.163 401.659 753.861 400.634 753.283 399.761C752.936 399.112 752.241 398.575 752.258 397.848C752.225 396.892 752.39 395.94 752.745 395.052C753.2 394.23 753.854 393.533 754.647 393.026C755.055 392.731 755.472 392.454 755.906 392.16C756.137 392.003 756.392 391.886 756.662 391.814C757.383 391.667 758.095 392.264 758.825 392.29C761.961 394.385 763.168 398.35 765.635 401.207C767.025 402.835 767.164 404.081 768.736 405.536C768.988 405.761 769.231 406.003 769.466 406.254C769.777 406.592 770.04 406.971 770.248 407.38C770.534 408.124 772.263 408.999 771.907 409.709Z" fill="#3F3D56"/>
<path d="M802.709 407.579C804.004 410.306 805.011 413.301 804.638 416.297C804.561 417.108 804.303 417.892 803.882 418.591C802.631 420.504 800.008 420.851 797.723 420.963C797.242 420.923 796.757 420.979 796.298 421.127C795.839 421.276 795.414 421.515 795.048 421.829C794.743 422.271 794.593 422.802 794.623 423.338C794.653 423.873 794.86 424.384 795.213 424.79C795.947 425.571 796.859 426.165 797.871 426.521C801.485 428.106 805.385 429.413 809.311 429.049C811.135 428.876 812.907 428.348 814.723 428.08C816.702 427.866 818.691 427.756 820.682 427.751C823.045 427.664 825.399 427.43 827.753 427.197L833.99 426.582C834.331 426.587 834.661 426.467 834.919 426.244C835.38 425.708 834.789 424.92 834.216 424.513C830.906 422.071 826.693 420.392 824.808 416.721C823.939 414.99 823.67 412.929 823.027 411.059C822.384 409.189 821.359 407.501 820.96 405.596C820.747 403.926 820.651 402.242 820.673 400.558C820.695 398.86 820.075 397.215 818.936 395.952C817.694 394.801 815.896 394.506 814.21 394.437C810.058 394.255 805.637 395.242 802.692 398.16C801.902 398.947 801.224 399.891 800.407 400.601C799.591 401.311 798.479 401.519 799.018 402.454C799.556 403.389 800.616 403.969 801.189 404.791C801.77 405.679 802.278 406.611 802.709 407.579Z" fill="#FBBEBE"/>
<path d="M838.09 432.763C836.994 439.43 835.213 445.966 832.774 452.268C831.547 455.115 830.503 458.035 829.647 461.012C828.978 463.696 829.108 466.571 828.491 469.263C827.727 472.613 826.962 475.973 826.346 479.349C825.311 484.505 824.897 489.765 825.112 495.019C825.114 495.846 825.273 496.666 825.581 497.434C825.868 498.058 826.328 498.594 826.598 499.235C826.799 499.798 826.881 500.396 826.84 500.992C826.798 501.588 826.632 502.169 826.354 502.698C825.909 503.689 825.304 504.601 824.565 505.399C816.469 507.806 807.809 507.018 799.374 507.529C791.599 507.996 783.738 509.589 776.077 508.265C775.208 504.802 776.659 501.174 777.901 497.798C781.506 487.989 785.493 477.773 784.85 467.497C784.783 466.298 784.646 465.104 784.442 463.921C783.182 456.64 784.555 449.1 786.752 442.044C788.116 437.646 788.055 432.962 787.743 428.383C787.588 426.896 787.568 425.398 787.682 423.907C787.808 422.385 788.375 420.932 789.315 419.725C789.315 419.665 789.393 419.604 789.436 419.543C789.48 419.483 789.819 419.492 790.088 419.543C790.157 419.573 790.231 419.587 790.305 419.587C790.38 419.587 790.454 419.573 790.522 419.543L790.618 419.483C790.655 419.457 790.699 419.443 790.744 419.443C790.789 419.443 790.833 419.457 790.87 419.483C791.07 419.604 791.182 420.02 791.617 420.098C792.259 420.194 792.905 420.255 793.554 420.279C794.334 420.302 795.109 420.413 795.865 420.608H795.969C797.098 420.798 798.258 420.7 799.339 420.323C800.059 420.143 800.753 419.876 801.407 419.526C801.598 419.318 802.796 419.128 803.04 418.981C803.83 418.505 803.656 416.271 803.821 415.353C803.913 414.433 804.132 413.53 804.473 412.669C804.869 412.035 805.414 411.506 806.063 411.13C806.711 410.754 807.441 410.543 808.191 410.514C809.686 410.478 811.181 410.612 812.647 410.912C815.887 411.371 819.205 411.293 822.385 412.037C823.983 412.41 825.729 412.972 827.197 412.245C827.597 412.34 827.657 412.687 827.657 413.111C827.62 413.514 827.538 413.912 827.414 414.297C826.858 416.687 828.743 418.885 830.48 420.617C831.214 421.433 832.081 422.121 833.043 422.651C833.912 423.05 834.78 423.214 835.649 423.647C836.352 424.021 836.95 424.566 837.386 425.231C837.887 425.994 838.224 426.852 838.377 427.751C838.563 429.426 838.466 431.12 838.09 432.763Z" fill="#3F3D56"/>
<path opacity="0.1" d="M838.09 432.763C836.995 439.43 835.213 445.966 832.774 452.268C831.548 455.115 830.503 458.035 829.647 461.012C828.978 463.696 829.108 466.571 828.491 469.263C827.727 472.613 826.963 475.973 826.346 479.349C826.163 479.453 825.972 479.548 825.781 479.635C824.7 480.149 823.555 480.516 822.376 480.725C820.258 480.981 818.114 480.911 816.017 480.518L803.622 478.864C798.67 478.197 793.398 477.392 789.723 474.051C787.682 472.215 786.344 469.791 784.876 467.454C784.809 466.255 784.672 465.061 784.468 463.878C783.208 456.597 784.581 449.057 786.778 442.001C788.142 437.603 788.081 432.919 787.769 428.339C787.614 426.852 787.594 425.354 787.708 423.864C787.834 422.341 788.401 420.888 789.341 419.682C789.595 419.608 789.853 419.55 790.114 419.509C790.289 419.474 790.466 419.45 790.644 419.44H790.896C791.188 419.441 791.48 419.476 791.765 419.543C792.356 419.731 792.936 419.954 793.502 420.21H793.606C794.351 420.455 795.133 420.566 795.917 420.539C797.063 420.539 798.245 420.357 799.391 420.279C800.808 420.059 802.257 420.318 803.509 421.015C804.316 421.662 805.082 422.359 805.802 423.102C806.671 423.782 807.649 424.312 808.695 424.669C816.172 427.513 824.468 427.339 831.818 424.184C832.524 423.784 833.325 423.58 834.138 423.595C834.737 423.712 835.306 423.954 835.805 424.305C836.327 424.608 836.839 424.902 837.369 425.171C837.87 425.934 838.207 426.791 838.359 427.69C838.558 429.384 838.467 431.1 838.09 432.763Z" fill="black"/>
<path d="M845.656 427.032C842.197 425.979 838.873 424.526 835.753 422.703C835.252 422.355 834.684 422.113 834.085 421.994C833.271 421.984 832.469 422.187 831.757 422.582C824.41 425.737 816.117 425.911 808.642 423.067C807.598 422.707 806.621 422.177 805.75 421.5C805.028 420.76 804.262 420.063 803.457 419.414C800.599 417.57 796.646 419.734 793.45 418.548C792.883 418.295 792.303 418.073 791.712 417.881C789.185 417.249 786.613 419.76 784.129 418.998C783.205 421.502 782.521 424.088 782.088 426.72C781.734 429.744 781.546 432.784 781.523 435.828C781.523 437.655 781.436 439.482 781.523 441.308C781.829 441.358 782.122 441.471 782.382 441.639C782.642 441.808 782.864 442.028 783.035 442.287C783.149 442.588 783.195 442.911 783.171 443.232C783.147 443.554 783.053 443.866 782.896 444.148C781.08 448.797 779.239 453.498 776.485 457.662C778.426 458.815 780.227 460.186 781.853 461.748C784.893 464.952 786.388 469.445 789.671 472.406C793.372 475.739 798.644 476.553 803.57 477.21L815.965 478.864C818.065 479.256 820.211 479.329 822.332 479.081C823.509 478.867 824.651 478.497 825.729 477.981C826.433 477.688 827.075 477.265 827.623 476.734C828.081 476.216 828.458 475.632 828.743 475.003C829.725 473.046 830.619 471.046 831.445 469.021C831.731 468.302 832.166 467.462 832.947 467.402C837.551 463.263 841.895 459.021 846.498 454.883C848.349 453.355 850.008 451.611 851.441 449.689C853.726 446.321 851.65 441.551 851.441 437.482C851.416 436.441 851.285 435.405 851.05 434.391C850.303 431.439 848.549 427.906 845.656 427.032Z" fill="#F9A826"/>
<path opacity="0.1" d="M771.907 409.709C771.212 411.094 769.544 411.76 768.259 412.635L763.855 415.648C763.56 415.912 763.215 416.114 762.841 416.242C762.466 416.37 762.069 416.421 761.674 416.392C761.316 416.26 760.987 416.058 760.709 415.798C760.43 415.538 760.206 415.225 760.05 414.877C760.05 414.678 760.05 414.462 760.05 414.254C760.016 413.553 760.111 412.852 760.328 412.185C760.759 411.206 761.428 410.349 762.274 409.691C763.909 408.148 765.854 406.968 767.981 406.228C768.312 406.1 768.673 406.064 769.023 406.124C769.158 406.16 769.287 406.215 769.405 406.289C769.716 406.627 769.979 407.005 770.187 407.414C770.534 408.124 772.263 408.999 771.907 409.709Z" fill="black"/>
<path d="M782.279 418.834C780.802 418.764 779.595 417.699 778.518 416.687L775.225 413.639C775.005 413.453 774.812 413.238 774.652 412.998C774.474 412.662 774.34 412.304 774.252 411.934C773.554 410.185 772.46 408.62 771.056 407.362C770.811 407.052 770.482 406.818 770.109 406.687C769.756 406.622 769.391 406.658 769.058 406.791C766.931 407.529 764.985 408.71 763.351 410.254C762.505 410.912 761.837 411.769 761.405 412.747C761.187 413.414 761.092 414.116 761.127 414.817C761.148 417.104 761.663 419.36 762.639 421.431C762.786 421.751 762.951 422.071 763.125 422.383C764.284 424.292 765.654 426.067 767.208 427.673L769.275 429.976C771.308 432.244 773.34 434.512 775.547 436.599C776.338 437.439 777.296 438.106 778.361 438.555C778.896 438.773 779.48 438.839 780.05 438.748C780.62 438.656 781.154 438.41 781.593 438.036C782.009 437.556 782.322 436.996 782.513 436.391C783.851 432.928 785.119 429.326 785.197 425.595C785.216 424.101 785.152 422.606 785.006 421.119C784.876 419.543 783.755 418.929 782.279 418.834Z" fill="#F9A826"/>
<path d="M834.919 540.037C834.869 548.746 834.248 557.442 833.06 566.07C832.887 567.464 832.695 568.858 832.6 570.252C832.313 574.295 832.782 578.355 832.4 582.372C832.2 584.545 831.749 586.701 831.366 588.822C829.669 598.289 829.173 607.931 829.89 617.521C831.088 633.477 827.414 649.441 829.082 665.354C829.284 668.448 829.112 671.555 828.569 674.608C828.258 676.503 827.808 678.372 827.223 680.201C825.955 684.535 824.681 688.864 823.401 693.187C823.25 693.845 822.953 694.46 822.532 694.988C822.089 695.37 821.569 695.653 821.008 695.819C820.446 695.984 819.855 696.029 819.275 695.949C814.263 695.793 809.546 693.637 804.994 691.534C804.471 691.328 803.986 691.035 803.561 690.668C802.614 689.689 802.692 688.149 802.275 686.859C801.858 685.569 800.729 684.357 800.086 683.032C799.558 681.779 799.238 680.448 799.139 679.093C798.56 674.66 798.166 670.21 797.958 665.743C797.628 659.458 801.797 653.675 803.17 647.563C805.776 635.546 803.569 622.664 808.199 611.262C809.659 607.66 807.539 603.297 807.331 599.419C807.256 596.916 806.93 594.428 806.358 591.991C805.489 588.735 803.656 585.671 803.526 582.294C803.43 579.853 804.221 577.472 804.629 575.065C805.171 571.523 805.121 567.916 804.482 564.391C804.021 561.482 803.318 558.573 802.614 555.733L802.458 556.054C800.341 560.176 798.521 564.444 797.011 568.823C796.316 570.944 795.708 573.109 794.839 575.169C794.127 576.901 793.25 578.485 792.39 580.113C789.305 585.852 786.621 591.797 784.355 597.904C783.278 600.899 782.331 603.964 781.393 606.968L774.956 627.746C773.219 633.209 771.316 638.49 769.614 643.944C767.208 651.735 764.801 659.458 762.004 667.076C759.398 674.305 756.297 681.794 757.227 689.43C754.832 690.552 752.201 691.083 749.557 690.979C745.08 690.585 740.687 689.523 736.527 687.828C734.868 687.214 733.148 686.521 732.027 685.162C730.099 682.816 730.576 679.379 731.158 676.392C731.378 675.045 731.727 673.723 732.201 672.444C732.861 670.851 733.938 669.44 734.616 667.864C735.979 664.843 736.066 661.423 736.605 658.142C737.143 654.861 738.342 651.398 741.157 649.614C741.634 643.848 744.015 638.161 745.326 632.525C746.316 628.256 746.647 623.867 747.428 619.538C748.21 615.21 749.47 610.881 752.093 607.375C751.886 603.759 752.705 600.159 754.456 596.986C754.879 596.289 755.225 595.549 755.489 594.778C755.651 594.026 755.744 593.261 755.767 592.493C756.055 589.484 757.345 586.659 759.433 584.467C758.564 581.307 759.772 578.009 760.858 574.944C762.225 571.033 762.844 566.901 762.682 562.763C762.547 561.608 762.603 560.438 762.847 559.3C763.09 558.434 763.568 557.698 763.846 556.867C764.094 555.849 764.225 554.807 764.237 553.759C764.576 549.076 766.478 544.66 768.58 540.479C769.831 538.037 768.771 534.722 769.032 532.003C769.483 527.484 769.979 522.809 772.228 518.87C772.645 518.125 773.097 517.415 773.471 516.645C773.923 515.545 774.168 514.371 774.192 513.182C774.27 511.199 774.548 509.555 773.835 507.711C778.483 503.858 784.824 502.776 790.87 502.516C796.916 502.256 803.031 502.802 808.946 501.521C810.684 501.131 812.421 500.594 814.254 500.334C818.415 499.728 822.636 500.672 826.745 501.607C826.458 504.204 827.414 506.698 828.482 509.113C832.654 518.897 834.841 529.407 834.919 540.037Z" fill="#33313F"/>
<path opacity="0.1" d="M814.462 542.02L804.482 564.391C804.021 561.482 803.318 558.573 802.614 555.733L802.458 556.054V555.586L807.895 543.665L814.462 542.02Z" fill="black"/>
<path opacity="0.1" d="M844.37 495.287C843.795 495.717 843.107 495.972 842.39 496.023C841.289 496.062 840.191 495.913 839.141 495.582L831.323 493.634C831.078 493.573 830.839 493.489 830.611 493.383C830.741 492.023 831.002 490.448 831.74 489.92C832.843 489.184 836.144 490.171 837.395 490.344C839.549 490.638 841.738 490.984 843.84 491.391C844.166 492.665 844.344 493.973 844.37 495.287Z" fill="black"/>
<path d="M850.981 443.776C851.146 444.494 851.38 445.204 851.519 445.931C851.753 447.715 851.691 449.526 851.337 451.29L850.625 456.242L849.912 461.22L847.159 480.379L846.481 485.123L845.526 491.746C845.48 492.297 845.339 492.836 845.109 493.339C844.824 493.81 844.427 494.203 843.952 494.482C843.477 494.762 842.941 494.919 842.39 494.941C841.29 494.976 840.192 494.826 839.141 494.499L831.323 492.543C830.98 492.482 830.655 492.349 830.368 492.153C830.129 491.921 829.956 491.629 829.868 491.308C829.779 490.987 829.778 490.648 829.864 490.327C829.977 489.669 830.263 489.054 830.359 488.396C830.55 487.115 830.011 485.799 830.203 484.526C830.39 483.716 830.682 482.933 831.071 482.197C833.677 476.457 832.166 469.756 833.052 463.523C833.849 458.617 835.928 454.007 839.08 450.156C841.025 447.725 843.26 445.539 845.734 443.646C846.707 442.892 848.253 441.343 849.478 441.048C851.05 440.719 850.72 442.685 850.981 443.776Z" fill="#F9A826"/>
<path d="M791.816 369.201C791.243 371.019 792.138 373.019 791.73 374.871C791.287 376.914 789.358 378.334 788.811 380.386C787.942 383.511 790.6 386.36 792.546 388.957C799.756 398.601 798.809 411.951 796.342 423.716C794.357 433.156 791.612 442.42 788.133 451.42C787.048 454.216 785.849 457.056 783.712 459.151C787.708 458.008 791.955 456.857 795.96 457.965C801.033 459.368 805.411 464.276 810.553 463.16C813.646 462.476 815.817 459.74 818.597 458.225C823.809 455.428 830.089 457.186 835.901 458.086C837.153 458.381 838.463 458.315 839.679 457.896C840.609 457.398 841.398 456.674 841.973 455.792C844.566 452.476 846.119 448.47 846.437 444.278C846.575 442.19 846.266 440.097 845.53 438.137C844.795 436.178 843.651 434.396 842.172 432.911C840.939 431.75 839.462 430.815 838.515 429.448C837.594 427.85 837.101 426.043 837.082 424.201C836.396 414.678 838.724 404.956 836.326 395.744C835.458 392.463 834.042 389.32 833.66 385.961C833.182 381.78 834.32 377.304 832.652 373.477C831.34 370.439 828.448 368.283 825.329 367.175C822.211 366.067 818.875 365.755 815.565 365.443C810.805 365.045 793.806 363.011 791.816 369.201Z" fill="#33313F"/>
<g opacity="0.1">
<path opacity="0.1" d="M796.342 423.716C794.367 433.117 791.636 442.344 788.177 451.308C788.776 450.121 789.28 448.875 789.758 447.637C793.24 438.638 795.986 429.373 797.966 419.933C800.442 408.159 801.389 394.827 794.179 385.174C792.442 382.871 790.209 380.377 790.288 377.676C789.645 378.493 789.146 379.412 788.811 380.395C787.942 383.52 790.6 386.368 792.546 388.965C799.756 398.601 798.809 411.951 796.342 423.716Z" fill="black"/>
<path opacity="0.1" d="M791.834 373.997C792.531 373.134 793.051 372.143 793.363 371.079C793.497 369.793 793.462 368.495 793.259 367.218C792.589 367.72 792.087 368.411 791.817 369.201C791.304 370.733 791.895 372.395 791.834 373.997Z" fill="black"/>
<path opacity="0.1" d="M843.606 451.983C843.031 452.862 842.242 453.583 841.312 454.078C840.098 454.505 838.785 454.572 837.534 454.268C831.722 453.403 825.373 451.619 820.23 454.416C817.442 455.922 815.279 458.658 812.178 459.35C807.044 460.493 802.666 455.584 797.593 454.156C793.997 453.16 790.209 453.983 786.587 455.022C785.867 456.551 784.896 457.95 783.712 459.16C787.708 458.017 791.955 456.866 795.96 457.974C801.033 459.376 805.411 464.285 810.553 463.168C813.646 462.484 815.817 459.749 818.597 458.233C823.809 455.437 830.089 457.195 835.901 458.095C837.153 458.389 838.463 458.323 839.679 457.904C840.609 457.406 841.398 456.683 841.973 455.801C843.547 453.731 844.762 451.414 845.569 448.944C844.988 450.003 844.332 451.018 843.606 451.983Z" fill="black"/>
</g>
</g>
<defs>
<linearGradient id="paint0_linear" x1="719.649" y1="530.41" x2="852.553" y2="530.41" gradientUnits="userSpaceOnUse">
<stop stop-color="#808080" stop-opacity="0.25"/>
<stop offset="0.54" stop-color="#808080" stop-opacity="0.12"/>
<stop offset="1" stop-color="#808080" stop-opacity="0.1"/>
</linearGradient>
<clipPath id="clip0">
<rect width="1013" height="697" fill="white"/>
</clipPath>
</defs>
</svg>
