<svg width="189" height="60" viewBox="0 0 189 60" fill="none" xmlns="http://www.w3.org/2000/svg">
<rect x="142.5" y="20.5" width="46" height="19" rx="4.5" stroke="#838383"/>
<path d="M151.431 35C151.223 35 151.055 34.952 150.927 34.856C150.807 34.76 150.747 34.644 150.747 34.508V26.72C150.747 26.56 150.819 26.44 150.963 26.36C151.107 26.272 151.263 26.228 151.431 26.228H153.759C154.167 26.228 154.555 26.288 154.923 26.408C155.291 26.52 155.591 26.728 155.823 27.032C156.055 27.336 156.171 27.772 156.171 28.34C156.171 28.828 156.079 29.236 155.895 29.564C155.711 29.884 155.463 30.112 155.151 30.248C155.519 30.392 155.815 30.604 156.039 30.884C156.271 31.164 156.387 31.604 156.387 32.204V32.456C156.387 33.08 156.279 33.58 156.063 33.956C155.847 34.324 155.559 34.592 155.199 34.76C154.839 34.92 154.435 35 153.987 35H151.431ZM152.307 33.632H153.651C154.019 33.632 154.307 33.528 154.515 33.32C154.723 33.112 154.827 32.78 154.827 32.324V32.132C154.827 31.66 154.723 31.332 154.515 31.148C154.307 30.956 154.019 30.86 153.651 30.86H152.307V33.632ZM152.307 29.636H153.651C153.971 29.636 154.211 29.54 154.371 29.348C154.531 29.156 154.611 28.908 154.611 28.604C154.611 28.292 154.523 28.048 154.347 27.872C154.179 27.688 153.943 27.596 153.639 27.596H152.307V29.636ZM159.969 35C159.801 35 159.645 34.96 159.501 34.88C159.357 34.792 159.285 34.664 159.285 34.496V26.72C159.285 26.56 159.357 26.44 159.501 26.36C159.645 26.272 159.801 26.228 159.969 26.228H164.241C164.417 26.228 164.541 26.3 164.613 26.444C164.693 26.588 164.733 26.74 164.733 26.9C164.733 27.092 164.689 27.256 164.601 27.392C164.521 27.528 164.401 27.596 164.241 27.596H160.845V29.996H162.669C162.829 29.996 162.949 30.06 163.029 30.188C163.117 30.316 163.161 30.46 163.161 30.62C163.161 30.756 163.121 30.892 163.041 31.028C162.969 31.156 162.845 31.22 162.669 31.22H160.845V33.632H164.241C164.401 33.632 164.521 33.7 164.601 33.836C164.689 33.972 164.733 34.136 164.733 34.328C164.733 34.488 164.693 34.64 164.613 34.784C164.541 34.928 164.417 35 164.241 35H159.969ZM169.872 35C169.672 35 169.492 34.96 169.332 34.88C169.172 34.792 169.092 34.664 169.092 34.496V27.632H167.328C167.176 27.632 167.056 27.564 166.968 27.428C166.88 27.284 166.836 27.116 166.836 26.924C166.836 26.756 166.876 26.6 166.956 26.456C167.036 26.304 167.16 26.228 167.328 26.228H172.404C172.572 26.228 172.696 26.304 172.776 26.456C172.856 26.6 172.896 26.756 172.896 26.924C172.896 27.116 172.852 27.284 172.764 27.428C172.684 27.564 172.564 27.632 172.404 27.632H170.652V34.496C170.652 34.664 170.568 34.792 170.4 34.88C170.24 34.96 170.064 35 169.872 35ZM175.175 35C175.031 35 174.883 34.972 174.731 34.916C174.579 34.86 174.451 34.784 174.347 34.688C174.243 34.592 174.191 34.48 174.191 34.352C174.191 34.328 174.195 34.288 174.203 34.232L176.519 26.684C176.575 26.508 176.699 26.376 176.891 26.288C177.091 26.2 177.303 26.156 177.527 26.156C177.751 26.156 177.959 26.2 178.151 26.288C178.351 26.376 178.479 26.508 178.535 26.684L180.851 34.232C180.867 34.288 180.875 34.328 180.875 34.352C180.875 34.48 180.819 34.592 180.707 34.688C180.603 34.784 180.475 34.86 180.323 34.916C180.171 34.972 180.023 35 179.879 35C179.751 35 179.639 34.976 179.543 34.928C179.455 34.88 179.395 34.8 179.363 34.688L178.907 33.092H176.147L175.703 34.688C175.671 34.8 175.607 34.88 175.511 34.928C175.415 34.976 175.303 35 175.175 35ZM176.483 31.868H178.571L177.527 28.184L176.483 31.868Z" fill="#838383"/>
<path d="M9.312 48.928C7.072 48.384 5.408 46.512 4.32 43.312C4.288 43.12 4.272 42.736 4.272 42.16C4.272 41.36 4.304 40.576 4.368 39.808C4.432 39.008 4.512 38.544 4.608 38.416C4.704 38.352 4.752 38.16 4.752 37.84C4.72 37.648 4.832 37.12 5.088 36.256C5.312 35.68 5.376 35.184 5.28 34.768C5.312 34.704 5.36 34.592 5.424 34.432C5.52 34.272 5.632 34.112 5.76 33.952C5.92 33.792 6 33.632 6 33.472C6.032 33.28 6.032 33.152 6 33.088V33.04C6 32.912 6.032 32.752 6.096 32.56C6.192 32.336 6.288 32.16 6.384 32.032C6.48 31.936 6.56 31.808 6.624 31.648C6.72 31.488 6.784 31.376 6.816 31.312C6.848 31.088 7.088 30.384 7.536 29.2C8.016 27.984 8.336 27.248 8.496 26.992V26.896C8.624 26.576 8.8 26.24 9.024 25.888C9.088 25.44 9.312 24.816 9.696 24.016C10.432 22.384 11.456 20.512 12.768 18.4C14.112 16.256 15.168 14.816 15.936 14.08C16.768 13.12 17.52 12.64 18.192 12.64C18.544 12.64 18.864 12.784 19.152 13.072C19.376 13.296 19.552 13.616 19.68 14.032C19.84 14.448 19.92 14.816 19.92 15.136C19.92 15.584 19.792 15.824 19.536 15.856C19.216 16.08 18.72 16.736 18.048 17.824C17.408 18.912 16.544 20.448 15.456 22.432L14.736 23.776C14.32 24.672 13.952 25.424 13.632 26.032C13.344 26.64 13.152 27.04 13.056 27.232L12.864 27.664C12.096 29.296 11.376 31.056 10.704 32.944C10.544 33.136 10.432 33.344 10.368 33.568C10.336 33.76 10.32 33.888 10.32 33.952C10.256 33.92 10.192 34.016 10.128 34.24C10.096 34.432 10.048 34.608 9.984 34.768C9.76 34.96 9.648 35.424 9.648 36.16C9.36 36.928 9.104 37.888 8.88 39.04C8.656 40.192 8.544 41.136 8.544 41.872C8.544 42.576 8.656 43.152 8.88 43.6C9.136 44.048 9.52 44.384 10.032 44.608C10.8 44.992 11.376 45.184 11.76 45.184C11.984 45.216 12.32 45.2 12.768 45.136C13.248 45.072 13.792 44.992 14.4 44.896H14.352C14.512 44.864 15.392 44.672 16.992 44.32C17.76 44.224 18.4 44.08 18.912 43.888C19.168 43.824 19.52 43.728 19.968 43.6C20.448 43.44 20.8 43.36 21.024 43.36C21.248 43.328 21.408 43.344 21.504 43.408C21.696 43.6 21.872 43.872 22.032 44.224C22.224 44.544 22.272 44.832 22.176 45.088C22.112 45.248 21.776 45.584 21.168 46.096C20.56 46.64 19.888 47.152 19.152 47.632C18.416 48.112 17.776 48.432 17.232 48.592C16.144 49.072 14.576 49.312 12.528 49.312C11.088 49.312 10.016 49.184 9.312 48.928ZM26.3895 44.992C26.2935 44.8 26.0215 44.544 25.5735 44.224C25.1255 43.904 24.9015 43.712 24.9015 43.648C24.9015 43.52 24.8215 43.344 24.6615 43.12C24.5335 42.864 24.4055 42.64 24.2775 42.448C24.0215 42.192 24.1975 41.36 24.8055 39.952C25.4135 38.544 26.2295 36.88 27.2535 34.96C27.4455 34.768 27.6855 34.432 27.9735 33.952C28.2935 33.472 28.5015 33.2 28.5975 33.136C28.5975 33.008 28.6455 32.896 28.7415 32.8C28.8375 32.672 28.9495 32.608 29.0775 32.608L29.4615 31.84C29.5895 31.552 30.2135 30.864 31.3335 29.776C32.4535 28.688 33.3335 27.952 33.9735 27.568C34.5815 27.152 35.2375 26.944 35.9415 26.944C36.7095 26.944 37.3655 27.168 37.9095 27.616L39.2055 28.72C40.1655 29.52 40.7095 29.984 40.8375 30.112L42.6135 31.696L41.7975 34.096C41.5095 34.96 41.3655 35.776 41.3655 36.544C41.3655 37.76 41.7015 38.896 42.3735 39.952C42.5335 40.304 42.7415 40.576 42.9975 40.768C43.2855 40.96 43.6535 41.088 44.1015 41.152C44.8055 41.28 45.1575 41.632 45.1575 42.208C45.1575 42.912 45.0295 43.44 44.7735 43.792C44.5175 44.144 44.2135 44.368 43.8615 44.464C43.3495 44.528 42.9975 44.56 42.8055 44.56C41.8775 44.56 41.0295 44.32 40.2615 43.84C39.4935 43.36 38.8215 42.544 38.2455 41.392C38.1175 41.2 37.9415 40.848 37.7175 40.336C37.5255 39.824 37.4135 39.472 37.3815 39.28C37.1575 39.6 36.7895 40.016 36.2775 40.528C32.9815 43.856 30.3095 45.52 28.2615 45.52C27.5575 45.52 26.9335 45.344 26.3895 44.992ZM29.0295 41.008C29.5415 41.072 30.5335 40.496 32.0055 39.28C32.1655 39.152 32.3415 39.008 32.5335 38.848C32.7255 38.656 32.9335 38.464 33.1575 38.272C34.0535 37.536 34.7415 36.928 35.2215 36.448C35.7335 35.936 36.2455 35.328 36.7575 34.624L37.8135 32.896C37.4935 32.192 37.2055 31.728 36.9495 31.504C36.6935 31.248 36.4375 31.12 36.1815 31.12C35.5415 31.12 34.7415 31.696 33.7815 32.848C32.8215 33.968 31.6695 35.68 30.3255 37.984C29.9735 38.56 29.6855 39.168 29.4615 39.808C29.2375 40.416 29.0935 40.816 29.0295 41.008ZM58.3234 46.288C58.0994 46.416 57.7954 46.368 57.4114 46.144C57.0594 45.92 56.7074 45.584 56.3554 45.136C56.0994 44.72 55.9234 44.32 55.8274 43.936C55.7314 43.52 55.6834 42.928 55.6834 42.16L55.7314 41.056C55.7314 40.768 55.6834 40.624 55.5874 40.624C55.4914 40.624 55.2674 40.784 54.9154 41.104C54.5954 41.392 54.1794 41.776 53.6674 42.256C52.7074 43.184 51.8914 43.904 51.2194 44.416C50.5794 44.896 50.0514 45.12 49.6354 45.088C49.2834 45.088 48.7874 44.784 48.1474 44.176C47.5074 43.536 47.0754 42.928 46.8514 42.352C46.7554 41.968 46.7074 41.536 46.7074 41.056C46.7074 39.584 47.0274 37.792 47.6674 35.68C48.3074 33.568 49.0594 31.744 49.9234 30.208C50.7874 28.64 51.5074 27.888 52.0834 27.952C52.5954 28.016 53.0434 28.272 53.4274 28.72C53.8434 29.136 54.1794 29.648 54.4354 30.256C54.5314 30.448 54.5794 30.608 54.5794 30.736C54.5794 30.96 54.4514 31.184 54.1954 31.408C53.7154 32.048 53.1074 33.104 52.3714 34.576C51.6354 36.016 51.0434 37.344 50.5954 38.56C50.1474 39.744 50.0354 40.336 50.2594 40.336C50.7074 40.336 51.1074 40.224 51.4594 40C51.8434 39.776 52.3394 39.376 52.9474 38.8C54.0994 37.648 55.2194 36.176 56.3074 34.384C57.6514 32.24 58.3874 30.992 58.5154 30.64L59.0434 29.68C59.3634 29.04 59.6034 28.624 59.7634 28.432C59.9234 28.208 60.1154 28.064 60.3394 28H61.4434C61.6354 28.032 61.8594 28.176 62.1154 28.432C62.4034 28.56 62.6754 28.736 62.9314 28.96C63.1874 29.184 63.3154 29.376 63.3154 29.536L62.5474 31.312L62.1154 32.32C61.2514 34.24 60.5954 35.776 60.1474 36.928C59.6994 38.048 59.3634 39.216 59.1394 40.432C59.1074 40.592 59.0914 40.864 59.0914 41.248C59.0914 42.208 59.1874 42.88 59.3794 43.264C59.6674 43.84 59.9554 44.256 60.2434 44.512C60.4994 44.704 60.4994 44.944 60.2434 45.232C59.9874 45.488 59.6194 45.728 59.1394 45.952C58.6914 46.176 58.4194 46.288 58.3234 46.288ZM80.841 44.848C78.825 44.784 77.817 43.648 77.817 41.44C77.817 40.832 77.865 40.24 77.961 39.664C78.025 38.96 78.057 38.464 78.057 38.176V37.936V37.408C77.961 36.768 77.753 36.448 77.433 36.448C76.857 36.448 75.785 37.008 74.217 38.128C72.681 39.216 71.065 40.528 69.369 42.064C68.857 42.608 68.425 43.12 68.073 43.6C67.753 44.016 67.513 44.272 67.353 44.368C67.193 44.464 66.937 44.512 66.585 44.512C66.137 44.448 65.625 44.112 65.049 43.504C64.473 42.896 64.089 42.352 63.897 41.872C63.897 40.976 64.057 40.128 64.377 39.328C64.697 38.496 65.177 37.456 65.817 36.208C66.105 35.248 66.473 34.288 66.921 33.328C67.401 32.208 67.737 31.36 67.929 30.784C68.153 30.176 68.297 29.552 68.361 28.912C68.361 28.88 68.345 28.864 68.313 28.864C68.313 28.736 68.361 28.624 68.457 28.528C68.553 28.432 68.665 28.384 68.793 28.384C68.857 28.288 69.049 28.24 69.369 28.24C70.201 28.24 70.921 28.464 71.529 28.912C72.137 29.36 72.441 30.048 72.441 30.976C72.441 31.456 72.345 31.92 72.153 32.368C71.993 32.784 71.673 33.488 71.193 34.48L70.665 35.536C70.569 35.728 70.425 36.016 70.233 36.4C70.041 36.752 69.945 36.976 69.945 37.072C70.745 36.528 71.689 35.808 72.777 34.912C74.377 33.632 75.689 32.64 76.713 31.936C77.737 31.232 78.489 30.88 78.969 30.88C79.385 30.88 79.961 31.12 80.697 31.6C81.465 32.048 81.913 32.464 82.041 32.848C82.041 33.072 82.009 33.408 81.945 33.856C81.913 34.304 81.881 34.704 81.849 35.056L81.897 36.544C81.929 36.8 81.945 37.184 81.945 37.696C81.945 38.72 81.881 39.44 81.753 39.856C81.785 39.888 81.817 39.936 81.849 40C81.881 40.064 81.897 40.112 81.897 40.144L81.849 40.24C81.881 40.56 82.057 41.072 82.377 41.776C82.697 42.48 82.857 42.864 82.857 42.928C82.857 43.28 82.617 43.68 82.137 44.128C81.689 44.544 81.257 44.784 80.841 44.848ZM90.5363 55.36C89.6083 55.36 88.6803 55.104 87.7523 54.592C86.8243 54.112 86.0563 53.504 85.4483 52.768C84.8403 52.032 84.5363 51.36 84.5363 50.752C84.5363 50.144 84.6643 49.696 84.9203 49.408C85.1763 49.152 85.4963 49.024 85.8803 49.024C86.1683 49.024 86.4723 49.136 86.7923 49.36C87.1123 49.616 87.4803 49.968 87.8963 50.416C88.3123 50.832 88.6803 51.152 89.0003 51.376C89.3203 51.632 89.6243 51.76 89.9123 51.76C91.0003 51.76 91.8323 51.072 92.4083 49.696C92.9843 48.32 93.5763 46.368 94.1843 43.84L94.8563 40.96L94.9523 40.624C94.9523 40.592 94.9363 40.592 94.9043 40.624C94.8723 40.624 94.8403 40.608 94.8083 40.576C94.2963 40.96 93.2883 41.392 91.7843 41.872C90.2803 42.352 89.0163 42.592 87.9922 42.592C87.3843 42.592 86.8403 42.272 86.3603 41.632C85.9123 40.992 85.6883 40.16 85.6883 39.136V38.848C85.7523 38.72 86.1203 37.76 86.7923 35.968C87.4643 34.176 87.9603 33.312 88.2803 33.376C88.3763 33.376 88.5203 33.2 88.7122 32.848C88.9363 32.464 89.0483 32.208 89.0483 32.08C89.0803 31.984 89.2563 31.808 89.5763 31.552C89.9283 31.264 90.2003 31.04 90.3923 30.88L91.6403 29.92C92.7923 28.864 93.8163 28.08 94.7123 27.568C95.6083 27.024 96.4243 26.72 97.1603 26.656L97.6403 26.704C97.7363 26.704 97.9123 26.72 98.1683 26.752C98.4563 26.752 98.9523 26.88 99.6563 27.136C100.36 27.424 101.08 28.128 101.816 29.248C102.552 30.368 102.952 31.344 103.016 32.176C102.952 32.912 102.792 33.632 102.536 34.336C102.28 35.008 102.024 35.344 101.768 35.344C101.32 35.344 100.984 35.456 100.76 35.68C100.536 35.904 100.328 36.272 100.136 36.784C99.7843 37.52 99.5443 37.968 99.4163 38.128L98.6483 41.824L97.9763 44.896C97.5923 46.4 97.1923 47.68 96.7763 48.736C96.6163 49.888 96.1843 50.96 95.4803 51.952C94.8083 52.976 94.0083 53.792 93.0803 54.4C92.1843 55.008 91.3363 55.328 90.5363 55.36ZM90.3923 38.8C91.0003 38.8 91.9123 38.56 93.1283 38.08C94.3763 37.568 95.1443 37.104 95.4323 36.688C95.5923 36.496 95.8963 36.08 96.3443 35.44C96.8243 34.768 97.3523 34.256 97.9283 33.904C98.1203 33.808 98.2963 33.632 98.4563 33.376C98.6483 33.12 98.7443 32.88 98.7443 32.656V32.56C98.7123 32.432 98.6163 32.208 98.4563 31.888C98.2963 31.568 98.0563 31.264 97.7363 30.976C97.4483 30.688 97.1123 30.544 96.7283 30.544C96.4083 30.608 95.6563 31.184 94.4723 32.272C93.3203 33.36 92.2323 34.512 91.2083 35.728C90.2163 36.944 89.7203 37.792 89.7203 38.272C89.7203 38.624 89.9443 38.8 90.3923 38.8ZM107.157 45.568C106.101 45.152 105.317 44.512 104.805 43.648C104.325 42.752 104.085 41.6 104.085 40.192C104.085 39.872 104.117 39.296 104.181 38.464C104.213 38.208 104.229 37.904 104.229 37.552C104.229 37.008 104.165 36.608 104.037 36.352C103.909 36.064 103.685 35.776 103.365 35.488C103.269 35.392 103.045 35.184 102.693 34.864C102.341 34.544 102.181 34.304 102.213 34.144V34C102.213 33.776 102.261 33.536 102.357 33.28C102.485 32.992 102.597 32.816 102.693 32.752C102.789 32.72 102.981 32.624 103.269 32.464C103.557 32.304 103.781 32.256 103.941 32.32C104.069 32.32 104.261 32.4 104.517 32.56C104.805 32.72 104.949 32.864 104.949 32.992C105.141 33.376 105.637 32.752 106.437 31.12C106.885 30.448 107.493 29.792 108.261 29.152C109.029 28.48 109.733 27.968 110.373 27.616C110.597 27.52 111.093 27.392 111.861 27.232C112.661 27.04 113.285 26.944 113.733 26.944C114.245 26.944 114.837 27.152 115.509 27.568C116.213 27.984 116.789 28.432 117.237 28.912C117.909 29.392 118.245 30.304 118.245 31.648C118.245 32.448 118.117 33.136 117.861 33.712C117.733 34.192 117.093 34.928 115.941 35.92C114.821 36.88 113.909 37.504 113.205 37.792C112.501 37.952 111.717 38.032 110.853 38.032C109.989 38.032 109.397 37.952 109.077 37.792C108.853 37.664 108.661 37.728 108.501 37.984C108.373 38.208 108.261 38.736 108.165 39.568L108.117 40.048C108.117 40.4 108.197 40.736 108.357 41.056C108.581 41.44 108.789 41.712 108.981 41.872C109.173 42.032 109.461 42.112 109.845 42.112L110.277 42.064C110.629 42.032 110.997 41.856 111.381 41.536C111.797 41.216 112.277 40.784 112.821 40.24C113.397 39.696 113.733 39.376 113.829 39.28C113.989 38.96 114.421 38.8 115.125 38.8C115.413 38.8 115.781 38.848 116.229 38.944C116.549 39.2 116.709 39.52 116.709 39.904C116.709 40.448 116.453 41.184 115.941 42.112C115.781 42.432 115.285 42.976 114.453 43.744C113.653 44.512 113.013 45.04 112.533 45.328C111.669 45.808 110.709 46.048 109.653 46.048C108.853 46.048 108.021 45.888 107.157 45.568ZM110.709 34.768C111.477 34.576 112.069 34.352 112.485 34.096C112.933 33.808 113.445 33.264 114.021 32.464C114.277 31.696 114.325 31.232 114.165 31.072C113.973 30.88 113.749 30.784 113.493 30.784C113.173 30.784 112.789 30.96 112.341 31.312C112.021 31.408 111.573 31.712 110.997 32.224C110.453 32.704 109.989 33.184 109.605 33.664C109.221 34.112 109.109 34.384 109.269 34.48C109.205 34.576 109.365 34.656 109.749 34.72C110.133 34.752 110.453 34.768 110.709 34.768ZM121.412 45.28C121.188 45.28 120.884 45.12 120.5 44.8C120.148 44.48 119.94 44.192 119.876 43.936C119.844 43.872 119.828 43.728 119.828 43.504C119.828 43.088 120.02 42.272 120.404 41.056L120.74 39.52C121.06 38.112 121.348 36.928 121.604 35.968C121.7 35.776 121.892 35.232 122.18 34.336C122.372 33.632 122.628 32.944 122.948 32.272C123.332 30.832 123.94 29.408 124.772 28C124.868 27.84 125.028 27.648 125.252 27.424C125.476 27.2 125.636 27.088 125.732 27.088C125.924 26.896 126.196 26.8 126.548 26.8C127.06 26.8 127.524 26.976 127.94 27.328C128.356 27.808 128.564 28.32 128.564 28.864C128.564 29.472 128.34 30.224 127.892 31.12C127.636 31.824 127.22 32.72 126.644 33.808C126.196 34.608 125.924 35.136 125.828 35.392C126.212 34.88 127.044 33.92 128.324 32.512C128.708 32.096 129.076 31.76 129.428 31.504C129.78 31.216 130.308 30.848 131.012 30.4C131.716 29.888 132.276 29.536 132.692 29.344C133.108 29.12 133.588 29.008 134.132 29.008C134.388 29.008 134.58 29.024 134.708 29.056C135.124 29.024 135.556 29.296 136.004 29.872C136.484 30.448 136.724 31.104 136.724 31.84C136.724 32.128 136.676 32.416 136.58 32.704C136.196 32.64 135.924 32.608 135.764 32.608C135.124 32.608 134.548 32.736 134.036 32.992C133.556 33.248 133.156 33.504 132.836 33.76C132.516 33.984 132.308 34.128 132.212 34.192C131.092 34.928 129.764 35.92 128.228 37.168C127.46 37.808 126.884 38.368 126.5 38.848C126.116 39.328 125.812 39.84 125.588 40.384C125.524 40.576 125.22 41.328 124.676 42.64C124.132 43.92 123.716 44.672 123.428 44.896C123.268 45.248 122.852 45.424 122.18 45.424C121.828 45.424 121.572 45.376 121.412 45.28Z" fill="black"/>
</svg>
