<svg width="266" height="86" viewBox="0 0 266 86" fill="none" xmlns="http://www.w3.org/2000/svg">
<path d="M10.6553 72.856C6.17525 71.768 2.84725 68.024 0.67125 61.624C0.60725 61.24 0.57525 60.472 0.57525 59.32C0.57525 57.72 0.63925 56.152 0.767251 54.616C0.89525 53.016 1.05525 52.088 1.24725 51.832C1.43925 51.704 1.53525 51.32 1.53525 50.68C1.47125 50.296 1.69525 49.24 2.20725 47.512C2.65525 46.36 2.78325 45.368 2.59125 44.536C2.65525 44.408 2.75125 44.184 2.87925 43.864C3.07125 43.544 3.29525 43.224 3.55125 42.904C3.87125 42.584 4.03125 42.264 4.03125 41.944C4.09525 41.56 4.09525 41.304 4.03125 41.176V41.08C4.03125 40.824 4.09525 40.504 4.22325 40.12C4.41525 39.672 4.60725 39.32 4.79925 39.064C4.99125 38.872 5.15125 38.616 5.27925 38.296C5.47125 37.976 5.59925 37.752 5.66325 37.624C5.72725 37.176 6.20725 35.768 7.10325 33.4C8.06325 30.968 8.70325 29.496 9.02325 28.984V28.792C9.27925 28.152 9.63125 27.48 10.0793 26.776C10.2073 25.88 10.6553 24.632 11.4233 23.032C12.8953 19.768 14.9433 16.024 17.5673 11.8C20.2553 7.512 22.3673 4.632 23.9033 3.16C25.5673 1.24 27.0713 0.279995 28.4153 0.279995C29.1193 0.279995 29.7593 0.567995 30.3353 1.144C30.7833 1.592 31.1353 2.232 31.3913 3.064C31.7113 3.896 31.8713 4.632 31.8713 5.272C31.8713 6.168 31.6153 6.648 31.1033 6.712C30.4633 7.16 29.4713 8.472 28.1273 10.648C26.8473 12.824 25.1193 15.896 22.9433 19.864L21.5033 22.552C20.6713 24.344 19.9353 25.848 19.2953 27.064C18.7193 28.28 18.3353 29.08 18.1433 29.464L17.7593 30.328C16.2233 33.592 14.7833 37.112 13.4393 40.888C13.1193 41.272 12.8953 41.688 12.7673 42.136C12.7033 42.52 12.6713 42.776 12.6713 42.904C12.5433 42.84 12.4153 43.032 12.2873 43.48C12.2233 43.864 12.1273 44.216 11.9993 44.536C11.5513 44.92 11.3273 45.848 11.3273 47.32C10.7513 48.856 10.2393 50.776 9.79125 53.08C9.34325 55.384 9.11925 57.272 9.11925 58.744C9.11925 60.152 9.34325 61.304 9.79125 62.2C10.3033 63.096 11.0713 63.768 12.0953 64.216C13.6313 64.984 14.7833 65.368 15.5513 65.368C15.9993 65.432 16.6713 65.4 17.5673 65.272C18.5273 65.144 19.6153 64.984 20.8313 64.792H20.7353C21.0553 64.728 22.8153 64.344 26.0153 63.64C27.5513 63.448 28.8313 63.16 29.8553 62.776C30.3673 62.648 31.0713 62.456 31.9673 62.2C32.9273 61.88 33.6313 61.72 34.0793 61.72C34.5273 61.656 34.8473 61.688 35.0393 61.816C35.4233 62.2 35.7753 62.744 36.0953 63.448C36.4793 64.088 36.5753 64.664 36.3833 65.176C36.2553 65.496 35.5833 66.168 34.3673 67.192C33.1513 68.28 31.8073 69.304 30.3353 70.264C28.8633 71.224 27.5833 71.864 26.4953 72.184C24.3193 73.144 21.1833 73.624 17.0873 73.624C14.2073 73.624 12.0633 73.368 10.6553 72.856ZM44.8103 64.984C44.6183 64.6 44.0743 64.088 43.1783 63.448C42.2823 62.808 41.8343 62.424 41.8343 62.296C41.8343 62.04 41.6743 61.688 41.3543 61.24C41.0983 60.728 40.8423 60.28 40.5863 59.896C40.0743 59.384 40.4263 57.72 41.6423 54.904C42.8583 52.088 44.4903 48.76 46.5383 44.92C46.9223 44.536 47.4023 43.864 47.9783 42.904C48.6183 41.944 49.0343 41.4 49.2263 41.272C49.2263 41.016 49.3223 40.792 49.5143 40.6C49.7063 40.344 49.9303 40.216 50.1863 40.216L50.9543 38.68C51.2103 38.104 52.4583 36.728 54.6983 34.552C56.9383 32.376 58.6983 30.904 59.9783 30.136C61.1943 29.304 62.5063 28.888 63.9143 28.888C65.4503 28.888 66.7623 29.336 67.8503 30.232L70.4423 32.44C72.3623 34.04 73.4503 34.968 73.7063 35.224L77.2583 38.392L75.6263 43.192C75.0503 44.92 74.7623 46.552 74.7623 48.088C74.7623 50.52 75.4343 52.792 76.7783 54.904C77.0983 55.608 77.5143 56.152 78.0263 56.536C78.6023 56.92 79.3383 57.176 80.2343 57.304C81.6423 57.56 82.3463 58.264 82.3463 59.416C82.3463 60.824 82.0903 61.88 81.5783 62.584C81.0663 63.288 80.4583 63.736 79.7543 63.928C78.7303 64.056 78.0263 64.12 77.6423 64.12C75.7863 64.12 74.0903 63.64 72.5543 62.68C71.0183 61.72 69.6743 60.088 68.5223 57.784C68.2663 57.4 67.9143 56.696 67.4663 55.672C67.0823 54.648 66.8583 53.944 66.7943 53.56C66.3463 54.2 65.6103 55.032 64.5863 56.056C57.9943 62.712 52.6503 66.04 48.5543 66.04C47.1463 66.04 45.8983 65.688 44.8103 64.984ZM50.0903 57.016C51.1143 57.144 53.0983 55.992 56.0423 53.56C56.3623 53.304 56.7143 53.016 57.0983 52.696C57.4823 52.312 57.8983 51.928 58.3463 51.544C60.1383 50.072 61.5143 48.856 62.4743 47.896C63.4983 46.872 64.5223 45.656 65.5463 44.248L67.6583 40.792C67.0183 39.384 66.4423 38.456 65.9303 38.008C65.4183 37.496 64.9063 37.24 64.3943 37.24C63.1143 37.24 61.5143 38.392 59.5943 40.696C57.6743 42.936 55.3703 46.36 52.6823 50.968C51.9783 52.12 51.4023 53.336 50.9543 54.616C50.5063 55.832 50.2183 56.632 50.0903 57.016ZM108.678 67.576C108.23 67.832 107.622 67.736 106.854 67.288C106.15 66.84 105.446 66.168 104.742 65.272C104.23 64.44 103.878 63.64 103.686 62.872C103.494 62.04 103.398 60.856 103.398 59.32L103.494 57.112C103.494 56.536 103.398 56.248 103.206 56.248C103.014 56.248 102.566 56.568 101.862 57.208C101.222 57.784 100.39 58.552 99.366 59.512C97.446 61.368 95.814 62.808 94.47 63.832C93.19 64.792 92.134 65.24 91.302 65.176C90.598 65.176 89.606 64.568 88.326 63.352C87.046 62.072 86.182 60.856 85.734 59.704C85.542 58.936 85.446 58.072 85.446 57.112C85.446 54.168 86.086 50.584 87.366 46.36C88.646 42.136 90.15 38.488 91.878 35.416C93.606 32.28 95.046 30.776 96.198 30.904C97.222 31.032 98.118 31.544 98.886 32.44C99.718 33.272 100.39 34.296 100.902 35.512C101.094 35.896 101.19 36.216 101.19 36.472C101.19 36.92 100.934 37.368 100.422 37.816C99.462 39.096 98.246 41.208 96.774 44.152C95.302 47.032 94.118 49.688 93.222 52.12C92.326 54.488 92.102 55.672 92.55 55.672C93.446 55.672 94.246 55.448 94.95 55C95.718 54.552 96.71 53.752 97.926 52.6C100.23 50.296 102.47 47.352 104.646 43.768C107.334 39.48 108.806 36.984 109.062 36.28L110.118 34.36C110.758 33.08 111.238 32.248 111.558 31.864C111.878 31.416 112.262 31.128 112.71 31H114.918C115.302 31.064 115.75 31.352 116.262 31.864C116.838 32.12 117.382 32.472 117.894 32.92C118.406 33.368 118.662 33.752 118.662 34.072L117.126 37.624L116.262 39.64C114.534 43.48 113.222 46.552 112.326 48.856C111.43 51.096 110.758 53.432 110.31 55.864C110.246 56.184 110.214 56.728 110.214 57.496C110.214 59.416 110.406 60.76 110.79 61.528C111.366 62.68 111.942 63.512 112.518 64.024C113.03 64.408 113.03 64.888 112.518 65.464C112.006 65.976 111.27 66.456 110.31 66.904C109.414 67.352 108.87 67.576 108.678 67.576ZM153.713 64.696C149.681 64.568 147.665 62.296 147.665 57.88C147.665 56.664 147.761 55.48 147.953 54.328C148.081 52.92 148.145 51.928 148.145 51.352V50.872V49.816C147.953 48.536 147.537 47.896 146.897 47.896C145.745 47.896 143.601 49.016 140.465 51.256C137.393 53.432 134.161 56.056 130.769 59.128C129.745 60.216 128.881 61.24 128.177 62.2C127.537 63.032 127.057 63.544 126.737 63.736C126.417 63.928 125.905 64.024 125.201 64.024C124.305 63.896 123.281 63.224 122.129 62.008C120.977 60.792 120.209 59.704 119.825 58.744C119.825 56.952 120.145 55.256 120.785 53.656C121.425 51.992 122.385 49.912 123.665 47.416C124.241 45.496 124.977 43.576 125.873 41.656C126.833 39.416 127.505 37.72 127.889 36.568C128.337 35.352 128.625 34.104 128.753 32.824C128.753 32.76 128.721 32.728 128.657 32.728C128.657 32.472 128.753 32.248 128.945 32.056C129.137 31.864 129.361 31.768 129.617 31.768C129.745 31.576 130.129 31.48 130.769 31.48C132.433 31.48 133.873 31.928 135.089 32.824C136.305 33.72 136.913 35.096 136.913 36.952C136.913 37.912 136.721 38.84 136.337 39.736C136.017 40.568 135.377 41.976 134.417 43.96L133.361 46.072C133.169 46.456 132.881 47.032 132.497 47.8C132.113 48.504 131.921 48.952 131.921 49.144C133.521 48.056 135.409 46.616 137.585 44.824C140.785 42.264 143.409 40.28 145.457 38.872C147.505 37.464 149.009 36.76 149.969 36.76C150.801 36.76 151.953 37.24 153.425 38.2C154.961 39.096 155.857 39.928 156.113 40.696C156.113 41.144 156.049 41.816 155.921 42.712C155.857 43.608 155.793 44.408 155.729 45.112L155.825 48.088C155.889 48.6 155.921 49.368 155.921 50.392C155.921 52.44 155.793 53.88 155.537 54.712C155.601 54.776 155.665 54.872 155.729 55C155.793 55.128 155.825 55.224 155.825 55.288L155.729 55.48C155.793 56.12 156.145 57.144 156.785 58.552C157.425 59.96 157.745 60.728 157.745 60.856C157.745 61.56 157.265 62.36 156.305 63.256C155.409 64.088 154.545 64.568 153.713 64.696ZM173.104 85.72C171.248 85.72 169.392 85.208 167.536 84.184C165.68 83.224 164.144 82.008 162.928 80.536C161.712 79.064 161.104 77.72 161.104 76.504C161.104 75.288 161.36 74.392 161.872 73.816C162.384 73.304 163.024 73.048 163.792 73.048C164.368 73.048 164.976 73.272 165.616 73.72C166.256 74.232 166.992 74.936 167.824 75.832C168.656 76.664 169.392 77.304 170.032 77.752C170.672 78.264 171.28 78.52 171.856 78.52C174.032 78.52 175.696 77.144 176.848 74.392C178 71.64 179.184 67.736 180.4 62.68L181.744 56.92L181.936 56.248C181.936 56.184 181.904 56.184 181.84 56.248C181.776 56.248 181.712 56.216 181.648 56.152C180.624 56.92 178.608 57.784 175.6 58.744C172.592 59.704 170.064 60.184 168.016 60.184C166.8 60.184 165.712 59.544 164.752 58.264C163.856 56.984 163.408 55.32 163.408 53.272V52.696C163.536 52.44 164.272 50.52 165.616 46.936C166.96 43.352 167.952 41.624 168.592 41.752C168.784 41.752 169.072 41.4 169.456 40.696C169.904 39.928 170.128 39.416 170.128 39.16C170.192 38.968 170.544 38.616 171.184 38.104C171.888 37.528 172.432 37.08 172.816 36.76L175.312 34.84C177.616 32.728 179.664 31.16 181.456 30.136C183.248 29.048 184.88 28.44 186.352 28.312L187.312 28.408C187.504 28.408 187.856 28.44 188.368 28.504C188.944 28.504 189.936 28.76 191.344 29.272C192.752 29.848 194.192 31.256 195.664 33.496C197.136 35.736 197.936 37.688 198.064 39.352C197.936 40.824 197.616 42.264 197.104 43.672C196.592 45.016 196.08 45.688 195.568 45.688C194.672 45.688 194 45.912 193.552 46.36C193.104 46.808 192.688 47.544 192.304 48.568C191.6 50.04 191.12 50.936 190.864 51.256L189.328 58.648L187.984 64.792C187.216 67.8 186.416 70.36 185.584 72.472C185.264 74.776 184.4 76.92 182.992 78.904C181.648 80.952 180.048 82.584 178.192 83.8C176.4 85.016 174.704 85.656 173.104 85.72ZM172.816 52.6C174.032 52.6 175.856 52.12 178.288 51.16C180.784 50.136 182.32 49.208 182.896 48.376C183.216 47.992 183.824 47.16 184.72 45.88C185.68 44.536 186.736 43.512 187.888 42.808C188.272 42.616 188.624 42.264 188.944 41.752C189.328 41.24 189.52 40.76 189.52 40.312V40.12C189.456 39.864 189.264 39.416 188.944 38.776C188.624 38.136 188.144 37.528 187.504 36.952C186.928 36.376 186.256 36.088 185.488 36.088C184.848 36.216 183.344 37.368 180.976 39.544C178.672 41.72 176.496 44.024 174.448 46.456C172.464 48.888 171.472 50.584 171.472 51.544C171.472 52.248 171.92 52.6 172.816 52.6ZM206.345 66.136C204.233 65.304 202.665 64.024 201.641 62.296C200.681 60.504 200.201 58.2 200.201 55.384C200.201 54.744 200.265 53.592 200.393 51.928C200.457 51.416 200.489 50.808 200.489 50.104C200.489 49.016 200.361 48.216 200.105 47.704C199.849 47.128 199.401 46.552 198.761 45.976C198.569 45.784 198.121 45.368 197.417 44.728C196.713 44.088 196.393 43.608 196.457 43.288V43C196.457 42.552 196.553 42.072 196.745 41.56C197.001 40.984 197.225 40.632 197.417 40.504C197.609 40.44 197.993 40.248 198.569 39.928C199.145 39.608 199.593 39.512 199.913 39.64C200.169 39.64 200.553 39.8 201.065 40.12C201.641 40.44 201.929 40.728 201.929 40.984C202.313 41.752 203.305 40.504 204.905 37.24C205.801 35.896 207.017 34.584 208.553 33.304C210.089 31.96 211.497 30.936 212.777 30.232C213.225 30.04 214.217 29.784 215.753 29.464C217.353 29.08 218.601 28.888 219.497 28.888C220.521 28.888 221.705 29.304 223.049 30.136C224.457 30.968 225.609 31.864 226.505 32.824C227.849 33.784 228.521 35.608 228.521 38.296C228.521 39.896 228.265 41.272 227.753 42.424C227.497 43.384 226.217 44.856 223.913 46.84C221.673 48.76 219.849 50.008 218.441 50.584C217.033 50.904 215.465 51.064 213.737 51.064C212.009 51.064 210.825 50.904 210.185 50.584C209.737 50.328 209.353 50.456 209.033 50.968C208.777 51.416 208.553 52.472 208.361 54.136L208.265 55.096C208.265 55.8 208.425 56.472 208.745 57.112C209.193 57.88 209.609 58.424 209.993 58.744C210.377 59.064 210.953 59.224 211.721 59.224L212.585 59.128C213.289 59.064 214.025 58.712 214.793 58.072C215.625 57.432 216.585 56.568 217.673 55.48C218.825 54.392 219.497 53.752 219.689 53.56C220.009 52.92 220.873 52.6 222.281 52.6C222.857 52.6 223.593 52.696 224.489 52.888C225.129 53.4 225.449 54.04 225.449 54.808C225.449 55.896 224.937 57.368 223.913 59.224C223.593 59.864 222.601 60.952 220.937 62.488C219.337 64.024 218.057 65.08 217.097 65.656C215.369 66.616 213.449 67.096 211.337 67.096C209.737 67.096 208.073 66.776 206.345 66.136ZM213.449 44.536C214.985 44.152 216.169 43.704 217.001 43.192C217.897 42.616 218.921 41.528 220.073 39.928C220.585 38.392 220.681 37.464 220.361 37.144C219.977 36.76 219.529 36.568 219.017 36.568C218.377 36.568 217.609 36.92 216.713 37.624C216.073 37.816 215.177 38.424 214.025 39.448C212.937 40.408 212.009 41.368 211.241 42.328C210.473 43.224 210.249 43.768 210.569 43.96C210.441 44.152 210.761 44.312 211.529 44.44C212.297 44.504 212.937 44.536 213.449 44.536ZM234.855 65.56C234.407 65.56 233.799 65.24 233.031 64.6C232.327 63.96 231.911 63.384 231.783 62.872C231.719 62.744 231.687 62.456 231.687 62.008C231.687 61.176 232.071 59.544 232.839 57.112L233.511 54.04C234.151 51.224 234.727 48.856 235.239 46.936C235.431 46.552 235.815 45.464 236.391 43.672C236.775 42.264 237.287 40.888 237.927 39.544C238.695 36.664 239.911 33.816 241.575 31C241.767 30.68 242.087 30.296 242.535 29.848C242.983 29.4 243.303 29.176 243.495 29.176C243.879 28.792 244.423 28.6 245.127 28.6C246.151 28.6 247.079 28.952 247.911 29.656C248.743 30.616 249.159 31.64 249.159 32.728C249.159 33.944 248.711 35.448 247.815 37.24C247.303 38.648 246.471 40.44 245.319 42.616C244.423 44.216 243.879 45.272 243.687 45.784C244.455 44.76 246.119 42.84 248.679 40.024C249.447 39.192 250.183 38.52 250.887 38.008C251.591 37.432 252.647 36.696 254.055 35.8C255.463 34.776 256.583 34.072 257.415 33.688C258.247 33.24 259.207 33.016 260.295 33.016C260.807 33.016 261.191 33.048 261.447 33.112C262.279 33.048 263.143 33.592 264.039 34.744C264.999 35.896 265.479 37.208 265.479 38.68C265.479 39.256 265.383 39.832 265.191 40.408C264.423 40.28 263.879 40.216 263.559 40.216C262.279 40.216 261.127 40.472 260.103 40.984C259.143 41.496 258.343 42.008 257.703 42.52C257.063 42.968 256.647 43.256 256.455 43.384C254.215 44.856 251.559 46.84 248.487 49.336C246.951 50.616 245.799 51.736 245.031 52.696C244.263 53.656 243.655 54.68 243.207 55.768C243.079 56.152 242.471 57.656 241.383 60.28C240.295 62.84 239.463 64.344 238.887 64.792C238.567 65.496 237.735 65.848 236.391 65.848C235.687 65.848 235.175 65.752 234.855 65.56Z" fill="white"/>
</svg>
