<svg width="509" height="340" viewBox="0 0 509 340" fill="none" xmlns="http://www.w3.org/2000/svg">
<rect y="103.297" width="509" height="236.703" rx="30" fill="url(#paint0_linear)"/>
<path d="M228.768 295C228.256 295 227.792 294.888 227.376 294.664C226.96 294.408 226.752 294.04 226.752 293.56V265.912L224.976 268.552C224.816 268.744 224.64 268.888 224.448 268.984C224.288 269.048 224.128 269.08 223.968 269.08C223.552 269.08 223.2 268.904 222.912 268.552C222.656 268.2 222.528 267.816 222.528 267.4C222.528 267.112 222.608 266.808 222.768 266.488C222.928 266.136 223.12 265.88 223.344 265.72L227.808 260.488C227.936 260.328 228.096 260.184 228.288 260.056C228.48 259.928 228.72 259.864 229.008 259.864C229.456 259.864 229.856 259.992 230.208 260.248C230.592 260.504 230.784 260.856 230.784 261.304V293.56C230.784 294.04 230.576 294.408 230.16 294.664C229.744 294.888 229.28 295 228.768 295ZM246.913 295.288C244.961 295.288 243.201 294.952 241.633 294.28C240.097 293.576 238.865 292.456 237.937 290.92C237.041 289.384 236.593 287.352 236.593 284.824V270.376C236.593 267.848 237.041 265.816 237.937 264.28C238.865 262.744 240.097 261.64 241.633 260.968C243.201 260.264 244.961 259.912 246.913 259.912C248.833 259.912 250.577 260.264 252.145 260.968C253.713 261.64 254.961 262.744 255.889 264.28C256.817 265.816 257.281 267.848 257.281 270.376V284.824C257.281 287.352 256.817 289.384 255.889 290.92C254.961 292.456 253.713 293.576 252.145 294.28C250.577 294.952 248.833 295.288 246.913 295.288ZM246.913 291.64C248.865 291.64 250.401 291.096 251.521 290.008C252.673 288.888 253.249 287.16 253.249 284.824V270.376C253.249 268.04 252.673 266.328 251.521 265.24C250.401 264.12 248.865 263.56 246.913 263.56C244.929 263.56 243.377 264.12 242.257 265.24C241.169 266.328 240.625 268.04 240.625 270.376V284.824C240.625 287.16 241.169 288.888 242.257 290.008C243.377 291.096 244.929 291.64 246.913 291.64ZM246.961 279.544C246.385 279.544 245.921 279.368 245.569 279.016C245.217 278.632 245.041 278.168 245.041 277.624C245.041 277.08 245.217 276.632 245.569 276.28C245.921 275.928 246.385 275.752 246.961 275.752C247.505 275.752 247.937 275.928 248.257 276.28C248.609 276.632 248.785 277.08 248.785 277.624C248.785 278.168 248.609 278.632 248.257 279.016C247.937 279.368 247.505 279.544 246.961 279.544ZM272.835 295.288C270.883 295.288 269.123 294.952 267.555 294.28C266.019 293.576 264.787 292.456 263.859 290.92C262.963 289.384 262.515 287.352 262.515 284.824V270.376C262.515 267.848 262.963 265.816 263.859 264.28C264.787 262.744 266.019 261.64 267.555 260.968C269.123 260.264 270.883 259.912 272.835 259.912C274.755 259.912 276.499 260.264 278.067 260.968C279.635 261.64 280.883 262.744 281.811 264.28C282.739 265.816 283.203 267.848 283.203 270.376V284.824C283.203 287.352 282.739 289.384 281.811 290.92C280.883 292.456 279.635 293.576 278.067 294.28C276.499 294.952 274.755 295.288 272.835 295.288ZM272.835 291.64C274.787 291.64 276.323 291.096 277.443 290.008C278.595 288.888 279.171 287.16 279.171 284.824V270.376C279.171 268.04 278.595 266.328 277.443 265.24C276.323 264.12 274.787 263.56 272.835 263.56C270.851 263.56 269.299 264.12 268.179 265.24C267.091 266.328 266.547 268.04 266.547 270.376V284.824C266.547 287.16 267.091 288.888 268.179 290.008C269.299 291.096 270.851 291.64 272.835 291.64ZM272.883 279.544C272.307 279.544 271.843 279.368 271.491 279.016C271.139 278.632 270.963 278.168 270.963 277.624C270.963 277.08 271.139 276.632 271.491 276.28C271.843 275.928 272.307 275.752 272.883 275.752C273.427 275.752 273.859 275.928 274.179 276.28C274.531 276.632 274.707 277.08 274.707 277.624C274.707 278.168 274.531 278.632 274.179 279.016C273.859 279.368 273.427 279.544 272.883 279.544Z" fill="black"/>
<path d="M46.9086 295C46.3966 295 45.9326 294.888 45.5166 294.664C45.1006 294.408 44.8926 294.04 44.8926 293.56V265.912L43.1166 268.552C42.9566 268.744 42.7806 268.888 42.5886 268.984C42.4286 269.048 42.2686 269.08 42.1086 269.08C41.6926 269.08 41.3406 268.904 41.0526 268.552C40.7966 268.2 40.6686 267.816 40.6686 267.4C40.6686 267.112 40.7486 266.808 40.9086 266.488C41.0686 266.136 41.2606 265.88 41.4846 265.72L45.9486 260.488C46.0766 260.328 46.2366 260.184 46.4286 260.056C46.6206 259.928 46.8606 259.864 47.1486 259.864C47.5966 259.864 47.9966 259.992 48.3486 260.248C48.7326 260.504 48.9246 260.856 48.9246 261.304V293.56C48.9246 294.04 48.7166 294.408 48.3006 294.664C47.8846 294.888 47.4206 295 46.9086 295ZM65.0538 295.288C63.1018 295.288 61.3418 294.952 59.7738 294.28C58.2378 293.576 57.0058 292.456 56.0778 290.92C55.1818 289.384 54.7338 287.352 54.7338 284.824V270.376C54.7338 267.848 55.1818 265.816 56.0778 264.28C57.0058 262.744 58.2378 261.64 59.7738 260.968C61.3418 260.264 63.1018 259.912 65.0538 259.912C66.9738 259.912 68.7178 260.264 70.2858 260.968C71.8538 261.64 73.1018 262.744 74.0298 264.28C74.9578 265.816 75.4218 267.848 75.4218 270.376V284.824C75.4218 287.352 74.9578 289.384 74.0298 290.92C73.1018 292.456 71.8538 293.576 70.2858 294.28C68.7178 294.952 66.9738 295.288 65.0538 295.288ZM65.0538 291.64C67.0058 291.64 68.5418 291.096 69.6618 290.008C70.8138 288.888 71.3898 287.16 71.3898 284.824V270.376C71.3898 268.04 70.8138 266.328 69.6618 265.24C68.5418 264.12 67.0058 263.56 65.0538 263.56C63.0698 263.56 61.5178 264.12 60.3978 265.24C59.3098 266.328 58.7658 268.04 58.7658 270.376V284.824C58.7658 287.16 59.3098 288.888 60.3978 290.008C61.5178 291.096 63.0698 291.64 65.0538 291.64ZM65.1018 279.544C64.5258 279.544 64.0618 279.368 63.7098 279.016C63.3578 278.632 63.1818 278.168 63.1818 277.624C63.1818 277.08 63.3578 276.632 63.7098 276.28C64.0618 275.928 64.5258 275.752 65.1018 275.752C65.6458 275.752 66.0778 275.928 66.3978 276.28C66.7498 276.632 66.9258 277.08 66.9258 277.624C66.9258 278.168 66.7498 278.632 66.3978 279.016C66.0778 279.368 65.6458 279.544 65.1018 279.544ZM90.9756 295.288C89.0236 295.288 87.2636 294.952 85.6956 294.28C84.1596 293.576 82.9276 292.456 81.9996 290.92C81.1036 289.384 80.6556 287.352 80.6556 284.824V270.376C80.6556 267.848 81.1036 265.816 81.9996 264.28C82.9276 262.744 84.1596 261.64 85.6956 260.968C87.2636 260.264 89.0236 259.912 90.9756 259.912C92.8956 259.912 94.6396 260.264 96.2076 260.968C97.7756 261.64 99.0236 262.744 99.9516 264.28C100.88 265.816 101.344 267.848 101.344 270.376V284.824C101.344 287.352 100.88 289.384 99.9516 290.92C99.0236 292.456 97.7756 293.576 96.2076 294.28C94.6396 294.952 92.8956 295.288 90.9756 295.288ZM90.9756 291.64C92.9276 291.64 94.4636 291.096 95.5836 290.008C96.7356 288.888 97.3116 287.16 97.3116 284.824V270.376C97.3116 268.04 96.7356 266.328 95.5836 265.24C94.4636 264.12 92.9276 263.56 90.9756 263.56C88.9916 263.56 87.4396 264.12 86.3196 265.24C85.2316 266.328 84.6876 268.04 84.6876 270.376V284.824C84.6876 287.16 85.2316 288.888 86.3196 290.008C87.4396 291.096 88.9916 291.64 90.9756 291.64ZM91.0236 279.544C90.4476 279.544 89.9836 279.368 89.6316 279.016C89.2796 278.632 89.1036 278.168 89.1036 277.624C89.1036 277.08 89.2796 276.632 89.6316 276.28C89.9836 275.928 90.4476 275.752 91.0236 275.752C91.5676 275.752 91.9996 275.928 92.3196 276.28C92.6716 276.632 92.8476 277.08 92.8476 277.624C92.8476 278.168 92.6716 278.632 92.3196 279.016C91.9996 279.368 91.5676 279.544 91.0236 279.544ZM116.898 295.288C114.946 295.288 113.186 294.952 111.618 294.28C110.082 293.576 108.85 292.456 107.922 290.92C107.026 289.384 106.578 287.352 106.578 284.824V270.376C106.578 267.848 107.026 265.816 107.922 264.28C108.85 262.744 110.082 261.64 111.618 260.968C113.186 260.264 114.946 259.912 116.898 259.912C118.818 259.912 120.562 260.264 122.13 260.968C123.698 261.64 124.946 262.744 125.874 264.28C126.802 265.816 127.266 267.848 127.266 270.376V284.824C127.266 287.352 126.802 289.384 125.874 290.92C124.946 292.456 123.698 293.576 122.13 294.28C120.562 294.952 118.818 295.288 116.898 295.288ZM116.898 291.64C118.85 291.64 120.386 291.096 121.506 290.008C122.658 288.888 123.234 287.16 123.234 284.824V270.376C123.234 268.04 122.658 266.328 121.506 265.24C120.386 264.12 118.85 263.56 116.898 263.56C114.914 263.56 113.362 264.12 112.242 265.24C111.154 266.328 110.61 268.04 110.61 270.376V284.824C110.61 287.16 111.154 288.888 112.242 290.008C113.362 291.096 114.914 291.64 116.898 291.64ZM116.946 279.544C116.37 279.544 115.906 279.368 115.554 279.016C115.202 278.632 115.026 278.168 115.026 277.624C115.026 277.08 115.202 276.632 115.554 276.28C115.906 275.928 116.37 275.752 116.946 275.752C117.49 275.752 117.922 275.928 118.242 276.28C118.594 276.632 118.77 277.08 118.77 277.624C118.77 278.168 118.594 278.632 118.242 279.016C117.922 279.368 117.49 279.544 116.946 279.544Z" fill="black"/>
<path d="M389.469 295.288C387.517 295.288 385.757 294.952 384.189 294.28C382.621 293.576 381.373 292.456 380.445 290.92C379.549 289.384 379.101 287.352 379.101 284.824V270.376C379.101 267.848 379.565 265.816 380.493 264.28C381.421 262.744 382.669 261.64 384.237 260.968C385.837 260.264 387.629 259.912 389.613 259.912C391.853 259.912 393.725 260.328 395.229 261.16C396.765 261.96 397.901 263 398.637 264.28C399.405 265.56 399.789 266.888 399.789 268.264C399.789 268.936 399.613 269.4 399.261 269.656C398.941 269.912 398.477 270.04 397.869 270.04C397.325 270.04 396.829 269.928 396.381 269.704C395.965 269.48 395.757 269.064 395.757 268.456C395.757 266.952 395.133 265.768 393.885 264.904C392.669 264.008 391.213 263.56 389.517 263.56C387.501 263.56 385.933 264.12 384.813 265.24C383.693 266.328 383.133 268.04 383.133 270.376V277.096C383.933 276.04 384.941 275.288 386.157 274.84C387.373 274.36 388.701 274.12 390.141 274.12C391.901 274.12 393.517 274.424 394.989 275.032C396.461 275.608 397.629 276.6 398.493 278.008C399.357 279.416 399.789 281.352 399.789 283.816V284.824C399.789 287.352 399.325 289.384 398.397 290.92C397.501 292.456 396.269 293.576 394.701 294.28C393.133 294.952 391.389 295.288 389.469 295.288ZM389.469 291.832C391.421 291.832 392.957 291.288 394.077 290.2C395.197 289.08 395.757 287.352 395.757 285.016V284.008C395.757 281.64 395.197 279.96 394.077 278.968C392.957 277.976 391.405 277.48 389.421 277.48C387.501 277.48 385.965 277.944 384.813 278.872C383.693 279.8 383.133 281.368 383.133 283.576V285.016C383.133 287.352 383.693 289.08 384.813 290.2C385.933 291.288 387.485 291.832 389.469 291.832ZM414.733 295.288C412.781 295.288 411.021 294.952 409.453 294.28C407.917 293.576 406.685 292.456 405.757 290.92C404.861 289.384 404.413 287.352 404.413 284.824V270.376C404.413 267.848 404.861 265.816 405.757 264.28C406.685 262.744 407.917 261.64 409.453 260.968C411.021 260.264 412.781 259.912 414.733 259.912C416.653 259.912 418.397 260.264 419.965 260.968C421.533 261.64 422.781 262.744 423.709 264.28C424.637 265.816 425.101 267.848 425.101 270.376V284.824C425.101 287.352 424.637 289.384 423.709 290.92C422.781 292.456 421.533 293.576 419.965 294.28C418.397 294.952 416.653 295.288 414.733 295.288ZM414.733 291.64C416.685 291.64 418.221 291.096 419.341 290.008C420.493 288.888 421.069 287.16 421.069 284.824V270.376C421.069 268.04 420.493 266.328 419.341 265.24C418.221 264.12 416.685 263.56 414.733 263.56C412.749 263.56 411.197 264.12 410.077 265.24C408.989 266.328 408.445 268.04 408.445 270.376V284.824C408.445 287.16 408.989 288.888 410.077 290.008C411.197 291.096 412.749 291.64 414.733 291.64ZM414.781 279.544C414.205 279.544 413.741 279.368 413.389 279.016C413.037 278.632 412.861 278.168 412.861 277.624C412.861 277.08 413.037 276.632 413.389 276.28C413.741 275.928 414.205 275.752 414.781 275.752C415.325 275.752 415.757 275.928 416.077 276.28C416.429 276.632 416.605 277.08 416.605 277.624C416.605 278.168 416.429 278.632 416.077 279.016C415.757 279.368 415.325 279.544 414.781 279.544ZM440.655 295.288C438.703 295.288 436.943 294.952 435.375 294.28C433.839 293.576 432.607 292.456 431.679 290.92C430.783 289.384 430.335 287.352 430.335 284.824V270.376C430.335 267.848 430.783 265.816 431.679 264.28C432.607 262.744 433.839 261.64 435.375 260.968C436.943 260.264 438.703 259.912 440.655 259.912C442.575 259.912 444.319 260.264 445.887 260.968C447.455 261.64 448.703 262.744 449.631 264.28C450.559 265.816 451.023 267.848 451.023 270.376V284.824C451.023 287.352 450.559 289.384 449.631 290.92C448.703 292.456 447.455 293.576 445.887 294.28C444.319 294.952 442.575 295.288 440.655 295.288ZM440.655 291.64C442.607 291.64 444.143 291.096 445.263 290.008C446.415 288.888 446.991 287.16 446.991 284.824V270.376C446.991 268.04 446.415 266.328 445.263 265.24C444.143 264.12 442.607 263.56 440.655 263.56C438.671 263.56 437.119 264.12 435.999 265.24C434.911 266.328 434.367 268.04 434.367 270.376V284.824C434.367 287.16 434.911 288.888 435.999 290.008C437.119 291.096 438.671 291.64 440.655 291.64ZM440.703 279.544C440.127 279.544 439.663 279.368 439.311 279.016C438.959 278.632 438.783 278.168 438.783 277.624C438.783 277.08 438.959 276.632 439.311 276.28C439.663 275.928 440.127 275.752 440.703 275.752C441.247 275.752 441.679 275.928 441.999 276.28C442.351 276.632 442.527 277.08 442.527 277.624C442.527 278.168 442.351 278.632 441.999 279.016C441.679 279.368 441.247 279.544 440.703 279.544ZM466.577 295.288C464.625 295.288 462.865 294.952 461.297 294.28C459.761 293.576 458.529 292.456 457.601 290.92C456.705 289.384 456.257 287.352 456.257 284.824V270.376C456.257 267.848 456.705 265.816 457.601 264.28C458.529 262.744 459.761 261.64 461.297 260.968C462.865 260.264 464.625 259.912 466.577 259.912C468.497 259.912 470.241 260.264 471.809 260.968C473.377 261.64 474.625 262.744 475.553 264.28C476.481 265.816 476.945 267.848 476.945 270.376V284.824C476.945 287.352 476.481 289.384 475.553 290.92C474.625 292.456 473.377 293.576 471.809 294.28C470.241 294.952 468.497 295.288 466.577 295.288ZM466.577 291.64C468.529 291.64 470.065 291.096 471.185 290.008C472.337 288.888 472.913 287.16 472.913 284.824V270.376C472.913 268.04 472.337 266.328 471.185 265.24C470.065 264.12 468.529 263.56 466.577 263.56C464.593 263.56 463.041 264.12 461.921 265.24C460.833 266.328 460.289 268.04 460.289 270.376V284.824C460.289 287.16 460.833 288.888 461.921 290.008C463.041 291.096 464.593 291.64 466.577 291.64ZM466.625 279.544C466.049 279.544 465.585 279.368 465.233 279.016C464.881 278.632 464.705 278.168 464.705 277.624C464.705 277.08 464.881 276.632 465.233 276.28C465.585 275.928 466.049 275.752 466.625 275.752C467.169 275.752 467.601 275.928 467.921 276.28C468.273 276.632 468.449 277.08 468.449 277.624C468.449 278.168 468.273 278.632 467.921 279.016C467.601 279.368 467.169 279.544 466.625 279.544Z" fill="black"/>
<path d="M0 0.963379H509V203.217C509 219.785 495.569 233.217 479 233.217H30C13.4315 233.217 0 219.785 0 203.217V0.963379Z" fill="url(#paint1_linear)"/>
<path d="M20.8245 216.777C20.0565 216.777 19.4379 216.457 18.9685 215.817C18.4992 215.22 18.2645 214.409 18.2645 213.385C18.2645 212.404 18.4992 211.572 18.9685 210.889C19.4379 210.249 20.0565 209.929 20.8245 209.929H41.3045C41.9872 209.929 42.6059 210.249 43.1605 210.889C43.7152 211.572 43.9925 212.404 43.9925 213.385C43.9925 214.409 43.7152 215.22 43.1605 215.817C42.6059 216.457 41.9872 216.777 41.3045 216.777H20.8245ZM40.9495 216.777C40.1815 216.777 39.5629 216.457 39.0935 215.817C38.6242 215.22 38.3895 214.409 38.3895 213.385C38.3895 212.404 38.6242 211.572 39.0935 210.889C39.5629 210.249 40.1815 209.929 40.9495 209.929H61.4295C62.1122 209.929 62.7309 210.249 63.2855 210.889C63.8402 211.572 64.1175 212.404 64.1175 213.385C64.1175 214.409 63.8402 215.22 63.2855 215.817C62.7309 216.457 62.1122 216.777 61.4295 216.777H40.9495ZM61.0745 216.777C60.3065 216.777 59.6879 216.457 59.2185 215.817C58.7492 215.22 58.5145 214.409 58.5145 213.385C58.5145 212.404 58.7492 211.572 59.2185 210.889C59.6879 210.249 60.3065 209.929 61.0745 209.929H81.5545C82.2372 209.929 82.8559 210.249 83.4105 210.889C83.9652 211.572 84.2425 212.404 84.2425 213.385C84.2425 214.409 83.9652 215.22 83.4105 215.817C82.8559 216.457 82.2372 216.777 81.5545 216.777H61.0745ZM81.1995 216.777C80.4315 216.777 79.8129 216.457 79.3435 215.817C78.8742 215.22 78.6395 214.409 78.6395 213.385C78.6395 212.404 78.8742 211.572 79.3435 210.889C79.8129 210.249 80.4315 209.929 81.1995 209.929H101.68C102.362 209.929 102.981 210.249 103.536 210.889C104.09 211.572 104.368 212.404 104.368 213.385C104.368 214.409 104.09 215.22 103.536 215.817C102.981 216.457 102.362 216.777 101.68 216.777H81.1995ZM101.325 216.777C100.557 216.777 99.9379 216.457 99.4685 215.817C98.9992 215.22 98.7645 214.409 98.7645 213.385C98.7645 212.404 98.9992 211.572 99.4685 210.889C99.9379 210.249 100.557 209.929 101.325 209.929H121.805C122.487 209.929 123.106 210.249 123.661 210.889C124.215 211.572 124.493 212.404 124.493 213.385C124.493 214.409 124.215 215.22 123.661 215.817C123.106 216.457 122.487 216.777 121.805 216.777H101.325ZM121.45 216.777C120.682 216.777 120.063 216.457 119.594 215.817C119.124 215.22 118.89 214.409 118.89 213.385C118.89 212.404 119.124 211.572 119.594 210.889C120.063 210.249 120.682 209.929 121.45 209.929H141.93C142.612 209.929 143.231 210.249 143.786 210.889C144.34 211.572 144.618 212.404 144.618 213.385C144.618 214.409 144.34 215.22 143.786 215.817C143.231 216.457 142.612 216.777 141.93 216.777H121.45ZM141.575 216.777C140.807 216.777 140.188 216.457 139.719 215.817C139.249 215.22 139.015 214.409 139.015 213.385C139.015 212.404 139.249 211.572 139.719 210.889C140.188 210.249 140.807 209.929 141.575 209.929H162.055C162.737 209.929 163.356 210.249 163.911 210.889C164.465 211.572 164.743 212.404 164.743 213.385C164.743 214.409 164.465 215.22 163.911 215.817C163.356 216.457 162.737 216.777 162.055 216.777H141.575ZM161.7 216.777C160.932 216.777 160.313 216.457 159.844 215.817C159.374 215.22 159.14 214.409 159.14 213.385C159.14 212.404 159.374 211.572 159.844 210.889C160.313 210.249 160.932 209.929 161.7 209.929H182.18C182.862 209.929 183.481 210.249 184.036 210.889C184.59 211.572 184.868 212.404 184.868 213.385C184.868 214.409 184.59 215.22 184.036 215.817C183.481 216.457 182.862 216.777 182.18 216.777H161.7ZM181.825 216.777C181.057 216.777 180.438 216.457 179.969 215.817C179.499 215.22 179.265 214.409 179.265 213.385C179.265 212.404 179.499 211.572 179.969 210.889C180.438 210.249 181.057 209.929 181.825 209.929H202.305C202.987 209.929 203.606 210.249 204.161 210.889C204.715 211.572 204.993 212.404 204.993 213.385C204.993 214.409 204.715 215.22 204.161 215.817C203.606 216.457 202.987 216.777 202.305 216.777H181.825Z" fill="white"/>
<path d="M228.895 329C228.495 329 228.125 328.91 227.785 328.73C227.465 328.55 227.305 328.28 227.305 327.92V308.09C227.305 307.83 227.415 307.6 227.635 307.4C227.875 307.18 228.175 307.07 228.535 307.07H234.385C235.605 307.07 236.715 307.29 237.715 307.73C238.715 308.15 239.505 308.85 240.085 309.83C240.665 310.79 240.955 312.07 240.955 313.67V313.91C240.955 315.51 240.655 316.8 240.055 317.78C239.455 318.76 238.645 319.47 237.625 319.91C236.605 320.33 235.465 320.54 234.205 320.54H230.485V327.92C230.485 328.28 230.315 328.55 229.975 328.73C229.655 328.91 229.295 329 228.895 329ZM230.485 317.99H234.205C235.325 317.99 236.195 317.68 236.815 317.06C237.455 316.42 237.775 315.44 237.775 314.12V313.76C237.775 312.44 237.455 311.47 236.815 310.85C236.195 310.21 235.325 309.89 234.205 309.89H230.485V317.99ZM245.272 329C244.872 329 244.502 328.91 244.162 328.73C243.842 328.55 243.682 328.28 243.682 327.92V308.09C243.682 307.83 243.792 307.6 244.012 307.4C244.252 307.18 244.552 307.07 244.912 307.07H250.762C251.982 307.07 253.092 307.29 254.092 307.73C255.092 308.15 255.882 308.85 256.462 309.83C257.042 310.79 257.332 312.07 257.332 313.67V313.91C257.332 315.51 257.032 316.8 256.432 317.78C255.832 318.76 255.022 319.47 254.002 319.91C252.982 320.33 251.842 320.54 250.582 320.54H246.862V327.92C246.862 328.28 246.692 328.55 246.352 328.73C246.032 328.91 245.672 329 245.272 329ZM246.862 317.99H250.582C251.702 317.99 252.572 317.68 253.192 317.06C253.832 316.42 254.152 315.44 254.152 314.12V313.76C254.152 312.44 253.832 311.47 253.192 310.85C252.572 310.21 251.702 309.89 250.582 309.89H246.862V317.99ZM261.649 329C261.249 329 260.879 328.91 260.539 328.73C260.219 328.55 260.059 328.28 260.059 327.92V308.66C260.059 308.08 260.219 307.67 260.539 307.43C260.879 307.19 261.249 307.07 261.649 307.07C262.229 307.07 262.689 307.2 263.029 307.46C263.389 307.72 263.769 308.19 264.169 308.87L268.399 316.82L272.629 308.87C273.009 308.19 273.379 307.72 273.739 307.46C274.099 307.2 274.559 307.07 275.119 307.07C275.539 307.07 275.909 307.19 276.229 307.43C276.549 307.67 276.709 308.08 276.709 308.66V327.92C276.709 328.28 276.539 328.55 276.199 328.73C275.879 328.91 275.519 329 275.119 329C274.719 329 274.349 328.91 274.009 328.73C273.689 328.55 273.529 328.28 273.529 327.92V313.55L269.509 320.99C269.349 321.25 269.169 321.44 268.969 321.56C268.769 321.66 268.559 321.71 268.339 321.71C268.159 321.71 267.969 321.66 267.769 321.56C267.569 321.46 267.399 321.27 267.259 320.99L263.239 313.37V327.92C263.239 328.28 263.069 328.55 262.729 328.73C262.409 328.91 262.049 329 261.649 329Z" fill="#BCBCBC"/>
<path d="M405.084 329.18C403.884 329.18 402.774 328.96 401.754 328.52C400.754 328.08 399.954 327.37 399.354 326.39C398.754 325.41 398.454 324.1 398.454 322.46V313.76C398.454 312.14 398.754 310.84 399.354 309.86C399.954 308.88 400.764 308.17 401.784 307.73C402.804 307.29 403.914 307.07 405.114 307.07C406.494 307.07 407.694 307.3 408.714 307.76C409.734 308.22 410.524 308.86 411.084 309.68C411.644 310.5 411.924 311.44 411.924 312.5C411.924 313.18 411.794 313.63 411.534 313.85C411.274 314.05 410.874 314.15 410.334 314.15C409.854 314.15 409.474 314.07 409.194 313.91C408.914 313.73 408.764 313.46 408.744 313.1C408.724 312.84 408.674 312.53 408.594 312.17C408.514 311.81 408.354 311.46 408.114 311.12C407.894 310.76 407.544 310.47 407.064 310.25C406.604 310.01 405.994 309.89 405.234 309.89C404.074 309.89 403.184 310.21 402.564 310.85C401.944 311.47 401.634 312.44 401.634 313.76V322.46C401.634 323.8 401.944 324.79 402.564 325.43C403.184 326.05 404.094 326.36 405.294 326.36C406.054 326.36 406.654 326.25 407.094 326.03C407.534 325.79 407.864 325.5 408.084 325.16C408.324 324.8 408.484 324.43 408.564 324.05C408.644 323.65 408.704 323.29 408.744 322.97C408.764 322.59 408.914 322.32 409.194 322.16C409.494 322 409.864 321.92 410.304 321.92C410.864 321.92 411.274 322.03 411.534 322.25C411.794 322.47 411.924 322.91 411.924 323.57C411.924 324.67 411.634 325.64 411.054 326.48C410.494 327.32 409.704 327.98 408.684 328.46C407.664 328.94 406.464 329.18 405.084 329.18ZM421.404 329.18C420.144 329.18 419.004 328.96 417.984 328.52C416.964 328.08 416.154 327.37 415.554 326.39C414.974 325.41 414.684 324.1 414.684 322.46V313.76C414.684 312.14 414.974 310.84 415.554 309.86C416.154 308.88 416.964 308.17 417.984 307.73C419.004 307.29 420.144 307.07 421.404 307.07C422.664 307.07 423.804 307.29 424.824 307.73C425.844 308.17 426.654 308.88 427.254 309.86C427.854 310.84 428.154 312.14 428.154 313.76V322.46C428.154 324.1 427.854 325.41 427.254 326.39C426.654 327.37 425.844 328.08 424.824 328.52C423.804 328.96 422.664 329.18 421.404 329.18ZM421.404 326.36C422.504 326.36 423.374 326.05 424.014 325.43C424.654 324.79 424.974 323.8 424.974 322.46V313.76C424.974 312.44 424.654 311.47 424.014 310.85C423.374 310.21 422.504 309.89 421.404 309.89C420.284 309.89 419.414 310.21 418.794 310.85C418.174 311.47 417.864 312.44 417.864 313.76V322.46C417.864 323.8 418.174 324.79 418.794 325.43C419.414 326.05 420.284 326.36 421.404 326.36ZM437.406 329.24C436.106 329.24 434.956 329.05 433.956 328.67C432.956 328.29 432.176 327.83 431.616 327.29C431.056 326.73 430.776 326.2 430.776 325.7C430.776 325.34 430.916 324.97 431.196 324.59C431.476 324.19 431.796 323.99 432.156 323.99C432.436 323.99 432.706 324.11 432.966 324.35C433.226 324.59 433.526 324.87 433.866 325.19C434.226 325.49 434.676 325.76 435.216 326C435.756 326.24 436.446 326.36 437.286 326.36C438.366 326.36 439.266 326.1 439.986 325.58C440.706 325.06 441.066 324.26 441.066 323.18C441.066 322.42 440.886 321.79 440.526 321.29C440.186 320.79 439.726 320.37 439.146 320.03C438.566 319.69 437.926 319.38 437.226 319.1C436.526 318.82 435.826 318.52 435.126 318.2C434.446 317.88 433.816 317.5 433.236 317.06C432.656 316.6 432.186 316.03 431.826 315.35C431.486 314.65 431.316 313.78 431.316 312.74C431.316 311.64 431.516 310.72 431.916 309.98C432.336 309.22 432.886 308.62 433.566 308.18C434.246 307.74 434.996 307.43 435.816 307.25C436.636 307.05 437.446 306.95 438.246 306.95C438.726 306.95 439.276 306.99 439.896 307.07C440.516 307.15 441.116 307.28 441.696 307.46C442.276 307.62 442.756 307.84 443.136 308.12C443.516 308.4 443.706 308.74 443.706 309.14C443.706 309.34 443.656 309.58 443.556 309.86C443.456 310.12 443.306 310.35 443.106 310.55C442.926 310.75 442.686 310.85 442.386 310.85C442.126 310.85 441.836 310.76 441.516 310.58C441.196 310.38 440.776 310.19 440.256 310.01C439.756 309.81 439.086 309.71 438.246 309.71C437.146 309.71 436.246 309.93 435.546 310.37C434.846 310.81 434.496 311.5 434.496 312.44C434.496 313.08 434.666 313.61 435.006 314.03C435.366 314.43 435.836 314.78 436.416 315.08C436.996 315.36 437.626 315.64 438.306 315.92C439.006 316.18 439.706 316.48 440.406 316.82C441.106 317.14 441.746 317.56 442.326 318.08C442.906 318.58 443.366 319.22 443.706 320C444.066 320.76 444.246 321.71 444.246 322.85C444.246 324.29 443.946 325.48 443.346 326.42C442.766 327.36 441.956 328.07 440.916 328.55C439.896 329.01 438.726 329.24 437.406 329.24ZM452.731 329C452.331 329 451.961 328.91 451.621 328.73C451.301 328.55 451.141 328.28 451.141 327.92V309.98H446.491C446.171 309.98 445.921 309.83 445.741 309.53C445.561 309.23 445.471 308.89 445.471 308.51C445.471 308.15 445.551 307.82 445.711 307.52C445.891 307.22 446.151 307.07 446.491 307.07H458.941C459.321 307.07 459.591 307.22 459.751 307.52C459.911 307.82 459.991 308.14 459.991 308.48C459.991 308.88 459.901 309.23 459.721 309.53C459.561 309.83 459.301 309.98 458.941 309.98H454.321V327.92C454.321 328.28 454.151 328.55 453.811 328.73C453.491 328.91 453.131 329 452.731 329Z" fill="#BCBCBC"/>
<path d="M69.9494 328C69.5494 328 69.1794 327.91 68.8394 327.73C68.5194 327.55 68.3594 327.28 68.3594 326.92V308.98H63.7094C63.3894 308.98 63.1394 308.83 62.9594 308.53C62.7794 308.23 62.6894 307.89 62.6894 307.51C62.6894 307.15 62.7694 306.82 62.9294 306.52C63.1094 306.22 63.3694 306.07 63.7094 306.07H76.1594C76.5394 306.07 76.8094 306.22 76.9694 306.52C77.1294 306.82 77.2094 307.14 77.2094 307.48C77.2094 307.88 77.1194 308.23 76.9394 308.53C76.7794 308.83 76.5194 308.98 76.1594 308.98H71.5394V326.92C71.5394 327.28 71.3694 327.55 71.0294 327.73C70.7094 327.91 70.3494 328 69.9494 328ZM91.3352 328.09C91.0752 328.09 90.8352 328 90.6152 327.82C90.4152 327.64 90.2452 327.42 90.1052 327.16L85.6952 318.58H82.6952V326.92C82.6952 327.28 82.5252 327.55 82.1852 327.73C81.8652 327.91 81.5052 328 81.1052 328C80.7052 328 80.3352 327.91 79.9952 327.73C79.6752 327.55 79.5152 327.28 79.5152 326.92V307.09C79.5152 306.83 79.6052 306.6 79.7852 306.4C79.9852 306.18 80.2552 306.07 80.5952 306.07H86.2952C87.5552 306.07 88.7052 306.26 89.7452 306.64C90.7852 307 91.6152 307.63 92.2352 308.53C92.8552 309.43 93.1652 310.65 93.1652 312.19C93.1652 313.97 92.7552 315.33 91.9352 316.27C91.1352 317.21 90.1452 317.83 88.9652 318.13L93.1652 326.02C93.2452 326.14 93.2852 326.29 93.2852 326.47C93.2852 326.87 93.0752 327.24 92.6552 327.58C92.2352 327.92 91.7952 328.09 91.3352 328.09ZM82.6952 316.03H86.2952C87.4152 316.03 88.3052 315.76 88.9652 315.22C89.6452 314.68 89.9852 313.76 89.9852 312.46C89.9852 311.16 89.6452 310.24 88.9652 309.7C88.3052 309.16 87.4152 308.89 86.2952 308.89H82.6952V316.03ZM102.311 328C101.911 328 101.541 327.91 101.201 327.73C100.881 327.55 100.721 327.28 100.721 326.92V319.36C100.721 319.24 100.691 319.13 100.631 319.03L94.4207 307.84C94.3607 307.68 94.3307 307.53 94.3307 307.39C94.3307 307.01 94.5607 306.7 95.0207 306.46C95.4807 306.2 95.9207 306.07 96.3407 306.07C96.6007 306.07 96.8007 306.13 96.9407 306.25C97.1007 306.37 97.2407 306.55 97.3607 306.79L102.311 316.3L107.231 306.79C107.371 306.55 107.511 306.37 107.651 306.25C107.811 306.13 108.021 306.07 108.281 306.07C108.701 306.07 109.141 306.2 109.601 306.46C110.061 306.7 110.291 307.01 110.291 307.39C110.291 307.45 110.281 307.52 110.261 307.6C110.261 307.68 110.241 307.76 110.201 307.84L103.991 319.03C103.931 319.13 103.901 319.24 103.901 319.36V326.92C103.901 327.28 103.731 327.55 103.391 327.73C103.071 327.91 102.711 328 102.311 328Z" fill="#BCBCBC"/>
<defs>
<linearGradient id="paint0_linear" x1="254.5" y1="103.297" x2="254.5" y2="340" gradientUnits="userSpaceOnUse">
<stop stop-color="white" stop-opacity="0"/>
<stop offset="0.598958" stop-color="white"/>
</linearGradient>
<linearGradient id="paint1_linear" x1="254.5" y1="0.963379" x2="254.5" y2="233.217" gradientUnits="userSpaceOnUse">
<stop stop-color="#6892FF" stop-opacity="0"/>
<stop offset="1" stop-color="#6892FF"/>
</linearGradient>
</defs>
</svg>
