<svg width="377" height="210" viewBox="0 0 377 210" fill="none" xmlns="http://www.w3.org/2000/svg">
<g filter="url(#filter0_d)">
<path d="M19.0505 15C19.0505 6.71573 25.7663 0 34.0505 0H341.947C350.231 0 356.947 6.71573 356.947 15V202H19.0505V15Z" fill="#F0F0F0"/>
</g>
<path d="M27.0718 16H348.926V182H27.0718V16Z" fill="white"/>
<path d="M0 192H377V192C377 200.837 369.837 208 361 208H16C7.16344 208 0 200.837 0 192V192Z" fill="#E2E2E2"/>
<path d="M152.647 118C152.359 118 152.059 117.904 151.747 117.712C151.435 117.52 151.279 117.256 151.279 116.92V113.428C151.279 112.444 151.567 111.532 152.143 110.692C152.719 109.852 153.463 109.06 154.375 108.316C155.287 107.572 156.247 106.84 157.255 106.12C158.287 105.4 159.259 104.668 160.171 103.924C161.083 103.18 161.827 102.388 162.403 101.548C162.979 100.708 163.267 99.796 163.267 98.812C163.267 98.116 163.111 97.444 162.799 96.796C162.487 96.124 162.007 95.572 161.359 95.14C160.711 94.708 159.871 94.492 158.839 94.492C157.711 94.492 156.751 94.816 155.959 95.464C155.191 96.112 154.807 97.096 154.807 98.416C154.807 98.728 154.663 99.004 154.375 99.244C154.111 99.484 153.727 99.604 153.223 99.604C152.791 99.604 152.455 99.484 152.215 99.244C151.975 98.98 151.855 98.512 151.855 97.84C151.855 96.616 152.167 95.548 152.791 94.636C153.439 93.7 154.291 92.98 155.347 92.476C156.403 91.948 157.579 91.684 158.875 91.684C160.267 91.684 161.515 91.984 162.619 92.584C163.747 93.184 164.635 94.012 165.283 95.068C165.955 96.124 166.291 97.336 166.291 98.704C166.291 100 166.003 101.164 165.427 102.196C164.851 103.204 164.107 104.128 163.195 104.968C162.307 105.808 161.347 106.588 160.315 107.308C159.307 108.004 158.347 108.688 157.435 109.36C156.547 110.008 155.815 110.668 155.239 111.34C154.663 111.988 154.375 112.684 154.375 113.428V115.264H165.463C165.751 115.264 165.991 115.396 166.183 115.66C166.399 115.924 166.507 116.248 166.507 116.632C166.507 116.968 166.399 117.28 166.183 117.568C165.991 117.856 165.751 118 165.463 118H152.647ZM178.247 118C177.863 118 177.515 117.916 177.203 117.748C176.891 117.556 176.735 117.28 176.735 116.92V111.952H167.735C167.399 111.952 167.123 111.844 166.907 111.628C166.715 111.412 166.619 111.124 166.619 110.764C166.619 110.524 166.679 110.296 166.799 110.08L175.655 92.548C175.823 92.236 176.027 92.02 176.267 91.9C176.531 91.756 176.783 91.684 177.023 91.684C177.311 91.684 177.635 91.792 177.995 92.008C178.355 92.224 178.535 92.512 178.535 92.872C178.535 93.016 178.487 93.184 178.391 93.376L170.471 109.072H176.735V103.024C176.735 102.664 176.891 102.4 177.203 102.232C177.515 102.064 177.863 101.98 178.247 101.98C178.631 101.98 178.979 102.064 179.291 102.232C179.603 102.4 179.759 102.664 179.759 103.024V109.072H181.631C181.991 109.072 182.255 109.228 182.423 109.54C182.615 109.828 182.711 110.152 182.711 110.512C182.711 110.872 182.603 111.208 182.387 111.52C182.195 111.808 181.943 111.952 181.631 111.952H179.759V116.92C179.759 117.28 179.603 117.556 179.291 117.748C178.979 117.916 178.631 118 178.247 118ZM186.706 106.588C186.178 106.588 185.734 106.396 185.374 106.012C185.014 105.628 184.834 105.184 184.834 104.68C184.834 104.176 185.014 103.744 185.374 103.384C185.734 103 186.178 102.808 186.706 102.808C187.21 102.808 187.642 103 188.002 103.384C188.386 103.744 188.578 104.176 188.578 104.68C188.578 105.184 188.386 105.628 188.002 106.012C187.642 106.396 187.21 106.588 186.706 106.588ZM186.706 118.216C186.178 118.216 185.734 118.024 185.374 117.64C185.014 117.256 184.834 116.824 184.834 116.344C184.834 115.816 185.014 115.372 185.374 115.012C185.734 114.628 186.178 114.436 186.706 114.436C187.21 114.436 187.642 114.628 188.002 115.012C188.386 115.372 188.578 115.816 188.578 116.344C188.578 116.824 188.386 117.256 188.002 117.64C187.642 118.024 187.21 118.216 186.706 118.216ZM199.056 118.216C197.4 118.216 195.996 117.928 194.844 117.352C193.692 116.776 192.804 116.02 192.18 115.084C191.58 114.124 191.28 113.092 191.28 111.988C191.28 111.436 191.412 111.064 191.676 110.872C191.964 110.656 192.336 110.548 192.792 110.548C193.368 110.548 193.764 110.668 193.98 110.908C194.196 111.124 194.304 111.412 194.304 111.772C194.304 112.948 194.76 113.86 195.672 114.508C196.584 115.156 197.7 115.48 199.02 115.48C200.508 115.48 201.672 115.072 202.512 114.256C203.352 113.44 203.772 112.168 203.772 110.44V109.756C203.772 108.1 203.352 106.864 202.512 106.048C201.672 105.232 200.52 104.824 199.056 104.824H193.944C193.392 104.824 193.02 104.716 192.828 104.5C192.636 104.284 192.54 103.996 192.54 103.636C192.54 103.492 192.54 103.36 192.54 103.24C192.564 103.12 192.588 102.988 192.612 102.844L193.368 92.764C193.44 92.044 193.704 91.684 194.16 91.684H204.528C204.864 91.684 205.104 91.828 205.248 92.116C205.416 92.404 205.5 92.716 205.5 93.052C205.5 93.388 205.416 93.7 205.248 93.988C205.104 94.276 204.864 94.42 204.528 94.42H195.996L195.456 102.304H199.056C200.52 102.304 201.828 102.556 202.98 103.06C204.156 103.54 205.08 104.332 205.752 105.436C206.448 106.516 206.796 107.956 206.796 109.756V110.44C206.796 112.336 206.448 113.86 205.752 115.012C205.056 116.14 204.12 116.956 202.944 117.46C201.792 117.964 200.496 118.216 199.056 118.216ZM216.998 118.216C215.294 118.216 213.878 117.916 212.75 117.316C211.622 116.692 210.77 115.9 210.194 114.94C209.642 113.98 209.366 112.984 209.366 111.952C209.366 111.448 209.486 111.1 209.726 110.908C209.966 110.716 210.314 110.62 210.77 110.62C211.178 110.62 211.538 110.704 211.85 110.872C212.186 111.04 212.354 111.352 212.354 111.808C212.354 112.936 212.81 113.836 213.722 114.508C214.658 115.156 215.774 115.48 217.07 115.48C218.582 115.48 219.758 115.072 220.598 114.256C221.438 113.416 221.858 112.12 221.858 110.368V105.328C221.258 106.12 220.502 106.696 219.59 107.056C218.678 107.392 217.682 107.56 216.602 107.56C215.258 107.56 214.034 107.344 212.93 106.912C211.85 106.456 210.986 105.7 210.338 104.644C209.69 103.588 209.366 102.136 209.366 100.288V99.532C209.366 97.636 209.702 96.112 210.374 94.96C211.07 93.808 211.994 92.98 213.146 92.476C214.322 91.948 215.642 91.684 217.106 91.684C218.57 91.684 219.89 91.948 221.066 92.476C222.242 92.98 223.166 93.808 223.838 94.96C224.534 96.112 224.882 97.636 224.882 99.532V110.368C224.882 112.264 224.534 113.788 223.838 114.94C223.142 116.092 222.194 116.932 220.994 117.46C219.818 117.964 218.486 118.216 216.998 118.216ZM217.106 105.04C218.546 105.04 219.698 104.692 220.562 103.996C221.426 103.3 221.858 102.124 221.858 100.468V99.388C221.858 97.636 221.438 96.352 220.598 95.536C219.758 94.696 218.594 94.276 217.106 94.276C215.618 94.276 214.454 94.696 213.614 95.536C212.798 96.352 212.39 97.636 212.39 99.388V100.144C212.39 101.92 212.798 103.18 213.614 103.924C214.454 104.668 215.618 105.04 217.106 105.04Z" fill="#6892FF"/>
<defs>
<filter id="filter0_d" x="15.0505" y="0" width="345.896" height="210" filterUnits="userSpaceOnUse" color-interpolation-filters="sRGB">
<feFlood flood-opacity="0" result="BackgroundImageFix"/>
<feColorMatrix in="SourceAlpha" type="matrix" values="0 0 0 0 0 0 0 0 0 0 0 0 0 0 0 0 0 0 127 0"/>
<feOffset dy="4"/>
<feGaussianBlur stdDeviation="2"/>
<feColorMatrix type="matrix" values="0 0 0 0 0 0 0 0 0 0 0 0 0 0 0 0 0 0 0.25 0"/>
<feBlend mode="normal" in2="BackgroundImageFix" result="effect1_dropShadow"/>
<feBlend mode="normal" in="SourceGraphic" in2="effect1_dropShadow" result="shape"/>
</filter>
</defs>
</svg>
