<svg width="1083" height="450" viewBox="0 0 1083 450" fill="none" xmlns="http://www.w3.org/2000/svg">
<path d="M77.591 370.495L52.772 368.84L61.045 406.069L89.173 394.487L77.591 370.495Z" fill="#FFB9B9"/>
<path d="M305.1 311.001L247.189 254.744L214.096 280.391L148.739 358.985L156.185 370.567L235.606 316.792L289.381 387.113L340.674 361.467L305.1 311.001Z" fill="#2F2E41"/>
<path opacity="0.1" d="M305.1 311.001L247.189 254.744L214.096 280.391L148.739 358.985L156.185 370.567L235.606 316.792L289.381 387.113L340.674 361.467L305.1 311.001Z" fill="black"/>
<path d="M310.064 338.23L302.618 344.021L242.225 323.338L228.161 317.547L200.032 323.338C200.032 323.338 200.032 300.174 226.506 301.001L253.807 307.62L286.072 310.101L310.064 338.23Z" fill="#FFB9B9"/>
<path d="M363.839 399.451L345.638 411.033H324.128L224.024 373.804L77.591 400.278L73.454 368.84L207.478 310.102L324.956 348.985L363.839 399.451Z" fill="#2F2E41"/>
<path d="M246.361 252.19L233.952 254.672L231.248 251.517C229.107 249.019 227.75 245.946 227.348 242.68C226.946 239.415 227.517 236.104 228.988 233.162V233.162L263.735 187.66C263.735 187.66 273.663 165.323 289.381 174.423C305.1 183.524 276.144 198.415 276.144 198.415L258.771 225.716L260.426 239.78L246.361 252.19Z" fill="#FFB9B9"/>
<path d="M308.924 201.017C326.022 207.352 345.73 196.709 352.942 177.244C360.154 157.779 352.139 136.864 335.041 130.529C317.942 124.194 298.235 134.837 291.023 154.302C283.811 173.767 291.826 194.682 308.924 201.017Z" fill="#FFB9B9"/>
<path d="M310.478 189.728L325.369 225.303L360.943 210.411C360.943 210.411 349.361 182.283 349.361 181.455C349.361 180.628 310.478 189.728 310.478 189.728Z" fill="#FFB9B9"/>
<path d="M408.439 294.97C408.439 314.442 405.37 333.793 399.347 352.311L396.931 359.74L385.349 412.688L372.939 415.997L363.839 404.414L345.638 391.178L332.401 369.668L321.051 350.755L317.51 344.848L305.1 282.8L257.944 256.327L242.225 253.845L245.534 244.744L259.598 225.716L273.663 224.062L277.799 220.752L281.108 222.407L294.345 214.961L298.482 216.616L322.672 218.866L337.365 215.789L358.495 204.446L367.148 205.861L396.931 230.68C404.545 251.259 408.441 273.028 408.439 294.97V294.97Z" fill="#6892FF"/>
<path d="M60.3902 383.305C60.3902 383.305 67.8002 370.747 64.6704 369.28C61.5406 367.814 48.2488 361.969 48.2488 361.969L28.7567 355.509C28.7567 355.509 0.63066 313.708 0.0132905 350.059C-0.60408 386.41 20.4925 395.148 20.4925 395.148C20.4925 395.148 39.308 435.641 49.9662 429.184C60.6244 422.727 71.2895 400.808 71.2895 400.808C71.2895 400.808 52.0695 390.476 60.3902 383.305Z" fill="#2F2E41"/>
<path opacity="0.1" d="M399.413 297.764L367.975 318.447L321.051 360.755L317.51 354.848L307.582 305.21H310.064L335.711 258.054L399.413 297.764Z" fill="black"/>
<path d="M335.711 243.09L310.064 290.246H300.964L295.173 306.792L281.936 310.102L317.51 348.985L367.975 303.483L399.413 282.8L335.711 243.09Z" fill="#6892FF"/>
<path d="M320.374 170.332L321.083 169.534L320.016 169.5L288.516 168.5L288 168.484V169C288 171.059 288.511 174.555 289.516 178.426C290.523 182.302 292.036 186.595 294.063 190.243C296.136 193.975 300.287 196.948 304.46 199.083C308.644 201.223 312.942 202.566 315.415 202.993L315.606 203.026L315.77 202.921L328.27 194.921L328.738 194.622L328.39 194.188C327.075 192.544 323.626 187.736 320.441 181.765C317.337 175.945 319.182 171.672 320.374 170.332Z" fill="#EFF2FF" stroke="#88A2FF"/>
<path d="M320.5 170C325.167 167.167 349.172 157.154 350 163.5C353 186.5 335.833 183.5 328.5 194.5" stroke="#88A2FF"/>
<path d="M341 182C344.314 182 347 178.642 347 174.5C347 170.358 344.314 167 341 167C337.686 167 335 170.358 335 174.5C335 178.642 337.686 182 341 182Z" fill="#FFB9B9"/>
<path d="M299.86 142.16L296.364 143.505C295.826 143.141 295.367 142.673 295.012 142.129C294.658 141.585 294.415 140.976 294.299 140.337C294.183 139.698 294.195 139.042 294.336 138.408C294.476 137.774 294.741 137.175 295.117 136.645L288.656 136.342C292.803 130.819 298.076 126.24 304.125 122.907C310.175 119.574 316.863 117.563 323.747 117.008C330.632 116.453 337.555 117.367 344.06 119.688C350.565 122.009 356.503 125.685 361.482 130.473C361.776 129.46 364.982 131.43 366.291 133.429C366.731 131.78 369.737 139.749 370.8 145.381C371.293 143.506 373.185 146.533 371.527 149.439C372.578 149.285 373.052 151.973 372.239 153.471C373.388 152.931 373.195 156.14 371.948 158.284C373.589 158.138 359.013 180.76 353.112 193.98C351.398 186.107 349.471 177.816 343.946 171.951C343.007 170.954 341.978 170.046 340.951 169.14L335.398 164.237C328.94 158.537 323.065 151.501 314.462 149.371C308.55 147.907 304.812 147.576 308.034 140.914C305.123 142.129 302.404 143.935 299.467 145.064C299.507 144.133 299.917 143.091 299.86 142.16Z" fill="#2F2E41"/>
<path d="M206.439 59.7102H178.439V87.7102H206.439V59.7102Z" fill="#FF4E8D"/>
<path d="M223.439 71.7102H189.439V37.7102H223.439V71.7102ZM190.917 70.2319H221.961V39.1884H190.917V70.2319Z" fill="#3F3D56"/>
<path d="M133.485 241.136L125.797 214.212L98.8727 221.9L106.561 248.824L133.485 241.136Z" fill="#F9A826"/>
<path d="M87.3356 238.029L78 205.336L110.693 196L120.029 228.693L87.3356 238.029ZM79.8273 206.351L88.3512 236.202L118.201 227.678L109.678 197.827L79.8273 206.351Z" fill="#3F3D56"/>
<path d="M74.3754 47.7769L93.4938 27.3199L73.0369 8.20152L53.9185 28.6585L74.3754 47.7769Z" fill="#F9A826"/>
<path d="M54.0006 52.0036L77.2158 27.163L102.056 50.3782L78.8412 75.2188L54.0006 52.0036ZM77.2864 29.2524L56.09 51.933L78.7705 73.1294L99.967 50.4488L77.2864 29.2524Z" fill="#3F3D56"/>
<path d="M1026.23 5.36233H766.062H648.091H386.849C384.538 5.36233 382.25 5.81752 380.114 6.70193C377.979 7.58633 376.039 8.88263 374.405 10.5168C372.771 12.151 371.475 14.091 370.59 16.2262C369.706 18.3613 369.251 20.6498 369.251 22.9608V379.213C369.251 381.524 369.706 383.813 370.59 385.948C371.475 388.083 372.771 390.023 374.405 391.657C376.039 393.291 377.979 394.588 380.114 395.472C382.25 396.356 384.538 396.812 386.849 396.812H1026.23C1030.9 396.812 1035.38 394.957 1038.68 391.657C1041.98 388.357 1043.83 383.88 1043.83 379.213V22.9608C1043.83 20.6498 1043.38 18.3613 1042.49 16.2262C1041.61 14.091 1040.31 12.151 1038.68 10.5168C1037.04 8.88263 1035.1 7.58633 1032.97 6.70193C1030.83 5.81752 1028.54 5.36233 1026.23 5.36233Z" fill="#3F3D56"/>
<path d="M1020.24 36.4638H392.845V390.377H1020.24V36.4638Z" fill="#001241"/>
<path d="M1020.24 36.4638H392.845V390.377H1020.24V36.4638Z" fill="url(#paint0_linear)"/>
<path d="M706 23C707.657 23 709 21.6569 709 20C709 18.3431 707.657 17 706 17C704.343 17 703 18.3431 703 20C703 21.6569 704.343 23 706 23Z" fill="#F9A826"/>
<path d="M1061.01 388.539H999.778V385.586C999.778 385.509 999.755 385.433 999.711 385.361C999.667 385.29 999.603 385.226 999.522 385.171C999.44 385.117 999.344 385.074 999.238 385.045C999.132 385.015 999.018 385 998.903 385H977.91C977.795 385 977.682 385.015 977.575 385.045C977.469 385.074 977.373 385.117 977.292 385.171C977.21 385.226 977.146 385.29 977.102 385.361C977.058 385.433 977.036 385.509 977.036 385.586V388.539H963.915V385.586C963.915 385.509 963.892 385.433 963.848 385.361C963.804 385.29 963.74 385.226 963.659 385.171C963.577 385.117 963.481 385.074 963.375 385.045C963.269 385.015 963.155 385 963.04 385H942.047C941.932 385 941.819 385.015 941.713 385.045C941.606 385.074 941.51 385.117 941.429 385.171C941.347 385.226 941.283 385.29 941.239 385.361C941.195 385.433 941.173 385.509 941.173 385.586V388.539H928.052V385.586C928.052 385.509 928.029 385.433 927.985 385.361C927.942 385.29 927.877 385.226 927.796 385.171C927.715 385.117 927.618 385.074 927.512 385.045C927.406 385.015 927.292 385 927.177 385H906.184C906.069 385 905.956 385.015 905.85 385.045C905.743 385.074 905.647 385.117 905.566 385.171C905.485 385.226 905.42 385.29 905.376 385.361C905.332 385.433 905.31 385.509 905.31 385.586V388.539H892.189V385.586C892.189 385.509 892.167 385.433 892.123 385.361C892.079 385.29 892.014 385.226 891.933 385.171C891.852 385.117 891.755 385.074 891.649 385.045C891.543 385.015 891.429 385 891.314 385H870.322C870.207 385 870.093 385.015 869.987 385.045C869.881 385.074 869.784 385.117 869.703 385.171C869.622 385.226 869.557 385.29 869.513 385.361C869.469 385.433 869.447 385.509 869.447 385.586V388.539H856.326V385.586C856.326 385.509 856.304 385.433 856.26 385.361C856.216 385.29 856.151 385.226 856.07 385.171C855.989 385.117 855.892 385.074 855.786 385.045C855.68 385.015 855.566 385 855.452 385H834.459C834.344 385 834.23 385.015 834.124 385.045C834.018 385.074 833.921 385.117 833.84 385.171C833.759 385.226 833.694 385.29 833.65 385.361C833.607 385.433 833.584 385.509 833.584 385.586V388.539H820.463V385.586C820.463 385.509 820.441 385.433 820.397 385.361C820.353 385.29 820.288 385.226 820.207 385.171C820.126 385.117 820.029 385.074 819.923 385.045C819.817 385.015 819.704 385 819.589 385H798.596C798.481 385 798.367 385.015 798.261 385.045C798.155 385.074 798.058 385.117 797.977 385.171C797.896 385.226 797.832 385.29 797.788 385.361C797.744 385.433 797.721 385.509 797.721 385.586V388.539H784.6V385.586C784.6 385.509 784.578 385.433 784.534 385.361C784.49 385.29 784.426 385.226 784.344 385.171C784.263 385.117 784.167 385.074 784.061 385.045C783.954 385.015 783.841 385 783.726 385H619.281C619.166 385 619.053 385.015 618.947 385.045C618.84 385.074 618.744 385.117 618.663 385.171C618.582 385.226 618.517 385.29 618.473 385.361C618.429 385.433 618.407 385.509 618.407 385.586V388.539H605.286V385.586C605.286 385.509 605.263 385.433 605.219 385.361C605.175 385.29 605.111 385.226 605.03 385.171C604.949 385.117 604.852 385.074 604.746 385.045C604.64 385.015 604.526 385 604.411 385H583.418C583.304 385 583.19 385.015 583.084 385.045C582.978 385.074 582.881 385.117 582.8 385.171C582.719 385.226 582.654 385.29 582.61 385.361C582.566 385.433 582.544 385.509 582.544 385.586V388.539H569.423V385.586C569.423 385.509 569.401 385.433 569.357 385.361C569.313 385.29 569.248 385.226 569.167 385.171C569.086 385.117 568.989 385.074 568.883 385.045C568.777 385.015 568.663 385 568.548 385H547.556C547.441 385 547.327 385.015 547.221 385.045C547.115 385.074 547.018 385.117 546.937 385.171C546.856 385.226 546.791 385.29 546.747 385.361C546.703 385.433 546.681 385.509 546.681 385.586V388.539H533.56V385.586C533.56 385.509 533.538 385.433 533.494 385.361C533.45 385.29 533.385 385.226 533.304 385.171C533.223 385.117 533.126 385.074 533.02 385.045C532.914 385.015 532.8 385 532.686 385H511.693C511.578 385 511.464 385.015 511.358 385.045C511.252 385.074 511.155 385.117 511.074 385.171C510.993 385.226 510.929 385.29 510.885 385.361C510.841 385.433 510.818 385.509 510.818 385.586V388.539H497.697V385.586C497.697 385.509 497.675 385.433 497.631 385.361C497.587 385.29 497.522 385.226 497.441 385.171C497.36 385.117 497.264 385.074 497.157 385.045C497.051 385.015 496.938 385 496.823 385H475.83C475.715 385 475.601 385.015 475.495 385.045C475.389 385.074 475.292 385.117 475.211 385.171C475.13 385.226 475.066 385.29 475.022 385.361C474.978 385.433 474.955 385.509 474.955 385.586V388.539H461.835V385.586C461.835 385.509 461.812 385.433 461.768 385.361C461.724 385.29 461.66 385.226 461.578 385.171C461.497 385.117 461.401 385.074 461.295 385.045C461.188 385.015 461.075 385 460.96 385H439.967C439.852 385 439.738 385.015 439.632 385.045C439.526 385.074 439.43 385.117 439.348 385.171C439.267 385.226 439.203 385.29 439.159 385.361C439.115 385.433 439.092 385.509 439.092 385.586V388.539H425.972V385.586C425.972 385.509 425.949 385.433 425.905 385.361C425.861 385.29 425.797 385.226 425.715 385.171C425.634 385.117 425.538 385.074 425.432 385.045C425.326 385.015 425.212 385 425.097 385H404.104C403.989 385 403.875 385.015 403.769 385.045C403.663 385.074 403.567 385.117 403.486 385.171C403.404 385.226 403.34 385.29 403.296 385.361C403.252 385.433 403.229 385.509 403.229 385.586V388.539H362.993C357.425 388.539 352.086 390.019 348.149 392.655C344.212 395.29 342 398.865 342 402.592V408.947C342 412.674 344.212 416.248 348.149 418.884C352.086 421.519 357.425 423 362.993 423H1061.01C1066.57 423 1071.91 421.519 1075.85 418.884C1079.79 416.248 1082 412.674 1082 408.947V402.592C1082 398.865 1079.79 395.29 1075.85 392.655C1071.91 390.019 1066.57 388.539 1061.01 388.539V388.539Z" fill="#3F3D56"/>
<path fill-rule="evenodd" clip-rule="evenodd" d="M663.276 116.796C678.027 109.061 694.294 104.706 710.898 104.021C713.459 103.915 715.537 106.003 715.537 108.566V108.566C715.537 111.129 713.455 113.196 710.894 113.309C656.022 115.737 612.281 160.992 612.281 216.462C612.281 273.489 658.511 319.719 715.537 319.719C740.029 319.719 762.528 311.192 780.23 296.945C782.226 295.338 785.153 295.515 786.846 297.438V297.438C788.54 299.361 788.359 302.301 786.368 303.913C773.454 314.373 758.368 321.856 742.184 325.8C724.497 330.11 706.028 330.066 688.361 325.669C670.695 321.273 654.359 312.657 640.754 300.559C627.15 288.461 616.684 273.244 610.254 256.212C603.823 239.18 601.621 220.843 603.836 202.773C606.05 184.703 612.616 167.44 622.968 152.465C633.321 137.49 647.153 125.25 663.276 116.796Z" fill="white"/>
<path d="M666.616 228.688C667.192 228.688 667.64 228.832 667.96 229.12C668.28 229.408 668.44 229.808 668.44 230.32C668.44 230.864 668.28 231.28 667.96 231.568C667.672 231.856 667.224 232 666.616 232H650.728C650.12 232 649.656 231.856 649.336 231.568C649.048 231.28 648.904 230.864 648.904 230.32C648.904 229.808 649.064 229.408 649.384 229.12C649.704 228.832 650.152 228.688 650.728 228.688H656.68V202.96L651.448 206.368C651.192 206.528 650.936 206.608 650.68 206.608C650.232 206.608 649.832 206.4 649.48 205.984C649.16 205.568 649 205.12 649 204.64C649 203.968 649.256 203.488 649.768 203.2L657.064 198.448C657.608 198.096 658.168 197.92 658.744 197.92C659.288 197.92 659.736 198.096 660.088 198.448C660.44 198.8 660.616 199.296 660.616 199.936V228.688H666.616ZM687.477 210.784C689.621 210.784 691.493 211.232 693.093 212.128C694.725 213.024 695.973 214.288 696.837 215.92C697.733 217.52 698.181 219.376 698.181 221.488C698.181 223.6 697.701 225.488 696.741 227.152C695.781 228.784 694.437 230.064 692.709 230.992C691.013 231.888 689.045 232.336 686.805 232.336C684.821 232.336 682.885 231.984 680.997 231.28C679.109 230.576 677.509 229.616 676.197 228.4C675.685 227.92 675.429 227.376 675.429 226.768C675.429 226.288 675.557 225.888 675.813 225.568C676.069 225.248 676.373 225.088 676.725 225.088C677.173 225.088 677.621 225.264 678.069 225.616C679.477 226.768 680.885 227.632 682.293 228.208C683.701 228.752 685.173 229.024 686.709 229.024C689.077 229.024 690.933 228.352 692.277 227.008C693.621 225.664 694.293 223.84 694.293 221.536C694.293 219.296 693.621 217.488 692.277 216.112C690.933 214.736 689.125 214.048 686.853 214.048C683.941 214.048 681.573 215.168 679.749 217.408C679.301 217.888 678.757 218.128 678.117 218.128C677.669 218.128 677.285 218 676.965 217.744C676.677 217.456 676.533 217.072 676.533 216.592V200.032C676.533 199.488 676.693 199.04 677.013 198.688C677.365 198.336 677.845 198.16 678.453 198.16H695.349C695.925 198.16 696.373 198.304 696.693 198.592C697.045 198.88 697.221 199.28 697.221 199.792C697.221 200.304 697.045 200.704 696.693 200.992C696.373 201.28 695.925 201.424 695.349 201.424H680.421V213.472C681.317 212.608 682.357 211.952 683.541 211.504C684.757 211.024 686.069 210.784 687.477 210.784ZM706.083 213.52C705.315 213.52 704.675 213.28 704.163 212.8C703.651 212.288 703.395 211.632 703.395 210.832C703.395 210.032 703.651 209.392 704.163 208.912C704.675 208.4 705.315 208.144 706.083 208.144C706.819 208.144 707.427 208.4 707.907 208.912C708.419 209.392 708.675 210.032 708.675 210.832C708.675 211.632 708.419 212.288 707.907 212.8C707.427 213.28 706.819 213.52 706.083 213.52ZM706.083 232.24C705.315 232.24 704.675 232 704.163 231.52C703.651 231.008 703.395 230.352 703.395 229.552C703.395 228.752 703.651 228.096 704.163 227.584C704.675 227.072 705.315 226.816 706.083 226.816C706.819 226.816 707.427 227.072 707.907 227.584C708.419 228.096 708.675 228.752 708.675 229.552C708.675 230.352 708.419 231.008 707.907 231.52C707.427 232 706.819 232.24 706.083 232.24ZM730.443 214.624C732.491 215.2 734.043 216.192 735.099 217.6C736.187 219.008 736.731 220.752 736.731 222.832C736.731 225.776 735.739 228.096 733.755 229.792C731.771 231.488 729.067 232.336 725.643 232.336C723.563 232.336 721.563 231.984 719.643 231.28C717.755 230.576 716.155 229.616 714.843 228.4C714.331 227.92 714.075 227.376 714.075 226.768C714.075 226.288 714.203 225.888 714.459 225.568C714.715 225.248 715.019 225.088 715.371 225.088C715.819 225.088 716.267 225.264 716.715 225.616C718.187 226.8 719.627 227.664 721.035 228.208C722.443 228.752 723.963 229.024 725.595 229.024C727.963 229.024 729.755 228.48 730.971 227.392C732.219 226.304 732.843 224.736 732.843 222.688C732.843 218.56 730.251 216.496 725.067 216.496H722.523C722.011 216.496 721.595 216.336 721.275 216.016C720.987 215.664 720.843 215.264 720.843 214.816C720.843 214.368 720.987 213.984 721.275 213.664C721.595 213.344 722.011 213.184 722.523 213.184H724.299C726.795 213.184 728.715 212.64 730.059 211.552C731.403 210.432 732.075 208.832 732.075 206.752C732.075 204.928 731.531 203.536 730.443 202.576C729.355 201.584 727.819 201.088 725.835 201.088C724.331 201.088 722.875 201.376 721.467 201.952C720.059 202.496 718.651 203.344 717.243 204.496C716.795 204.848 716.347 205.024 715.899 205.024C715.547 205.024 715.243 204.864 714.987 204.544C714.731 204.224 714.603 203.824 714.603 203.344C714.603 202.736 714.859 202.192 715.371 201.712C716.683 200.496 718.267 199.536 720.123 198.832C722.011 198.128 723.947 197.776 725.931 197.776C729.003 197.776 731.435 198.56 733.227 200.128C735.051 201.664 735.963 203.744 735.963 206.368C735.963 208.32 735.467 210.032 734.475 211.504C733.515 212.944 732.171 213.984 730.443 214.624ZM760.569 214.624C762.553 215.232 764.089 216.272 765.177 217.744C766.297 219.216 766.857 220.976 766.857 223.024C766.857 225.936 765.801 228.224 763.689 229.888C761.577 231.52 758.585 232.336 754.713 232.336C750.841 232.336 747.849 231.52 745.737 229.888C743.625 228.224 742.569 225.936 742.569 223.024C742.569 220.944 743.129 219.168 744.249 217.696C745.369 216.224 746.921 215.2 748.905 214.624C747.209 213.984 745.865 212.976 744.873 211.6C743.881 210.224 743.385 208.608 743.385 206.752C743.385 204 744.377 201.824 746.361 200.224C748.377 198.592 751.161 197.776 754.713 197.776C758.265 197.776 761.033 198.592 763.017 200.224C765.033 201.824 766.041 204 766.041 206.752C766.041 208.608 765.545 210.24 764.552 211.648C763.561 213.024 762.233 214.016 760.569 214.624ZM747.273 207.04C747.273 209.024 747.897 210.544 749.145 211.6C750.425 212.656 752.281 213.184 754.713 213.184C757.145 213.184 758.985 212.656 760.233 211.6C761.513 210.544 762.153 209.024 762.153 207.04C762.153 205.152 761.513 203.68 760.233 202.624C758.985 201.568 757.145 201.04 754.713 201.04C752.281 201.04 750.425 201.568 749.145 202.624C747.897 203.68 747.273 205.152 747.273 207.04ZM754.713 229.072C760.217 229.072 762.969 226.976 762.969 222.784C762.969 218.592 760.217 216.496 754.713 216.496C749.209 216.496 746.457 218.592 746.457 222.784C746.457 226.976 749.209 229.072 754.713 229.072Z" fill="white"/>
<path opacity="0.1" d="M840.813 390.377H392.845V36.464L840.813 390.377Z" fill="black"/>
<defs>
<linearGradient id="paint0_linear" x1="706.54" y1="36.4638" x2="706.54" y2="390.377" gradientUnits="userSpaceOnUse">
<stop stop-color="#F9A826"/>
<stop offset="1" stop-color="#FF4E8D"/>
</linearGradient>
</defs>
</svg>
