<svg width="671" height="422" viewBox="0 0 671 422" fill="none" xmlns="http://www.w3.org/2000/svg">
<g clip-path="url(#clip0)">
<path d="M671 173.32H669.867V142.257C669.867 139.896 669.402 137.558 668.499 135.377C667.596 133.196 666.273 131.214 664.604 129.544C662.936 127.875 660.955 126.55 658.775 125.647C656.595 124.744 654.259 124.278 651.899 124.278H586.128C583.768 124.278 581.432 124.744 579.252 125.647C577.072 126.55 575.091 127.875 573.423 129.544C571.754 131.214 570.431 133.196 569.528 135.377C568.625 137.558 568.16 139.896 568.16 142.257V312.67C568.16 315.031 568.625 317.368 569.528 319.55C570.431 321.731 571.754 323.713 573.423 325.382C575.091 327.052 577.072 328.376 579.252 329.279C581.432 330.183 583.768 330.648 586.128 330.648H651.899C654.259 330.648 656.595 330.183 658.775 329.279C660.955 328.376 662.936 327.052 664.604 325.382C666.273 323.713 667.596 321.731 668.499 319.55C669.402 317.368 669.867 315.031 669.867 312.67V195.431H671V173.32Z" fill="#3F3D56"/>
<path d="M666.043 143.313V313.478C666.043 317.039 664.629 320.455 662.113 322.973C659.596 325.491 656.182 326.906 652.623 326.906H586.536C584.774 326.906 583.029 326.558 581.401 325.883C579.773 325.208 578.294 324.219 577.049 322.972C575.803 321.725 574.815 320.245 574.141 318.616C573.468 316.987 573.121 315.241 573.122 313.478V143.313C573.122 139.753 574.535 136.34 577.051 133.823C579.566 131.305 582.978 129.891 586.536 129.891H594.553C594.16 130.86 594.01 131.91 594.118 132.95C594.225 133.99 594.586 134.987 595.169 135.855C595.752 136.723 596.539 137.434 597.46 137.926C598.382 138.418 599.411 138.675 600.456 138.677H638.136C639.182 138.678 640.212 138.423 641.136 137.931C642.06 137.44 642.848 136.729 643.431 135.86C644.015 134.992 644.375 133.993 644.481 132.952C644.587 131.911 644.435 130.86 644.038 129.891H652.623C656.182 129.891 659.594 131.305 662.111 133.822C664.627 136.339 666.042 139.753 666.043 143.313Z" fill="#D0CDE1"/>
<path d="M653.532 217.011H576.707V237.754H653.532V217.011Z" fill="#F9A826"/>
<path d="M656.581 234.094H582.194C581.709 234.093 581.244 233.9 580.902 233.557C580.559 233.214 580.366 232.749 580.365 232.264V213.961C580.366 213.476 580.559 213.011 580.902 212.667C581.244 212.324 581.709 212.131 582.194 212.131H656.581C657.065 212.131 657.53 212.324 657.873 212.667C658.216 213.011 658.409 213.476 658.41 213.961V232.264C658.409 232.749 658.216 233.214 657.873 233.557C657.53 233.9 657.065 234.093 656.581 234.094ZM582.194 213.351C582.033 213.351 581.878 213.415 581.763 213.53C581.649 213.644 581.585 213.799 581.585 213.961V232.264C581.585 232.425 581.649 232.58 581.763 232.695C581.878 232.809 582.033 232.874 582.194 232.874H656.581C656.742 232.874 656.897 232.809 657.012 232.695C657.126 232.58 657.19 232.425 657.19 232.264V213.961C657.19 213.799 657.126 213.644 657.012 213.53C656.897 213.415 656.742 213.351 656.581 213.351H582.194Z" fill="#3F3D56"/>
<path d="M594.999 228.603H585.243V229.823H594.999V228.603Z" fill="#3F3D56"/>
<path d="M608.412 228.603H598.657V229.823H608.412V228.603Z" fill="#3F3D56"/>
<path d="M621.826 228.603H612.071V229.823H621.826V228.603Z" fill="#3F3D56"/>
<path d="M635.24 228.603H625.485V229.823H635.24V228.603Z" fill="#3F3D56"/>
<path d="M648.654 228.603H638.899V229.823H648.654V228.603Z" fill="#3F3D56"/>
<path opacity="0.1" d="M666.043 296.176V313.478C666.043 317.039 664.629 320.455 662.113 322.973C659.596 325.491 656.182 326.906 652.623 326.906H586.536C584.774 326.906 583.029 326.558 581.401 325.883C579.773 325.208 578.294 324.219 577.049 322.972C575.803 321.725 574.815 320.245 574.141 318.616C573.468 316.987 573.121 315.241 573.122 313.478V233.886L666.043 296.176Z" fill="black"/>
<path d="M349.28 280.46H60.8816V422H349.28V280.46Z" fill="#D0CDE1"/>
<path opacity="0.1" d="M275.961 422H62.101C61.7779 421.999 61.4683 421.87 61.2398 421.642C61.0113 421.413 60.8825 421.103 60.8816 420.78V281.68C60.8825 281.357 61.0113 281.047 61.2398 280.819C61.4683 280.59 61.7779 280.461 62.101 280.46H64.8082L275.961 422Z" fill="black"/>
<path d="M641.337 299.373H194.411V300.593H641.337V299.373Z" fill="#3F3D56"/>
<path d="M335.709 2.6342H207.978V0H150.06V2.6342H21.8032C20.6686 2.6342 19.5451 2.85781 18.4968 3.29227C17.4486 3.72673 16.4961 4.36353 15.6938 5.1663C14.8915 5.96908 14.2551 6.92211 13.8209 7.97099C13.3867 9.01987 13.1632 10.1441 13.1632 11.2793V186.286C13.1632 188.579 14.0735 190.778 15.6938 192.399C17.3141 194.02 19.5117 194.931 21.8032 194.931H335.709C338 194.931 340.198 194.02 341.818 192.399C343.439 190.778 344.349 188.579 344.349 186.286V11.2793C344.349 10.1441 344.126 9.01987 343.691 7.97099C343.257 6.92211 342.621 5.96908 341.818 5.1663C341.016 4.36353 340.064 3.72673 339.015 3.29227C337.967 2.85781 336.844 2.6342 335.709 2.6342V2.6342Z" fill="#3F3D56"/>
<path d="M332.763 17.9101H24.7494V191.772H332.763V17.9101Z" fill="#D0CDE1"/>
<path d="M178.493 13.171C180.238 13.171 181.652 11.7558 181.652 10.01C181.652 8.26417 180.238 6.84892 178.493 6.84892C176.748 6.84892 175.334 8.26417 175.334 10.01C175.334 11.7558 176.748 13.171 178.493 13.171Z" fill="#F9A826"/>
<path d="M116.366 82.7927H109.05C108.565 82.7922 108.1 82.5992 107.757 82.256C107.414 81.9129 107.221 81.4477 107.221 80.9624V73.6414C107.221 73.1562 107.414 72.6909 107.757 72.3478C108.1 72.0047 108.565 71.8117 109.05 71.8112H116.366C116.851 71.8117 117.316 72.0047 117.659 72.3478C118.002 72.6909 118.195 73.1562 118.196 73.6414V80.9624C118.195 81.4477 118.002 81.9129 117.659 82.256C117.316 82.5992 116.851 82.7922 116.366 82.7927V82.7927ZM109.05 73.0313C108.888 73.0315 108.733 73.0959 108.619 73.2103C108.504 73.3246 108.44 73.4797 108.44 73.6414V80.9624C108.44 81.1242 108.504 81.2792 108.619 81.3936C108.733 81.508 108.888 81.5723 109.05 81.5725H116.366C116.528 81.5723 116.683 81.508 116.797 81.3936C116.912 81.2792 116.976 81.1242 116.976 80.9624V73.6414C116.976 73.4797 116.912 73.3246 116.797 73.2103C116.683 73.0959 116.528 73.0315 116.366 73.0313H109.05Z" fill="#3F3D56"/>
<path d="M246.847 81.5725H107.83V82.7927H246.847V81.5725Z" fill="#3F3D56"/>
<path d="M243.189 115.127H210.873V124.889H243.189V115.127Z" fill="#F9A826"/>
<path d="M245.628 122.448H215.751C215.266 122.448 214.801 122.255 214.458 121.912C214.115 121.568 213.922 121.103 213.922 120.618V113.297C213.922 112.812 214.115 112.346 214.458 112.003C214.801 111.66 215.266 111.467 215.751 111.467H245.628C246.112 111.467 246.577 111.66 246.92 112.003C247.263 112.346 247.456 112.812 247.457 113.297V120.618C247.456 121.103 247.263 121.568 246.92 121.912C246.577 122.255 246.112 122.448 245.628 122.448V122.448ZM215.751 112.687C215.589 112.687 215.434 112.751 215.32 112.866C215.206 112.98 215.142 113.135 215.141 113.297V120.618C215.142 120.78 215.206 120.935 215.32 121.049C215.434 121.164 215.589 121.228 215.751 121.228H245.628C245.789 121.228 245.944 121.164 246.058 121.049C246.173 120.935 246.237 120.78 246.237 120.618V113.297C246.237 113.135 246.173 112.98 246.058 112.866C245.944 112.751 245.789 112.687 245.628 112.687H215.751Z" fill="#3F3D56"/>
<path d="M490.126 126.109H429.154V168.815H490.126V126.109Z" fill="#F9A826"/>
<path d="M496.223 165.459H437.69C437.043 165.459 436.424 165.201 435.966 164.744C435.509 164.286 435.252 163.666 435.251 163.019V122.753C435.252 122.106 435.509 121.486 435.966 121.028C436.424 120.571 437.043 120.314 437.69 120.313H496.223C496.87 120.314 497.49 120.571 497.947 121.028C498.404 121.486 498.662 122.106 498.662 122.753V163.019C498.662 163.666 498.404 164.286 497.947 164.744C497.49 165.201 496.87 165.459 496.223 165.459V165.459ZM437.69 122.753V163.019H496.225L496.223 122.753H437.69Z" fill="#3F3D56"/>
<path d="M489.517 121.228H487.078C487.078 115.889 484.958 110.768 481.184 106.992C477.411 103.216 472.293 101.095 466.957 101.095C461.62 101.095 456.503 103.216 452.729 106.992C448.956 110.768 446.836 115.889 446.836 121.228H444.397C444.397 115.241 446.774 109.5 451.005 105.266C455.235 101.033 460.974 98.6549 466.957 98.6549C472.94 98.6549 478.678 101.033 482.909 105.266C487.14 109.5 489.517 115.241 489.517 121.228V121.228Z" fill="#3F3D56"/>
<path d="M473.054 138.005C473.055 136.943 472.779 135.899 472.253 134.976C471.727 134.053 470.969 133.284 470.055 132.744C469.141 132.204 468.101 131.912 467.039 131.898C465.978 131.884 464.931 132.147 464.002 132.662C463.073 133.176 462.295 133.925 461.744 134.833C461.193 135.741 460.889 136.778 460.861 137.84C460.834 138.902 461.084 139.953 461.587 140.888C462.09 141.824 462.828 142.612 463.729 143.174V149.723C463.729 150.147 463.812 150.567 463.975 150.959C464.137 151.35 464.375 151.707 464.674 152.006C464.974 152.306 465.33 152.544 465.722 152.707C466.113 152.869 466.533 152.952 466.957 152.952V152.952C467.813 152.952 468.634 152.612 469.239 152.006C469.845 151.401 470.185 150.579 470.185 149.723V143.174C471.062 142.628 471.786 141.866 472.288 140.962C472.79 140.057 473.054 139.04 473.054 138.005V138.005Z" fill="#3F3D56"/>
<path d="M183.131 343.299H173.375V344.519H183.131V343.299Z" fill="#3F3D56"/>
<path d="M196.545 343.299H186.789V344.519H196.545V343.299Z" fill="#3F3D56"/>
<path d="M209.959 343.299H200.203V344.519H209.959V343.299Z" fill="#3F3D56"/>
<path d="M223.373 343.299H213.617V344.519H223.373V343.299Z" fill="#3F3D56"/>
<path d="M236.786 343.299H227.031V344.519H236.786V343.299Z" fill="#3F3D56"/>
<path d="M362.084 411.629H76.1247C75.4781 411.628 74.8581 411.371 74.4009 410.913C73.9437 410.456 73.6865 409.835 73.6858 409.188V270.089C73.6865 269.442 73.9437 268.822 74.4009 268.364C74.8581 267.907 75.4781 267.649 76.1247 267.649H362.084C362.731 267.649 363.351 267.906 363.808 268.364C364.265 268.822 364.523 269.442 364.523 270.089V409.188C364.523 409.835 364.265 410.456 363.808 410.913C363.351 411.371 362.731 411.628 362.084 411.629V411.629ZM76.1247 270.089V409.188H362.086L362.084 270.089H76.1247Z" fill="#3F3D56"/>
<path d="M88.9288 290.832C90.9493 290.832 92.5872 289.193 92.5872 287.171C92.5872 285.15 90.9493 283.511 88.9288 283.511C86.9084 283.511 85.2705 285.15 85.2705 287.171C85.2705 289.193 86.9084 290.832 88.9288 290.832Z" fill="#3F3D56"/>
<path d="M101.733 290.832C103.753 290.832 105.391 289.193 105.391 287.171C105.391 285.15 103.753 283.511 101.733 283.511C99.7125 283.511 98.0746 285.15 98.0746 287.171C98.0746 289.193 99.7125 290.832 101.733 290.832Z" fill="#3F3D56"/>
<path d="M114.537 290.832C116.558 290.832 118.195 289.193 118.195 287.171C118.195 285.15 116.558 283.511 114.537 283.511C112.517 283.511 110.879 285.15 110.879 287.171C110.879 289.193 112.517 290.832 114.537 290.832Z" fill="#3F3D56"/>
<path d="M246.237 351.84H163.925C163.44 351.84 162.975 351.647 162.632 351.304C162.289 350.96 162.096 350.495 162.096 350.01V329.267C162.096 328.782 162.289 328.317 162.632 327.973C162.975 327.63 163.44 327.437 163.925 327.437H246.237C246.722 327.437 247.187 327.63 247.53 327.973C247.873 328.317 248.066 328.782 248.066 329.267V350.01C248.066 350.495 247.873 350.96 247.53 351.304C247.187 351.647 246.722 351.84 246.237 351.84V351.84ZM163.925 328.657C163.763 328.657 163.608 328.721 163.494 328.836C163.379 328.95 163.315 329.105 163.315 329.267V350.01C163.315 350.172 163.379 350.327 163.494 350.441C163.608 350.556 163.763 350.62 163.925 350.62H246.237C246.399 350.62 246.554 350.556 246.668 350.441C246.782 350.327 246.847 350.172 246.847 350.01V329.267C246.847 329.105 246.782 328.95 246.668 328.836C246.554 328.721 246.399 328.657 246.237 328.657H163.925Z" fill="#3F3D56"/>
<path d="M266.968 352.45C273.029 352.45 277.943 347.534 277.943 341.469C277.943 335.404 273.029 330.487 266.968 330.487C260.906 330.487 255.993 335.404 255.993 341.469C255.993 347.534 260.906 352.45 266.968 352.45Z" fill="#F9A826"/>
<path d="M270.626 351.23C268.335 351.23 266.095 350.55 264.19 349.277C262.285 348.003 260.8 346.192 259.923 344.074C259.046 341.956 258.817 339.626 259.264 337.377C259.711 335.129 260.814 333.063 262.435 331.442C264.055 329.821 266.119 328.717 268.366 328.27C270.613 327.822 272.943 328.052 275.059 328.929C277.176 329.807 278.986 331.292 280.258 333.199C281.531 335.105 282.211 337.346 282.211 339.638C282.207 342.712 280.986 345.658 278.814 347.831C276.642 350.004 273.698 351.227 270.626 351.23V351.23ZM270.626 329.267C268.576 329.267 266.572 329.875 264.868 331.015C263.163 332.155 261.834 333.774 261.05 335.669C260.265 337.565 260.06 339.65 260.46 341.662C260.86 343.674 261.847 345.522 263.297 346.972C264.746 348.423 266.593 349.41 268.604 349.811C270.615 350.211 272.699 350.005 274.593 349.22C276.487 348.435 278.106 347.106 279.245 345.401C280.383 343.695 280.991 341.69 280.991 339.638C280.988 336.889 279.895 334.253 277.952 332.308C276.009 330.364 273.374 329.27 270.626 329.267V329.267Z" fill="#3F3D56"/>
<path d="M270.789 343.968L264.886 338.061L266.61 336.336L270.463 340.19L281.214 324.904L283.208 326.309L270.789 343.968Z" fill="#3F3D56"/>
<path opacity="0.1" d="M264.474 191.772H24.7493V31.082L264.474 191.772Z" fill="black"/>
<path d="M352.997 188.609H322.937V186.442C322.937 186.385 322.926 186.329 322.904 186.277C322.883 186.225 322.851 186.178 322.811 186.138C322.771 186.098 322.724 186.066 322.672 186.045C322.62 186.023 322.564 186.012 322.507 186.012H312.201C312.144 186.012 312.089 186.023 312.037 186.045C311.984 186.066 311.937 186.098 311.897 186.138C311.857 186.178 311.826 186.225 311.804 186.277C311.783 186.329 311.771 186.385 311.771 186.442V188.609H305.33V186.442C305.33 186.385 305.319 186.329 305.297 186.277C305.276 186.225 305.244 186.178 305.204 186.138C305.164 186.098 305.117 186.066 305.065 186.045C305.013 186.023 304.957 186.012 304.9 186.012H294.594C294.538 186.012 294.482 186.023 294.43 186.045C294.378 186.066 294.33 186.098 294.29 186.138C294.25 186.178 294.219 186.225 294.197 186.277C294.176 186.329 294.165 186.385 294.165 186.442V188.609H287.723V186.442C287.723 186.385 287.712 186.329 287.69 186.277C287.669 186.225 287.637 186.178 287.597 186.138C287.557 186.098 287.51 186.066 287.458 186.045C287.406 186.023 287.35 186.012 287.294 186.012H276.987C276.931 186.012 276.875 186.023 276.823 186.045C276.771 186.066 276.723 186.098 276.683 186.138C276.644 186.178 276.612 186.225 276.59 186.277C276.569 186.329 276.558 186.385 276.558 186.442V188.609H270.116V186.442C270.116 186.385 270.105 186.329 270.083 186.277C270.062 186.225 270.03 186.178 269.99 186.138C269.95 186.098 269.903 186.066 269.851 186.045C269.799 186.023 269.743 186.012 269.687 186.012H259.38C259.324 186.012 259.268 186.023 259.216 186.045C259.164 186.066 259.116 186.098 259.076 186.138C259.037 186.178 259.005 186.225 258.983 186.277C258.962 186.329 258.951 186.385 258.951 186.442V188.609H252.509V186.442C252.509 186.385 252.498 186.329 252.476 186.277C252.455 186.225 252.423 186.178 252.383 186.138C252.343 186.098 252.296 186.066 252.244 186.045C252.192 186.023 252.136 186.012 252.08 186.012H241.773C241.717 186.012 241.661 186.023 241.609 186.045C241.557 186.066 241.509 186.098 241.47 186.138C241.43 186.178 241.398 186.225 241.376 186.277C241.355 186.329 241.344 186.385 241.344 186.442V188.609H234.902V186.442C234.902 186.385 234.891 186.329 234.87 186.277C234.848 186.225 234.816 186.178 234.776 186.138C234.737 186.098 234.689 186.066 234.637 186.045C234.585 186.023 234.529 186.012 234.473 186.012H224.166C224.11 186.012 224.054 186.023 224.002 186.045C223.95 186.066 223.902 186.098 223.863 186.138C223.823 186.178 223.791 186.225 223.77 186.277C223.748 186.329 223.737 186.385 223.737 186.442V188.609H217.295V186.442C217.295 186.385 217.284 186.329 217.263 186.277C217.241 186.225 217.209 186.178 217.17 186.138C217.13 186.098 217.082 186.066 217.03 186.045C216.978 186.023 216.922 186.012 216.866 186.012H136.132C136.075 186.012 136.019 186.023 135.967 186.045C135.915 186.066 135.868 186.098 135.828 186.138C135.788 186.178 135.756 186.225 135.735 186.277C135.713 186.329 135.702 186.385 135.702 186.442V188.609H129.261V186.442C129.261 186.385 129.25 186.329 129.228 186.277C129.206 186.225 129.175 186.178 129.135 186.138C129.095 186.098 129.048 186.066 128.996 186.045C128.943 186.023 128.888 186.012 128.831 186.012H118.525C118.468 186.012 118.412 186.023 118.36 186.045C118.308 186.066 118.261 186.098 118.221 186.138C118.181 186.178 118.15 186.225 118.128 186.277C118.106 186.329 118.095 186.385 118.095 186.442V188.609H111.654V186.442C111.654 186.385 111.643 186.329 111.621 186.277C111.599 186.225 111.568 186.178 111.528 186.138C111.488 186.098 111.441 186.066 111.389 186.045C111.336 186.023 111.281 186.012 111.224 186.012H100.918C100.861 186.012 100.806 186.023 100.753 186.045C100.701 186.066 100.654 186.098 100.614 186.138C100.574 186.178 100.543 186.225 100.521 186.277C100.499 186.329 100.488 186.385 100.488 186.442V188.609H94.0468V186.442C94.0468 186.385 94.0357 186.329 94.0141 186.277C93.9925 186.225 93.9609 186.178 93.921 186.138C93.8811 186.098 93.8338 186.066 93.7817 186.045C93.7296 186.023 93.6737 186.012 93.6173 186.012H83.3108C83.2544 186.012 83.1986 186.023 83.1465 186.045C83.0944 186.066 83.0471 186.098 83.0072 186.138C82.9673 186.178 82.9357 186.225 82.9141 186.277C82.8925 186.329 82.8814 186.385 82.8814 186.442V188.609H76.4398V186.442C76.4398 186.385 76.4287 186.329 76.4072 186.277C76.3856 186.225 76.3539 186.178 76.3141 186.138C76.2742 186.098 76.2268 186.066 76.1747 186.045C76.1226 186.023 76.0668 186.012 76.0104 186.012H65.7039C65.6475 186.012 65.5917 186.023 65.5395 186.045C65.4874 186.066 65.4401 186.098 65.4002 186.138C65.3603 186.178 65.3287 186.225 65.3071 186.277C65.2856 186.329 65.2744 186.385 65.2745 186.442V188.609H58.8329V186.442C58.8329 186.385 58.8218 186.329 58.8002 186.277C58.7787 186.225 58.747 186.178 58.7072 186.138C58.6673 186.098 58.6199 186.066 58.5678 186.045C58.5157 186.023 58.4599 186.012 58.4035 186.012H48.097C48.0406 186.012 47.9847 186.023 47.9326 186.045C47.8805 186.066 47.8332 186.098 47.7933 186.138C47.7534 186.178 47.7218 186.225 47.7002 186.277C47.6786 186.329 47.6675 186.385 47.6675 186.442V188.609H41.226V186.442C41.226 186.385 41.2149 186.329 41.1933 186.277C41.1717 186.225 41.1401 186.178 41.1002 186.138C41.0603 186.098 41.013 186.066 40.9609 186.045C40.9088 186.023 40.8529 186.012 40.7965 186.012H30.49C30.4337 186.012 30.3778 186.023 30.3257 186.045C30.2736 186.066 30.2263 186.098 30.1864 186.138C30.1465 186.178 30.1149 186.225 30.0933 186.277C30.0717 186.329 30.0606 186.385 30.0606 186.442V188.609H10.3065C8.95302 188.609 7.61281 188.876 6.36237 189.394C5.11192 189.912 3.97575 190.672 3.0187 191.629C2.06165 192.587 1.30248 193.724 0.784533 194.975C0.266584 196.226 -8.00697e-07 197.567 0 198.922V203.585C6.46833e-06 206.32 1.08587 208.943 3.01871 210.877C4.95155 212.811 7.57305 213.897 10.3065 213.897H352.997C354.351 213.897 355.691 213.631 356.942 213.112C358.192 212.594 359.328 211.834 360.285 210.877C361.242 209.919 362.001 208.782 362.519 207.531C363.037 206.28 363.304 204.939 363.304 203.585V198.922C363.304 197.567 363.037 196.226 362.519 194.975C362.001 193.724 361.242 192.587 360.285 191.629C359.328 190.672 358.192 189.912 356.942 189.394C355.691 188.876 354.351 188.609 352.997 188.609V188.609Z" fill="#3F3D56"/>
<path d="M259.041 132.82H98.0747C97.5897 132.819 97.1248 132.626 96.7818 132.283C96.4389 131.94 96.246 131.475 96.2455 130.989V63.8801C96.246 63.3948 96.4389 62.9296 96.7818 62.5865C97.1248 62.2433 97.5897 62.0503 98.0747 62.0498H259.041C259.526 62.0503 259.991 62.2433 260.334 62.5865C260.677 62.9296 260.87 63.3948 260.871 63.8801V130.989C260.87 131.475 260.677 131.94 260.334 132.283C259.991 132.626 259.526 132.819 259.041 132.82V132.82ZM98.0747 63.27C97.913 63.2702 97.7581 63.3345 97.6438 63.4489C97.5295 63.5633 97.4652 63.7183 97.465 63.8801V130.989C97.4652 131.151 97.5295 131.306 97.6438 131.421C97.7581 131.535 97.913 131.599 98.0747 131.6H259.041C259.203 131.599 259.358 131.535 259.472 131.421C259.587 131.306 259.651 131.151 259.651 130.989V63.8801C259.651 63.7183 259.587 63.5633 259.472 63.4489C259.358 63.3345 259.203 63.2702 259.041 63.27H98.0747Z" fill="#3F3D56"/>
<path d="M116.366 101.095H109.05C108.565 101.095 108.1 100.902 107.757 100.559C107.414 100.215 107.221 99.7503 107.221 99.265V91.944C107.221 91.4587 107.414 90.9935 107.757 90.6504C108.1 90.3072 108.565 90.1142 109.05 90.1137H116.366C116.851 90.1142 117.316 90.3072 117.659 90.6504C118.002 90.9935 118.195 91.4587 118.196 91.944V99.265C118.195 99.7503 118.002 100.215 117.659 100.559C117.316 100.902 116.851 101.095 116.366 101.095V101.095ZM109.05 91.3339C108.888 91.3341 108.733 91.3984 108.619 91.5128C108.504 91.6272 108.44 91.7822 108.44 91.944V99.265C108.44 99.4267 108.504 99.5818 108.619 99.6962C108.733 99.8105 108.888 99.8749 109.05 99.8751H116.366C116.528 99.8749 116.683 99.8105 116.797 99.6962C116.912 99.5818 116.976 99.4267 116.976 99.265V91.944C116.976 91.7822 116.912 91.6272 116.797 91.5128C116.683 91.3984 116.528 91.3341 116.366 91.3339H109.05Z" fill="#3F3D56"/>
<path d="M246.847 99.8751H107.83V101.095H246.847V99.8751Z" fill="#3F3D56"/>
<path d="M608.412 164.544H161.486V165.764H608.412V164.544Z" fill="#3F3D56"/>
<path d="M161.486 173.085C166.2 173.085 170.022 169.261 170.022 164.544C170.022 159.827 166.2 156.003 161.486 156.003C156.771 156.003 152.95 159.827 152.95 164.544C152.95 169.261 156.771 173.085 161.486 173.085Z" fill="#3F3D56"/>
<path d="M608.412 172.475C612.117 172.475 615.119 169.471 615.119 165.764C615.119 162.058 612.117 159.053 608.412 159.053C604.708 159.053 601.705 162.058 601.705 165.764C601.705 169.471 604.708 172.475 608.412 172.475Z" fill="#3F3D56"/>
<path d="M641.337 307.304C645.042 307.304 648.044 304.299 648.044 300.593C648.044 296.887 645.042 293.882 641.337 293.882C637.633 293.882 634.63 296.887 634.63 300.593C634.63 304.299 637.633 307.304 641.337 307.304Z" fill="#3F3D56"/>
<path d="M196.24 307.304C199.944 307.304 202.947 304.299 202.947 300.593C202.947 296.887 199.944 293.882 196.24 293.882C192.536 293.882 189.533 296.887 189.533 300.593C189.533 304.299 192.536 307.304 196.24 307.304Z" fill="#3F3D56"/>
</g>
<defs>
<clipPath id="clip0">
<rect width="671" height="422" fill="white"/>
</clipPath>
</defs>
</svg>
