<svg width="453" height="337" viewBox="0 0 453 337" fill="none" xmlns="http://www.w3.org/2000/svg">
  <g clip-path="url(#clip0)">
    <path opacity="0.1" d="M45.5651 33.7445C42.7457 34.9139 39.8521 36.415 38.3027 39.0463C36.6617 41.8259 36.8581 45.2776 37.1636 48.4936C39.8259 76.386 46.8395 106.05 34.7283 131.316C28.8494 143.573 19.0164 153.396 11.1954 164.527C3.37433 175.659 -2.53072 189.557 1.10047 202.652C5.53472 218.654 22.0846 227.525 33.24 239.839C40.5417 247.89 45.6611 257.674 52.474 266.143C59.2868 274.613 68.6223 282.075 79.4985 282.573C95.1405 283.293 107.867 269.787 123.204 266.658C138.916 263.455 154.737 271.607 167.476 281.364C180.216 291.121 191.804 302.942 206.647 309.034C223.04 315.767 241.519 314.737 258.775 318.782C274.487 322.469 288.951 330.311 304.549 334.491C320.148 338.672 338.43 338.419 350.516 327.741C366.267 313.777 365.027 288.904 375.087 270.433C384.431 253.271 402.723 243.025 415.035 227.852C437.188 200.545 436.464 158.807 417.653 129.108C398.843 99.4086 364.77 81.426 329.929 76.7438C314.217 74.6362 298.038 74.9242 282.933 70.1285C242.501 57.2994 218.44 11.3328 177.161 1.76767C150.922 -4.30216 125.403 6.20986 103.053 19.1481C83.6534 30.3801 65.7549 25.3706 45.5651 33.7445Z" fill="#F94E83" />
    <path d="M84.9664 123.853C84.9664 123.853 70.0707 137.909 54.0838 138.328C47.3705 138.461 40.8817 140.769 35.5918 144.904C33.0914 146.88 30.7773 149.081 28.6786 151.48" stroke="#535461" stroke-width="2" stroke-miterlimit="10" />
    <path d="M18.5968 151.824C20.7441 150.733 28.9404 151.458 28.9404 151.458C28.9404 151.458 24.6895 158.505 22.5422 159.596C22.0279 159.901 21.4565 160.097 20.8634 160.172C20.2703 160.246 19.6681 160.199 19.0942 160.031C18.5203 159.864 17.9869 159.58 17.5271 159.198C17.0673 158.816 16.691 158.344 16.4213 157.81C16.1517 157.277 15.9945 156.694 15.9597 156.097C15.9248 155.5 16.0128 154.903 16.2185 154.342C16.4241 153.78 16.7428 153.267 17.1549 152.834C17.567 152.401 18.0638 152.057 18.6142 151.824H18.5968Z" fill="#F9A826" />
    <path d="M27.2252 139.366C29.6213 139.619 36.1068 144.681 36.1068 144.681C36.1068 144.681 28.6873 148.285 26.3131 148.037C25.2023 147.869 24.199 147.279 23.5119 146.391C22.8249 145.502 22.5071 144.383 22.6246 143.266C22.7421 142.149 23.2859 141.12 24.1428 140.393C24.9998 139.667 26.1038 139.299 27.2252 139.366Z" fill="#F9A826" />
    <path d="M47.6856 129.325C49.6234 130.752 52.6698 138.397 52.6698 138.397C52.6698 138.397 44.4603 137.773 42.5225 136.351C41.6491 135.645 41.0812 134.63 40.937 133.517C40.7929 132.404 41.0834 131.277 41.7483 130.373C42.4132 129.468 43.4012 128.854 44.507 128.659C45.6128 128.464 46.7512 128.703 47.6856 129.325Z" fill="#F9A826" />
    <path d="M64.877 125.219C67.0287 126.297 71.3233 133.318 71.3233 133.318C71.3233 133.318 63.1269 134.09 60.9752 133.013C60.4323 132.776 59.9434 132.431 59.5382 131.999C59.133 131.567 58.82 131.057 58.6182 130.5C58.4165 129.943 58.3302 129.351 58.3648 128.759C58.3993 128.168 58.5538 127.59 58.819 127.06C59.0841 126.531 59.4544 126.061 59.9071 125.679C60.3598 125.297 60.8856 125.011 61.4524 124.839C62.0192 124.666 62.6151 124.611 63.2039 124.677C63.7926 124.742 64.3619 124.927 64.877 125.219Z" fill="#F9A826" />
    <path d="M40.6676 152.627C41.3834 150.328 39.2885 142.368 39.2885 142.368C39.2885 142.368 33.0561 147.744 32.3403 150.044C32.1386 150.599 32.0517 151.189 32.0848 151.779C32.1179 152.368 32.2704 152.945 32.533 153.474C32.7956 154.003 33.1629 154.473 33.6125 154.856C34.0622 155.239 34.5849 155.527 35.149 155.702C35.7131 155.877 36.3069 155.935 36.8944 155.874C37.4819 155.813 38.0508 155.633 38.5667 155.346C39.0827 155.058 39.5349 154.669 39.896 154.202C40.2572 153.735 40.5196 153.199 40.6676 152.627Z" fill="#F9A826" />
    <path d="M60.7134 147.552C60.7134 145.144 56.3271 138.179 56.3271 138.179C56.3271 138.179 51.9889 145.161 51.9933 147.579C51.9967 148.736 52.4599 149.844 53.2808 150.66C54.1018 151.476 55.2133 151.933 56.3708 151.929C57.5283 151.926 58.637 151.463 59.453 150.642C60.2691 149.821 60.7256 148.71 60.7221 147.552H60.7134Z" fill="#F9A826" />
    <path d="M79.5196 139.977C79.9212 137.603 76.7788 129.997 76.7788 129.997C76.7788 129.997 71.3189 136.159 70.9217 138.533C70.7876 139.646 71.0876 140.769 71.7594 141.667C72.4312 142.566 73.4232 143.171 74.5295 143.357C75.6359 143.544 76.7715 143.297 77.7007 142.668C78.6299 142.04 79.2813 141.078 79.5196 139.981V139.977Z" fill="#F9A826" />
    <path d="M104.323 86.6315C104.323 86.6315 86.3805 76.7783 81.0472 61.6845C78.8561 55.3375 74.6644 49.8726 69.1018 46.1106C66.4473 44.3446 63.6365 42.8255 60.7046 41.5724" stroke="#535461" stroke-width="2" stroke-miterlimit="10" />
    <path d="M57.3004 32.0815C58.9981 33.7877 60.8268 41.8125 60.8268 41.8125C60.8268 41.8125 52.8138 39.9361 51.116 38.2255C50.3663 37.3931 49.9654 36.3042 49.9965 35.1845C50.0276 34.0647 50.4882 32.9997 51.283 32.2102C52.0778 31.4206 53.1458 30.9668 54.266 30.9429C55.3861 30.9189 56.4726 31.3266 57.3004 32.0815Z" fill="#F9A826" />
    <path d="M71.8121 36.4583C72.3096 38.8146 69.4858 46.5426 69.4858 46.5426C69.4858 46.5426 63.7816 40.6125 63.284 38.2517C63.1363 37.6808 63.1059 37.0859 63.1946 36.5029C63.2833 35.9199 63.4893 35.3609 63.8001 34.8597C64.1109 34.3585 64.5201 33.9255 65.0029 33.5868C65.4858 33.2482 66.0323 33.0109 66.6094 32.8893C67.1865 32.7677 67.7823 32.7643 68.3608 32.8793C68.9393 32.9944 69.4885 33.2254 69.9751 33.5586C70.4618 33.8918 70.8759 34.3201 71.1923 34.8177C71.5088 35.3153 71.7211 35.8719 71.8164 36.4539L71.8121 36.4583Z" fill="#F9A826" />
    <path d="M87.6549 52.8612C86.8955 55.1434 80.554 60.3928 80.554 60.3928C80.554 60.3928 78.6249 52.3943 79.3843 50.1077C79.7495 49.0083 80.5366 48.0989 81.5724 47.5797C82.6082 47.0604 83.8079 46.9739 84.9075 47.339C86.0071 47.7041 86.9167 48.4911 87.436 49.5267C87.9553 50.5623 88.0419 51.7617 87.6767 52.8612H87.6549Z" fill="#F9A826" />
    <path d="M96.8551 67.9376C96.4928 70.3158 91.129 76.5602 91.129 76.5602C91.129 76.5602 87.8731 69.0023 88.2354 66.6242C88.2957 66.0364 88.4748 65.4671 88.7618 64.9506C89.0488 64.4341 89.4377 63.9813 89.905 63.6196C90.3722 63.2579 90.9081 62.9948 91.48 62.8463C92.052 62.6978 92.6482 62.667 93.2324 62.7557C93.8166 62.8444 94.3767 63.0508 94.8788 63.3625C95.3809 63.6741 95.8144 64.0844 96.1532 64.5685C96.4919 65.0526 96.7288 65.6005 96.8494 66.1789C96.9701 66.7572 96.972 67.3541 96.8551 67.9333V67.9376Z" fill="#F9A826" />
    <path d="M63.3189 53.3281C65.7281 53.3019 72.6588 48.8598 72.6588 48.8598C72.6588 48.8598 65.6277 44.5834 63.2185 44.6096C62.061 44.6229 60.9562 45.0954 60.1471 45.9231C59.3381 46.7509 58.891 47.8661 58.9043 49.0234C58.9176 50.1807 59.3902 51.2853 60.2181 52.0943C61.046 52.9032 62.1614 53.3502 63.3189 53.3369V53.3281Z" fill="#F9A826" />
    <path d="M74.2998 70.8438C76.5867 70.0976 81.8721 63.7878 81.8721 63.7878C81.8721 63.7878 73.8808 61.811 71.5939 62.5572C71.0295 62.7183 70.5034 62.9914 70.0471 63.3604C69.5908 63.7294 69.2136 64.1866 68.938 64.7047C68.6625 65.2228 68.4943 65.7912 68.4435 66.3758C68.3927 66.9604 68.4604 67.5492 68.6425 68.107C68.8245 68.6649 69.1173 69.1802 69.5031 69.6224C69.889 70.0645 70.3601 70.4243 70.8882 70.6802C71.4164 70.9361 71.9907 71.0828 72.5769 71.1117C73.1631 71.1406 73.7491 71.0509 74.2998 70.8481V70.8438Z" fill="#F9A826" />
    <path d="M87.3057 86.4045C89.6887 86.0554 95.9647 80.7318 95.9647 80.7318C95.9647 80.7318 88.423 77.4329 86.0444 77.782C85.4586 77.8423 84.8911 78.0206 84.376 78.3061C83.8609 78.5915 83.4089 78.9783 83.0473 79.443C82.6857 79.9077 82.4218 80.4408 82.2717 81.0102C82.1215 81.5795 82.0882 82.1734 82.1737 82.7559C82.2592 83.3385 82.4617 83.8978 82.769 84.4C83.0764 84.9023 83.4822 85.3372 83.9621 85.6785C84.442 86.0198 84.986 86.2604 85.5614 86.386C86.1368 86.5115 86.7316 86.5193 87.3101 86.4089L87.3057 86.4045Z" fill="#F9A826" />
    <path d="M227.796 325.707C315.053 325.707 385.788 254.984 385.788 167.743C385.788 80.5018 315.053 9.77893 227.796 9.77893C140.54 9.77893 69.8044 80.5018 69.8044 167.743C69.8044 254.984 140.54 325.707 227.796 325.707Z" fill="url(#paint0_linear)" />
    <path d="M227.796 323.089C313.606 323.089 383.169 253.538 383.169 167.743C383.169 81.9478 313.606 12.3971 227.796 12.3971C141.986 12.3971 72.4231 81.9478 72.4231 167.743C72.4231 253.538 141.986 323.089 227.796 323.089Z" fill="#F9A826" />
    <path d="M227.796 291.234C296.011 291.234 351.309 235.945 351.309 167.743C351.309 99.5406 296.011 44.2517 227.796 44.2517C159.582 44.2517 104.283 99.5406 104.283 167.743C104.283 235.945 159.582 291.234 227.796 291.234Z" fill="#DDE1EC" />
    <path opacity="0.3" d="M231.288 66.07H224.305V175.161H231.288V66.07Z" fill="#535461" />
    <g opacity="0.1">
      <path opacity="0.1" d="M333.852 165.125H235.216V173.852H333.852V165.125Z" fill="black" />
      <path opacity="0.1" d="M165.578 132.473L161.528 140.205L223.591 172.7L227.64 164.968L165.578 132.473Z" fill="black" />
      <path opacity="0.1" d="M227.796 182.579C235.027 182.579 240.889 176.718 240.889 169.488C240.889 162.258 235.027 156.397 227.796 156.397C220.565 156.397 214.703 162.258 214.703 169.488C214.703 176.718 220.565 182.579 227.796 182.579Z" fill="black" />
    </g>
    <path d="M333.852 163.379H235.216V172.107H333.852V163.379Z" fill="#535461" />
    <path d="M227.669 163.233L165.607 130.738L161.557 138.469L223.62 170.964L227.669 163.233Z" fill="#535461" />
    <path d="M227.796 180.834C235.027 180.834 240.889 174.973 240.889 167.743C240.889 160.513 235.027 154.652 227.796 154.652C220.565 154.652 214.703 160.513 214.703 167.743C214.703 174.973 220.565 180.834 227.796 180.834Z" fill="#535461" />
    <g opacity="0.1">
      <path opacity="0.1" d="M113.876 182.579C113.876 114.376 169.173 59.0881 237.389 59.0881C256.536 59.0712 275.423 63.5118 292.555 72.0583C309.688 80.6048 324.595 93.0224 336.095 108.328C315.076 70.1369 274.487 44.2517 227.788 44.2517C159.572 44.2517 104.275 99.5391 104.275 167.743C104.234 194.536 112.95 220.61 129.095 241.995C119.083 223.793 113.847 203.352 113.876 182.579Z" fill="black" />
    </g>
    <path d="M341.917 76.9005C340.45 75.4911 328.108 84.7551 328.108 84.7551C328.108 84.7551 323.713 85.558 324.76 88.5733C325.808 91.5885 320.156 108.476 320.156 108.476L317.856 105.26C318.078 101.485 317.04 98.8104 316.027 97.1435C315.944 97.0082 315.861 96.8773 315.778 96.7551L316.18 96.6155C316.027 94.5558 312.732 91.4184 310.982 89.8824C310.982 89.6598 310.982 89.446 310.982 89.2191C311.091 86.758 312.077 84.1616 310.982 81.9318C309.742 79.3878 306.116 78.1092 305.81 75.3165C305.627 73.6496 306.753 72.1441 307.25 70.5383C308.438 66.6983 305.972 62.7798 303.615 59.4721C302.817 58.232 301.845 57.1123 300.73 56.147C299.668 55.3705 298.501 54.7477 297.265 54.2968C293.812 52.9005 290.282 52.1979 286.72 51.2423C283.303 50.3346 280.152 49.9026 276.682 51.0416C275.859 51.2635 275.107 51.695 274.5 52.2939C273.675 53.219 273.566 54.5368 273.025 55.6408C272.152 57.4168 270.271 58.4772 268.608 59.6161C266.945 60.755 265.278 62.3172 265.269 64.2809C265.269 67.0692 268.455 68.8234 269.52 71.4198C270.515 73.8372 269.52 76.5296 268.966 79.078C268.734 79.9016 268.712 80.77 268.9 81.6045C269.12 82.2265 269.451 82.8032 269.878 83.3063C270.537 84.1791 271.244 84.9907 271.947 85.8198L271.624 85.9464C265.767 85.3442 262 92.7798 262 92.7798C262.271 92.8366 262.528 92.902 262.781 92.9762L262.533 93.2991C260.763 95.5972 259.316 98.1269 258.234 100.818L253.433 107.25C253.433 107.25 252.385 91.1653 254.899 87.5478C257.413 83.9303 252.599 81.718 252.599 81.718C252.599 81.718 242.125 70.0583 240.671 71.062C239.218 72.0656 244.228 84.7333 248.623 86.7449C248.623 86.7449 249.06 90.7638 248.187 93.3776C247.659 95.0315 244.839 112.477 244.839 112.477C244.839 112.477 242.33 127.152 253.839 119.896C261.315 115.191 266.146 107.093 268.608 102.005C268.78 101.647 268.941 101.305 269.092 100.979C269.206 101.519 269.283 102.065 269.324 102.615L269.76 119.429C269.871 123.587 268.963 127.71 267.115 131.437L261.987 141.836L262.559 142.01L262.214 142.508C258.836 147.478 253.092 158.653 264.916 164.348L280.627 166.36L279.79 170.379C279.79 170.379 273.304 182.64 271.419 191.084C270.247 196.255 268.418 201.254 265.976 205.96L266.461 206.217C266.36 206.331 266.255 206.448 266.155 206.571C265.202 207.642 264.573 208.961 264.339 210.376L262.21 213.395C262.21 213.395 261.372 225.858 263.048 228.878C263.964 230.527 267.006 231.574 269.594 232.185C273.435 233.097 276.534 229.131 274.495 225.862L274.469 225.819H274.43C273.994 223.79 272.658 217.493 273.094 215.102C273.217 214.421 273.33 213.744 273.387 213.055C273.492 212.149 273.767 211.271 274.199 210.467C274.269 210.332 274.343 210.201 274.417 210.07L274.644 210.166C275.347 210.467 276.04 210.751 276.699 211C275.678 211.929 274.954 213.854 275.827 217.811C275.827 217.811 275.91 227.712 276.665 229.27C277.42 230.828 285.869 232.888 287.336 231.282C288.802 229.676 286.393 224.143 286.393 224.143L286.319 224.195C285.834 220.988 285.236 215.246 286.707 212.985C287.301 212.073 287.877 211.131 288.392 210.249L288.71 209.704C291.442 211.065 294.332 212.091 295.912 211.379C295.912 211.379 302.816 195.295 302.397 193.288C301.978 191.28 313.068 168.559 313.068 168.559C313.068 168.559 322.482 158.086 310.978 150.869C307.325 148.569 304.662 147.024 302.729 145.981L301.11 137.516C300.277 133.078 300.426 128.511 301.546 124.137L303.292 117.478L303.436 116.911C303.436 116.911 307.831 107.865 307.621 103.641C307.605 103.313 307.642 102.984 307.73 102.668C307.778 102.869 307.831 103.078 307.888 103.296C309.042 107.686 310.564 111.972 312.435 116.108C315.774 123.64 320.728 123.042 323.442 121.973C324.023 121.748 324.539 121.382 324.944 120.908C325.349 120.434 325.629 119.867 325.76 119.258C326.737 114.572 329.422 101.442 329.592 97.8155C329.744 94.98 330.094 92.1586 330.639 89.3718C337.526 85.3442 343.383 78.31 341.917 76.9005Z" fill="url(#paint1_linear)" />
    <path d="M290.683 205.724C290.683 205.724 289.762 207.57 288.501 209.787C288.008 210.659 287.458 211.598 286.895 212.501C284.9 215.691 286.895 225.854 286.895 225.854L282.53 226.451L278.166 224.27L277.367 216.895V211.502L282.343 205.938L284.525 203.529L290.683 205.724Z" fill="#F8BDC5" />
    <g opacity="0.1">
      <path opacity="0.1" d="M290.683 205.724C290.683 205.724 289.762 207.57 288.501 209.787C286.574 208.757 284.711 207.612 282.923 206.357L282.539 206.086L282.334 205.938L284.516 203.529L290.683 205.724Z" fill="black" />
    </g>
    <path d="M312.021 168.45C312.021 168.45 301.454 190.971 301.856 192.965C302.258 194.959 295.676 210.904 295.676 210.904C294.175 211.611 291.416 210.594 288.815 209.246C286.854 208.2 284.959 207.034 283.141 205.755L282.757 205.484L282.526 205.318L299.87 157.283L284.525 146.029L283.39 145.196L276.529 140.134L297.478 143.922C297.478 143.922 298.207 143.83 302.061 145.986C303.912 147.02 306.482 148.569 310.035 150.899C320.985 158.086 312.021 168.45 312.021 168.45Z" fill="#5E52AD" />
    <g opacity="0.03">
      <path opacity="0.03" d="M312.021 168.45C312.021 168.45 301.454 190.971 301.856 192.965C302.258 194.959 295.676 210.904 295.676 210.904C294.175 211.611 291.416 210.594 288.815 209.246C286.854 208.2 284.959 207.034 283.141 205.755L282.757 205.484L282.526 205.318L299.87 157.283L284.525 146.029L283.39 145.196L276.529 140.134L297.478 143.922C297.478 143.922 298.207 143.83 302.061 145.986C303.912 147.02 306.482 148.569 310.035 150.899C320.985 158.086 312.021 168.45 312.021 168.45Z" fill="black" />
    </g>
    <path d="M279.92 209.708C279.92 209.708 274.736 208.91 276.534 217.283C276.534 217.283 276.612 227.102 277.332 228.629C278.052 230.156 286.105 232.216 287.497 230.623C288.889 229.03 286.598 223.55 286.598 223.55C286.598 223.55 280.719 227.835 279.122 223.248C277.524 218.662 279.92 209.708 279.92 209.708Z" fill="#5D3E53" />
    <path d="M276.329 208.115C275.763 208.654 275.303 209.293 274.971 210C274.559 210.801 274.298 211.671 274.199 212.566C274.146 213.247 274.037 213.923 273.924 214.595C273.426 217.436 275.333 225.854 275.333 225.854L267.757 227.049L264.968 224.06L264.37 217.484C265.114 215.229 265.517 212.876 265.566 210.502C265.566 208.787 266.439 207.256 267.312 206.139C267.903 205.393 268.582 204.721 269.332 204.136C269.332 204.136 277.926 206.719 276.329 208.115Z" fill="#F8BDC5" />
    <g opacity="0.1">
      <path opacity="0.1" d="M276.329 208.115C275.763 208.654 275.303 209.293 274.971 210C271.868 208.6 268.608 206.832 267.421 206.178L267.329 206.13C267.921 205.385 268.599 204.712 269.35 204.127C269.35 204.127 277.926 206.719 276.329 208.115Z" fill="black" />
    </g>
    <path d="M300.852 162.472C300.852 162.472 295.872 171.84 292.678 179.612C290.583 184.718 286.253 196.875 283.512 204.616L283.111 205.759C281.906 209.184 281.103 211.502 281.103 211.502C280.572 211.505 280.044 211.427 279.536 211.27C279.065 211.144 278.537 210.974 277.974 210.764L277.341 210.524C276.713 210.28 276.032 209.996 275.381 209.699C272.213 208.286 268.835 206.444 267.608 205.772L267.146 205.515C269.485 200.829 271.231 195.87 272.344 190.752C274.138 182.383 280.318 170.243 280.318 170.243L281.116 166.255L266.164 164.261C254.899 158.632 260.372 147.535 263.589 142.608C264.137 141.753 264.73 140.927 265.365 140.134L277.328 142.752C277.328 142.752 279.213 143.355 283.403 145.209L285.328 146.082C287.676 147.16 290.565 148.547 294.057 150.328C305.832 156.28 300.852 162.472 300.852 162.472Z" fill="#5E52AD" />
    <path d="M275.259 225.256C275.686 225.974 275.89 226.803 275.846 227.638C275.803 228.472 275.513 229.275 275.014 229.945C274.514 230.615 273.827 231.123 273.04 231.403C272.253 231.684 271.4 231.725 270.589 231.522C268.141 230.915 265.239 229.877 264.366 228.24C262.773 225.251 263.567 212.894 263.567 212.894L265.662 209.804C265.662 209.804 264.566 223.458 267.159 224.64C269.751 225.823 275.233 225.195 275.233 225.195L275.259 225.256Z" fill="#5D3E53" />
    <path d="M277.38 51.9274C276.584 52.1489 275.861 52.5781 275.285 53.171C274.5 54.0874 274.413 55.3965 273.88 56.4918C273.051 58.2372 271.261 59.3063 269.673 60.419C268.084 61.5318 266.5 63.0983 266.491 65.0445C266.491 67.811 269.546 69.5478 270.541 72.118C271.488 74.518 270.541 77.1842 270.013 79.7107C269.793 80.5287 269.772 81.3876 269.952 82.2154C270.16 82.8295 270.477 83.4014 270.886 83.9042C272.811 86.5224 275.203 88.8438 276.49 91.8242C277.468 94.0889 277.738 96.5893 277.996 99.046C278.367 102.581 278.738 106.181 278.066 109.672C278 109.88 278 110.104 278.066 110.313C278.18 110.513 278.361 110.667 278.576 110.749C279.846 111.366 281.228 111.72 282.638 111.79C284.048 111.859 285.458 111.643 286.783 111.154C288.107 110.664 289.319 109.913 290.346 108.943C291.372 107.974 292.192 106.807 292.756 105.513C293.629 103.536 293.965 101.149 295.693 99.8664C295.895 99.6996 296.138 99.5896 296.396 99.5478C296.804 99.5591 297.199 99.6912 297.531 99.9275C299.774 101.141 302.493 101.175 304.994 100.678C306.504 100.377 308.049 99.8402 309.049 98.662C311.017 96.3231 309.921 92.8278 310.052 89.7776C310.157 87.3384 311.095 84.7638 310.052 82.5558C308.874 80.0336 305.413 78.7682 305.125 76.0103C304.95 74.3609 306.024 72.8641 306.5 71.2758C307.63 67.4663 305.282 63.5827 303.039 60.3056C302.284 59.0831 301.36 57.9739 300.294 57.011C299.287 56.245 298.176 55.6277 296.994 55.1783C293.708 53.795 290.356 53.0968 286.956 52.1543C283.7 51.2248 280.702 50.7928 277.38 51.9274Z" fill="#85555C" />
    <path d="M294.074 108.855H282.509V90.118C282.852 88.3184 283.054 86.4946 283.111 84.6634C283.111 84.0482 283.111 83.4198 283.111 82.7871C283.002 80.5529 282.539 78.3231 281.326 76.9616C278.135 73.3747 291.691 73.9725 291.691 73.9725C292.107 75.6196 292.647 77.2329 293.306 78.7987C294.288 81.2419 295.595 83.5418 297.19 85.6365C298.594 87.5004 300.393 89.0308 302.458 90.118C310.419 94.1064 294.074 108.855 294.074 108.855Z" fill="#F8BDC5" />
    <g opacity="0.1">
      <path opacity="0.1" d="M293.293 78.7987C292.119 80.3296 290.548 81.5103 288.751 82.2133C286.954 82.9163 284.999 83.1147 283.098 82.7871C282.989 80.5529 282.526 78.3231 281.313 76.9616C278.122 73.3747 291.678 73.9725 291.678 73.9725C292.094 75.6196 292.634 77.2329 293.293 78.7987Z" fill="black" />
    </g>
    <path d="M284.9 82.3507C290.736 82.3507 295.466 77.6209 295.466 71.7863C295.466 65.9518 290.736 61.222 284.9 61.222C279.065 61.222 274.334 65.9518 274.334 71.7863C274.334 77.6209 279.065 82.3507 284.9 82.3507Z" fill="#F8BDC5" />
    <path d="M328.758 89.9216C328.239 92.686 327.907 95.4821 327.763 98.2911C327.602 101.882 325.044 114.904 324.11 119.551C323.992 120.147 323.729 120.704 323.344 121.174C322.959 121.644 322.463 122.011 321.902 122.243C319.309 123.304 314.596 123.897 311.427 116.431C309.641 112.323 308.191 108.076 307.093 103.733C306.705 102.273 306.413 100.789 306.22 99.2904L313.203 95.5027C313.861 96.1176 314.417 96.8317 314.853 97.6191C315.818 99.2729 316.808 101.926 316.599 105.666L318.781 108.856C318.781 108.856 324.162 92.1122 323.146 89.1231C322.129 86.134 326.336 85.3354 326.336 85.3354C326.336 85.3354 338.098 76.1718 339.495 77.5638C340.891 78.9558 335.335 85.9333 328.758 89.9216Z" fill="#F8BDC5" />
    <path d="M271.545 97.894C271 99.4531 270.374 100.983 269.668 102.476C267.32 107.525 262.72 115.567 255.598 120.218C244.634 127.392 247.026 112.844 247.026 112.844C247.026 112.844 249.71 95.5464 250.216 93.91C251.015 91.318 250.613 87.334 250.613 87.334C246.428 85.3398 241.645 72.7856 243.037 71.7863C244.429 70.787 254.384 82.3507 254.384 82.3507C254.384 82.3507 258.971 84.5325 256.566 88.1325C254.162 91.7325 255.17 107.664 255.17 107.664L259.783 101.298C260.809 98.6411 262.188 96.1343 263.881 93.8446C264.754 92.6533 265.365 91.9333 265.365 91.9333L271.545 97.894Z" fill="#F8BDC5" />
    <g opacity="0.1">
      <path opacity="0.1" d="M314.858 97.6191C313.391 98.1602 307.713 100.451 307.085 103.728C306.696 102.268 306.405 100.784 306.212 99.286L313.195 95.4984C313.857 96.1135 314.418 96.8292 314.858 97.6191Z" fill="black" />
    </g>
    <g opacity="0.1">
      <path opacity="0.1" d="M271.545 97.8941C271 99.4531 270.374 100.983 269.668 102.476C269.398 100.504 268.285 95.4591 263.881 93.8315C264.754 92.6402 265.365 91.9202 265.365 91.9202L271.545 97.8941Z" fill="black" />
    </g>
    <g opacity="0.1">
      <path opacity="0.1" d="M294.074 108.856H282.509V90.118C282.852 88.3185 283.054 86.4946 283.111 84.6635C285.489 86.9587 284.9 90.5151 284.9 90.5151L291.08 104.479L294.074 92.134L293.079 90.5413L297.182 85.6627C298.586 87.5267 300.385 89.057 302.45 90.1442C310.419 94.1064 294.074 108.856 294.074 108.856Z" fill="black" />
    </g>
    <g opacity="0.1">
      <path opacity="0.1" d="M302.244 147.116C302.244 147.116 293.184 146.396 285.324 146.056L284.534 146.021C283.416 145.977 282.351 145.942 281.308 145.916C273.679 145.733 265.051 143.067 263.584 142.6C264.135 141.747 264.729 140.924 265.365 140.134L277.328 142.752C277.328 142.752 279.213 143.355 283.403 145.209L276.529 140.134L297.478 143.922C297.478 143.922 298.207 143.83 302.061 145.986L302.244 147.116Z" fill="black" />
    </g>
    <path d="M294.074 92.9107L293.079 91.318L297.505 86.0249C297.505 86.0249 306.631 90.4976 309.022 89.5158C309.022 89.5158 314.805 94.3158 315.002 97.0911C315.002 97.0911 306.631 99.8795 306.827 104.073C307.023 108.266 302.855 117.225 302.855 117.225L301.11 124.39C300.035 128.732 299.887 133.252 300.673 137.656L302.266 146.527C302.266 146.527 289.705 145.532 281.317 145.331C272.929 145.13 263.375 141.945 263.375 141.945L268.267 131.651C270.032 127.936 270.896 123.858 270.79 119.747L270.354 103.082C270.354 103.082 269.957 94.7129 263.371 93.3165C263.371 93.3165 266.958 85.942 272.536 86.5398C272.536 86.5398 280.662 83.1493 283.076 85.4402C285.489 87.7311 284.896 91.3224 284.896 91.3224L291.076 105.286L294.074 92.9107Z" fill="#ED677B" />
    <g opacity="0.1">
      <path opacity="0.1" d="M277.276 69.6089C278.877 69.6089 280.134 67.9114 281.736 67.9987C282.565 68.0423 283.277 68.5703 283.962 69.046C286.551 70.8386 289.432 72.1675 292.477 72.9732C293.66 73.2874 294.912 73.5231 296.099 73.2351C297.286 72.9471 298.399 72.0132 298.535 70.7958C298.568 70.2592 298.497 69.7213 298.325 69.2118C296.981 64.5306 293.941 60.5182 289.797 57.9579C288.139 56.9412 286.114 56.1645 284.276 56.8016C282.618 57.3732 281.548 58.9267 280.348 60.2052C279.444 61.1626 278.416 61.996 277.293 62.6838C276.42 63.2118 275.111 63.5565 274.609 64.5252C273.662 66.3318 275.15 69.5914 277.276 69.6089Z" fill="black" />
    </g>
    <path d="M277.276 69.2118C278.877 69.2118 280.134 67.5143 281.736 67.6016C282.565 67.6452 283.277 68.1732 283.962 68.6489C286.551 70.4415 289.432 71.7704 292.477 72.5761C293.66 72.8903 294.912 73.126 296.099 72.838C297.286 72.55 298.399 71.6161 298.535 70.3987C298.568 69.8621 298.497 69.3242 298.325 68.8147C296.981 64.1335 293.941 60.1211 289.797 57.5608C288.139 56.5441 286.114 55.7674 284.276 56.4045C282.618 56.9761 281.548 58.5296 280.348 59.8081C279.444 60.7655 278.416 61.5989 277.293 62.2867C276.42 62.8147 275.111 63.1594 274.609 64.1281C273.662 65.9521 275.15 69.19 277.276 69.2118Z" fill="#85555C" />
    <path opacity="0.05" d="M272.444 114.733C272.444 114.733 282.212 118.32 288.593 115.532L291.783 115.733C291.783 115.733 297.086 119.45 302.694 117.788" fill="black" />
    <path opacity="0.05" d="M318.694 108.755C318.694 108.755 317.101 112.543 317.895 113.738L318.694 108.755Z" fill="black" />
    <path opacity="0.05" d="M255.1 107.56C255.1 107.56 255.899 111.347 255.1 112.543V107.56Z" fill="black" />
    <path d="M420.433 193.868C420.433 193.868 402.172 212.126 412.481 239.215C422.79 266.305 394.814 311.355 394.814 311.355C394.814 311.355 395.115 311.311 395.687 311.215C433.19 304.596 451.822 261.714 430.968 229.855C423.195 218.008 416.832 204.114 420.433 193.868Z" fill="#F9A826" />
    <path opacity="0.1" d="M420.433 194.174C420.433 194.174 402.172 212.431 412.481 239.521C422.79 266.61 394.814 311.656 394.814 311.656C394.814 311.656 395.115 311.612 395.687 311.516C433.19 304.897 451.822 262.015 430.968 230.156C423.195 218.313 416.832 204.419 420.433 194.174Z" fill="black" />
    <path d="M420.433 193.868C420.433 193.868 410.124 216.245 420.433 234.502C430.742 252.76 422.179 303.993 394.809 311.355" stroke="#535461" stroke-miterlimit="10" />
    <path d="M452.956 267.71C452.956 267.71 432.121 264.393 430.222 283.061C428.324 301.729 390.144 304.316 390.144 304.316L390.86 304.792C422.371 325.476 452.498 317.966 447.955 290.501C446.279 280.294 446.418 270.04 452.956 267.71Z" fill="#F9A826" />
    <path d="M452.956 267.71C452.956 267.71 436.782 271.257 438.117 285.963C439.453 300.668 414.113 318.293 390.161 304.321" stroke="#535461" stroke-miterlimit="10" />
    <path d="M434.626 304.997C434.626 304.997 418.216 301.716 413.838 297.339C409.461 292.962 389.768 285.308 387.582 290.793C385.395 296.278 358.043 314.859 376.64 318.14C395.237 321.422 420.402 322.504 425.871 320.322C431.339 318.14 434.626 304.997 434.626 304.997Z" fill="#A8A8A8" />
    <path opacity="0.2" d="M376.64 316.094C395.241 319.375 420.402 320.457 425.871 318.276C430.039 316.609 432.932 308.606 434.076 304.879L434.622 304.993C434.622 304.993 431.339 318.119 425.871 320.305C420.402 322.491 395.237 321.4 376.64 318.123C371.272 317.176 369.736 314.95 370.316 312.136C370.77 313.973 372.642 315.387 376.64 316.094Z" fill="black" />
  </g>
  <defs>
    <linearGradient id="paint0_linear" x1="227.796" y1="325.707" x2="227.796" y2="9.77893" gradientUnits="userSpaceOnUse">
      <stop stop-color="#808080" stop-opacity="0.25" />
      <stop offset="0.54" stop-color="#808080" stop-opacity="0.12" />
      <stop offset="1" stop-color="#808080" stop-opacity="0.1" />
    </linearGradient>
    <linearGradient id="paint1_linear" x1="76378.4" y1="108550" x2="76378.4" y2="32668.8" gradientUnits="userSpaceOnUse">
      <stop stop-color="#808080" stop-opacity="0.25" />
      <stop offset="0.54" stop-color="#808080" stop-opacity="0.12" />
      <stop offset="1" stop-color="#808080" stop-opacity="0.1" />
    </linearGradient>
    <clipPath id="clip0">
      <rect width="453" height="337" fill="white" />
    </clipPath>
  </defs>
</svg>