<svg width="108" height="34" viewBox="0 0 108 34" fill="none" xmlns="http://www.w3.org/2000/svg">
<g clip-path="url(#clip0)">
<path d="M108 16.6869C108 14.62 106.311 12.9398 104.236 12.9398C103.223 12.9398 102.305 13.345 101.629 13.9967C99.0651 12.3094 95.5957 11.2356 91.7537 11.0982L93.8546 4.48374L99.5439 5.81683L99.5354 5.899C99.5354 7.58908 100.917 8.96325 102.615 8.96325C104.312 8.96325 105.692 7.58908 105.692 5.899C105.692 4.20891 104.311 2.83333 102.615 2.83333C101.312 2.83333 100.201 3.64649 99.7522 4.78691L93.6194 3.349C93.3517 3.28383 93.0797 3.43824 92.9961 3.70174L90.6529 11.0783C86.6324 11.1265 82.9902 12.2088 80.3112 13.9471C79.6397 13.3266 78.7487 12.9384 77.7627 12.9384C75.6872 12.9384 74 14.62 74 16.6869C74 18.0611 74.7551 19.2525 75.8657 19.9042C75.7921 20.3037 75.7439 20.7074 75.7439 21.1182C75.7439 26.6588 82.5553 31.1667 90.9292 31.1667C99.3031 31.1667 106.116 26.6588 106.116 21.1182C106.116 20.7301 106.075 20.3476 106.01 19.9707C107.188 19.3375 108 18.1121 108 16.6869ZM83.5993 19.2596C83.5993 18.0299 84.6052 17.0283 85.8405 17.0283C87.0758 17.0283 88.0802 18.0299 88.0802 19.2596C88.0802 20.4892 87.0758 21.4894 85.8405 21.4894C84.6052 21.4894 83.5993 20.4892 83.5993 19.2596ZM96.4357 25.874C95.3067 26.9974 93.5344 27.5442 91.0184 27.5442L91 27.54L90.9816 27.5442C88.4642 27.5442 86.6919 26.9974 85.5642 25.874C85.3588 25.67 85.3588 25.3371 85.5642 25.1331C85.7697 24.9277 86.104 24.9277 86.3094 25.1331C87.2302 26.0497 88.7588 26.4945 90.9816 26.4945L91 26.4987L91.0184 26.4945C93.2412 26.4945 94.7697 26.0482 95.6906 25.1317C95.896 24.9262 96.2303 24.9277 96.4357 25.1317C96.6412 25.3371 96.6412 25.6686 96.4357 25.874ZM96.168 21.4894C94.9327 21.4894 93.9282 20.4892 93.9282 19.2596C93.9282 18.0299 94.9327 17.0283 96.168 17.0283C97.4033 17.0283 98.4077 18.0299 98.4077 19.2596C98.4077 20.4892 97.4033 21.4894 96.168 21.4894Z" fill="white"/>
</g>
<path d="M6.42221 24.2474H3.57451V30.7558H0V12.9769H6.44604C8.49542 12.9769 10.0762 13.4449 11.1882 14.3811C12.3003 15.3173 12.8563 16.6401 12.8563 18.3496C12.8563 19.5626 12.5982 20.576 12.0819 21.3901C11.5735 22.196 10.799 22.8391 9.75842 23.3194L13.5117 30.5848V30.7558H9.67501L6.42221 24.2474ZM3.57451 21.2802H6.45795C7.35555 21.2802 8.0506 21.0482 8.54308 20.5842C9.03557 20.112 9.28182 19.4649 9.28182 18.6427C9.28182 17.8042 9.04749 17.1448 8.57883 16.6645C8.11811 16.1842 7.40718 15.9441 6.44604 15.9441H3.57451V21.2802Z" fill="white"/>
<path d="M21.2922 31C19.4017 31 17.8606 30.4057 16.6691 29.2172C15.4856 28.0287 14.8938 26.4454 14.8938 24.4672V24.1253C14.8938 22.7984 15.144 21.614 15.6444 20.572C16.1449 19.5219 16.8518 18.7159 17.7653 18.1542C18.6868 17.5844 19.7353 17.2995 20.9109 17.2995C22.6743 17.2995 24.0604 17.8693 25.0692 19.009C26.086 20.1487 26.5944 21.7646 26.5944 23.8567V25.2976H18.3849C18.4961 26.1605 18.8297 26.8524 19.3858 27.3734C19.9498 27.8944 20.6607 28.1549 21.5186 28.1549C22.8451 28.1549 23.8817 27.6624 24.6284 26.6774L26.3203 28.6189C25.804 29.3678 25.105 29.9539 24.2233 30.3773C23.3416 30.7924 22.3645 31 21.2922 31ZM20.899 20.1568C20.2159 20.1568 19.6598 20.3929 19.2309 20.865C18.8099 21.3372 18.5398 22.0129 18.4207 22.892H23.2105V22.6112C23.1946 21.8297 22.9881 21.2273 22.5909 20.804C22.1938 20.3725 21.6298 20.1568 20.899 20.1568Z" fill="white"/>
<path d="M28.0242 24.0521C28.0242 21.9925 28.473 20.3522 29.3706 19.1311C30.2761 17.91 31.5113 17.2995 33.0762 17.2995C34.3312 17.2995 35.3678 17.7798 36.186 18.7404V12H39.6413V30.7558H36.5315L36.3647 29.3515C35.5068 30.4505 34.4027 31 33.0523 31C31.5351 31 30.3158 30.3895 29.3944 29.1684C28.4809 27.9392 28.0242 26.2337 28.0242 24.0521ZM31.4676 24.3085C31.4676 25.5458 31.6781 26.4942 32.0991 27.1536C32.5201 27.813 33.1318 28.1427 33.934 28.1427C34.9984 28.1427 35.7491 27.6827 36.186 26.7629V21.5488C35.757 20.629 35.0143 20.169 33.9579 20.169C32.2977 20.169 31.4676 21.5488 31.4676 24.3085Z" fill="white"/>
<path d="M41.7741 24.0521C41.7741 21.9925 42.2229 20.3522 43.1205 19.1311C44.0261 17.91 45.2613 17.2995 46.8261 17.2995C48.0812 17.2995 49.1178 17.7798 49.9359 18.7404V12H53.3913V30.7558H50.2815L50.1147 29.3515C49.2568 30.4505 48.1527 31 46.8023 31C45.2851 31 44.0658 30.3895 43.1444 29.1684C42.2309 27.9392 41.7741 26.2337 41.7741 24.0521ZM45.2176 24.3085C45.2176 25.5458 45.4281 26.4942 45.8491 27.1536C46.2701 27.813 46.8817 28.1427 47.684 28.1427C48.7484 28.1427 49.4991 27.6827 49.9359 26.7629V21.5488C49.507 20.629 48.7643 20.169 47.7078 20.169C46.0477 20.169 45.2176 21.5488 45.2176 24.3085Z" fill="white"/>
<path d="M59.6944 30.7558H56.239V17.5437H59.6944V30.7558ZM56.0364 14.1247C56.0364 13.5955 56.2072 13.16 56.5488 12.8181C56.8983 12.4762 57.3709 12.3053 57.9667 12.3053C58.5545 12.3053 59.0231 12.4762 59.3727 12.8181C59.7222 13.16 59.8969 13.5955 59.8969 14.1247C59.8969 14.662 59.7182 15.1015 59.3607 15.4434C59.0112 15.7853 58.5465 15.9563 57.9667 15.9563C57.3868 15.9563 56.9182 15.7853 56.5607 15.4434C56.2112 15.1015 56.0364 14.662 56.0364 14.1247Z" fill="white"/>
<path d="M66.6647 14.2956V17.5437H68.8689V20.1324H66.6647V26.7262C66.6647 27.2147 66.756 27.5647 66.9387 27.7764C67.1214 27.988 67.4709 28.0938 67.9872 28.0938C68.3685 28.0938 68.7061 28.0653 69 28.0084V30.6825C68.3248 30.8942 67.6298 31 66.9149 31C64.5001 31 63.2689 29.7504 63.2212 27.2513V20.1324H61.3386V17.5437H63.2212V14.2956H66.6647Z" fill="white"/>
<defs>
<clipPath id="clip0">
<rect x="74" width="34" height="34" fill="white"/>
</clipPath>
</defs>
</svg>
