<svg width="262" height="90" viewBox="0 0 262 90" fill="none" xmlns="http://www.w3.org/2000/svg">
<path d="M235.773 36.6849C238.914 36.6849 241.46 34.1388 241.46 30.9979C241.46 27.8571 238.914 25.3109 235.773 25.3109C232.632 25.3109 230.086 27.8571 230.086 30.9979C230.086 34.1388 232.632 36.6849 235.773 36.6849Z" fill="#FF4500"/>
<path d="M154.549 55.2469C157.339 55.2469 158.948 53.1549 158.841 51.1159C158.788 50.0429 158.68 49.3449 158.573 48.8089C156.856 41.4059 150.848 35.9329 143.712 35.9329C135.236 35.9329 128.369 43.6049 128.369 53.0469C128.369 62.4889 135.236 70.1609 143.712 70.1609C149.024 70.1609 152.833 68.2299 155.569 65.1719C156.91 63.6699 156.642 61.3629 155.032 60.2359C153.691 59.3239 152.028 59.6459 150.794 60.6649C149.614 61.6849 147.361 63.7229 143.712 63.7229C139.421 63.7229 135.773 60.0209 134.968 55.1389H154.549V55.2469ZM143.659 42.4249C147.521 42.4249 150.848 45.4289 152.082 49.5599H135.236C136.47 45.3759 139.796 42.4249 143.659 42.4249Z" fill="white"/>
<path d="M128.691 39.3129C128.691 37.7039 127.511 36.4159 126.009 36.1479C121.341 35.4509 116.942 37.1669 114.421 40.3329V39.9029C114.421 37.9179 112.811 36.6849 111.202 36.6849C109.431 36.6849 107.983 38.1329 107.983 39.9029V66.1909C107.983 67.9079 109.27 69.4099 110.987 69.5169C112.865 69.6239 114.421 68.1759 114.421 66.2979V52.7249C114.421 46.7169 118.927 41.7809 125.15 42.4789C125.365 42.4789 125.579 42.4789 125.794 42.4789C127.403 42.3709 128.691 40.9759 128.691 39.3129Z" fill="white"/>
<path d="M238.991 42.747C238.991 40.976 237.543 39.528 235.773 39.528C234.002 39.528 232.554 40.976 232.554 42.747C232.554 42.854 232.554 65.279 232.554 66.298C232.554 68.069 234.002 69.517 235.773 69.517C237.543 69.517 238.991 68.069 238.991 66.298C238.991 65.333 238.991 42.908 238.991 42.747Z" fill="white"/>
<path d="M191.137 24.9359C191.137 23.1649 189.689 21.7169 187.918 21.7169C186.148 21.7169 184.7 23.1649 184.7 24.9359V39.2599C182.5 37.0599 179.764 35.9869 176.491 35.9869C168.015 35.9869 161.148 43.6589 161.148 53.1009C161.148 62.5429 168.015 70.2149 176.491 70.2149C179.764 70.2149 182.554 69.0879 184.753 66.8879C185.021 68.3909 186.363 69.5169 187.918 69.5169C189.689 69.5169 191.137 68.0689 191.137 66.2979V24.9359ZM176.545 63.8299C171.609 63.8299 167.639 59.0559 167.639 53.1009C167.639 47.1999 171.609 42.3709 176.545 42.3709C181.481 42.3709 185.451 47.1459 185.451 53.1009C185.451 59.0559 181.427 63.8299 176.545 63.8299Z" fill="white"/>
<path d="M224.721 24.9359C224.721 23.1649 223.273 21.7169 221.502 21.7169C219.732 21.7169 218.283 23.1649 218.283 24.9359V39.2599C216.084 37.0599 213.348 35.9869 210.075 35.9869C201.599 35.9869 194.732 43.6589 194.732 53.1009C194.732 62.5429 201.599 70.2149 210.075 70.2149C213.348 70.2149 216.137 69.0879 218.337 66.8879C218.605 68.3909 219.946 69.5169 221.502 69.5169C223.273 69.5169 224.721 68.0689 224.721 66.2979V24.9359ZM210.075 63.8299C205.139 63.8299 201.17 59.0559 201.17 53.1009C201.17 47.1999 205.139 42.3709 210.075 42.3709C215.011 42.3709 218.981 47.1459 218.981 53.1009C218.981 59.0559 215.011 63.8299 210.075 63.8299Z" fill="white"/>
<path d="M255.3 66.3519V42.4249H258.144C259.646 42.4249 260.987 41.2979 261.094 39.7419C261.202 38.0789 259.861 36.6849 258.251 36.6849H255.3V32.1779C255.3 30.4609 254.013 28.9589 252.296 28.8519C250.418 28.7449 248.863 30.1929 248.863 32.0709V36.7379H246.18C244.678 36.7379 243.337 37.8649 243.23 39.4209C243.122 41.0839 244.464 42.4789 246.073 42.4789H248.809V66.4059C248.809 68.1759 250.258 69.6239 252.028 69.6239C253.906 69.5169 255.3 68.1219 255.3 66.3519Z" fill="white"/>
<path d="M45 89.957C69.829 89.957 89.957 69.829 89.957 45C89.957 20.1709 69.829 0.0429688 45 0.0429688C20.1709 0.0429688 0.0429688 20.1709 0.0429688 45C0.0429688 69.829 20.1709 89.957 45 89.957Z" fill="#FF4500"/>
<path d="M74.9889 45C74.9889 41.352 72.0389 38.455 68.4439 38.455C66.6739 38.455 65.0639 39.152 63.8839 40.279C59.3779 37.06 53.2079 34.968 46.3409 34.7L49.3449 20.644L59.1089 22.736C59.2169 25.204 61.2549 27.189 63.7769 27.189C66.3519 27.189 68.4439 25.097 68.4439 22.521C68.4439 19.946 66.3519 17.854 63.7769 17.854C61.9529 17.854 60.3429 18.927 59.5919 20.483L48.7019 18.176C48.3799 18.122 48.0579 18.176 47.8429 18.337C47.5749 18.498 47.4139 18.766 47.3609 19.088L44.0339 34.753C37.0599 34.968 30.7829 37.06 26.2229 40.333C25.0429 39.206 23.4329 38.509 21.6629 38.509C18.0149 38.509 15.1179 41.459 15.1179 45.054C15.1179 47.736 16.7269 49.989 18.9809 51.009C18.8729 51.652 18.8199 52.296 18.8199 52.994C18.8199 63.079 30.5689 71.288 45.0539 71.288C59.5389 71.288 71.2879 63.133 71.2879 52.994C71.2879 52.35 71.2339 51.652 71.1269 51.009C73.3799 49.989 74.9889 47.682 74.9889 45ZM30.0319 49.667C30.0319 47.092 32.1239 45 34.6999 45C37.2749 45 39.3669 47.092 39.3669 49.667C39.3669 52.242 37.2749 54.335 34.6999 54.335C32.1239 54.388 30.0319 52.242 30.0319 49.667ZM56.1589 62.06C52.9399 65.279 46.8239 65.494 45.0539 65.494C43.2299 65.494 37.1139 65.225 33.9479 62.06C33.4659 61.577 33.4659 60.826 33.9479 60.343C34.4309 59.861 35.1819 59.861 35.6649 60.343C37.7039 62.382 41.9959 63.079 45.0539 63.079C48.1119 63.079 52.4569 62.382 54.4419 60.343C54.9249 59.861 55.6759 59.861 56.1589 60.343C56.5879 60.826 56.5879 61.577 56.1589 62.06ZM55.2999 54.388C52.7249 54.388 50.6329 52.296 50.6329 49.721C50.6329 47.146 52.7249 45.054 55.2999 45.054C57.8759 45.054 59.9679 47.146 59.9679 49.721C59.9679 52.242 57.8759 54.388 55.2999 54.388Z" fill="white"/>
</svg>
